<?xml version="1.0" encoding="utf-8"?>
<!-- Generator: Adobe Illustrator 22.0.1, SVG Export Plug-In . SVG Version: 6.00 Build 0)  -->
<svg version="1.1" id="Layer_1" xmlns="http://www.w3.org/2000/svg" xmlns:xlink="http://www.w3.org/1999/xlink" x="0px" y="0px"
	 viewBox="0 0 556.1 158.9" style="enable-background:new 0 0 556.1 158.9;" xml:space="preserve">
<style type="text/css">
	.st0{clip-path:url(#SVGID_2_);}
	.st1{fill:#B6D7A8;}
	.st2{fill:none;stroke:#595959;stroke-linejoin:round;stroke-miterlimit:10;}
	.st3{fill:#FFD966;}
	.st4{fill:#B4A7D6;}
	.st5{fill:#D5A6BD;}
	.st6{fill:#9FC5E8;}
	.st7{fill:#A4C2F4;}
	.st8{fill-opacity:0;}
	.st9{fill:#595959;stroke:#595959;stroke-miterlimit:10;}
</style>
<g>
	<defs>
		<rect id="SVGID_1_" x="-22.5" y="-329.9" width="960" height="540"/>
	</defs>
	<clipPath id="SVGID_2_">
		<use xlink:href="#SVGID_1_"  style="overflow:visible;"/>
	</clipPath>
	<g class="st0">
		<path class="st1" d="M0.5,0.5h39.7v39.7H0.5L0.5,0.5z"/>
		<path class="st2" d="M0.5,0.5h39.7v39.7H0.5L0.5,0.5z"/>
		<path d="M21,26.2v-2.8h-5v-1.3l5.2-7.4h1.1v7.4H24v1.3h-1.5v2.8H21z M21,22.2V17l-3.6,5.2H21z"/>
		<path class="st3" d="M40.2,0.5h39.7v39.7H40.2V0.5z"/>
		<path class="st2" d="M40.2,0.5h39.7v39.7H40.2V0.5z"/>
		<path d="M56.2,20.5c0-1.4,0.1-2.4,0.4-3.3c0.3-0.8,0.7-1.5,1.3-1.9c0.6-0.4,1.2-0.7,2.1-0.7c0.6,0,1.2,0.1,1.6,0.4
			c0.5,0.2,0.9,0.6,1.2,1.1s0.5,1,0.7,1.7c0.2,0.7,0.3,1.6,0.3,2.7c0,1.3-0.1,2.4-0.4,3.3c-0.3,0.8-0.7,1.5-1.2,1.9
			c-0.6,0.4-1.2,0.7-2.1,0.7c-1.1,0-2-0.4-2.6-1.2C56.6,24.2,56.2,22.7,56.2,20.5z M57.6,20.5c0,1.9,0.2,3.1,0.7,3.8
			c0.4,0.6,1,0.9,1.6,0.9s1.2-0.3,1.6-0.9s0.7-1.9,0.7-3.8c0-1.9-0.2-3.1-0.7-3.8c-0.4-0.6-1-0.9-1.6-0.9c-0.6,0-1.2,0.3-1.5,0.8
			C57.9,17.4,57.6,18.7,57.6,20.5z"/>
		<path class="st3" d="M79.8,0.5h39.7v39.7H79.8V0.5z"/>
		<path class="st2" d="M79.8,0.5h39.7v39.7H79.8V0.5z"/>
		<path d="M95.9,20.5c0-1.4,0.1-2.4,0.4-3.3c0.3-0.8,0.7-1.5,1.3-1.9c0.6-0.4,1.2-0.7,2.1-0.7c0.6,0,1.2,0.1,1.6,0.4
			c0.5,0.2,0.9,0.6,1.2,1.1c0.3,0.5,0.5,1,0.7,1.7c0.2,0.7,0.3,1.6,0.3,2.7c0,1.3-0.1,2.4-0.4,3.3c-0.3,0.8-0.7,1.5-1.2,1.9
			c-0.6,0.4-1.2,0.7-2.1,0.7c-1.1,0-2-0.4-2.6-1.2C96.2,24.2,95.9,22.7,95.9,20.5z M97.3,20.5c0,1.9,0.2,3.1,0.7,3.8
			c0.4,0.6,1,0.9,1.6,0.9c0.6,0,1.2-0.3,1.6-0.9s0.7-1.9,0.7-3.8c0-1.9-0.2-3.1-0.7-3.8c-0.4-0.6-1-0.9-1.6-0.9
			c-0.6,0-1.2,0.3-1.5,0.8C97.5,17.4,97.3,18.7,97.3,20.5z"/>
		<path class="st3" d="M119.5,0.5h39.7v39.7h-39.7V0.5z"/>
		<path class="st2" d="M119.5,0.5h39.7v39.7h-39.7V0.5z"/>
		<path d="M135.5,20.5c0-1.4,0.1-2.4,0.4-3.3c0.3-0.8,0.7-1.5,1.3-1.9c0.6-0.4,1.2-0.7,2.1-0.7c0.6,0,1.2,0.1,1.6,0.4
			c0.5,0.2,0.9,0.6,1.2,1.1c0.3,0.5,0.5,1,0.7,1.7c0.2,0.7,0.3,1.6,0.3,2.7c0,1.3-0.1,2.4-0.4,3.3c-0.3,0.8-0.7,1.5-1.2,1.9
			c-0.6,0.4-1.2,0.7-2.1,0.7c-1.1,0-2-0.4-2.6-1.2C135.9,24.2,135.5,22.7,135.5,20.5z M136.9,20.5c0,1.9,0.2,3.1,0.7,3.8
			c0.4,0.6,1,0.9,1.6,0.9c0.6,0,1.2-0.3,1.6-0.9s0.7-1.9,0.7-3.8c0-1.9-0.2-3.1-0.7-3.8c-0.4-0.6-1-0.9-1.6-0.9
			c-0.6,0-1.2,0.3-1.5,0.8C137.2,17.4,136.9,18.7,136.9,20.5z"/>
		<path class="st3" d="M159.1,0.5h39.7v39.7h-39.7V0.5z"/>
		<path class="st2" d="M159.1,0.5h39.7v39.7h-39.7V0.5z"/>
		<path d="M175.2,20.5c0-1.4,0.1-2.4,0.4-3.3c0.3-0.8,0.7-1.5,1.3-1.9c0.6-0.4,1.2-0.7,2.1-0.7c0.6,0,1.2,0.1,1.6,0.4
			c0.5,0.2,0.9,0.6,1.2,1.1c0.3,0.5,0.5,1,0.7,1.7c0.2,0.7,0.3,1.6,0.3,2.7c0,1.3-0.1,2.4-0.4,3.3c-0.3,0.8-0.7,1.5-1.2,1.9
			c-0.6,0.4-1.2,0.7-2.1,0.7c-1.1,0-2-0.4-2.6-1.2C175.5,24.2,175.2,22.7,175.2,20.5z M176.6,20.5c0,1.9,0.2,3.1,0.7,3.8
			c0.4,0.6,1,0.9,1.6,0.9c0.6,0,1.2-0.3,1.6-0.9c0.4-0.6,0.7-1.9,0.7-3.8c0-1.9-0.2-3.1-0.7-3.8c-0.4-0.6-1-0.9-1.6-0.9
			c-0.6,0-1.2,0.3-1.5,0.8C176.8,17.4,176.6,18.7,176.6,20.5z"/>
		<path class="st4" d="M238.4,0.5h39.7v39.7h-39.7V0.5z"/>
		<path class="st2" d="M238.4,0.5h39.7v39.7h-39.7V0.5z"/>
		<path d="M254.5,20.5c0-1.4,0.1-2.4,0.4-3.3c0.3-0.8,0.7-1.5,1.3-1.9c0.6-0.4,1.2-0.7,2.1-0.7c0.6,0,1.2,0.1,1.6,0.4
			c0.5,0.2,0.9,0.6,1.2,1.1s0.5,1,0.7,1.7c0.2,0.7,0.3,1.6,0.3,2.7c0,1.3-0.1,2.4-0.4,3.3c-0.3,0.8-0.7,1.5-1.2,1.9
			c-0.6,0.4-1.2,0.7-2.1,0.7c-1.1,0-2-0.4-2.6-1.2C254.8,24.2,254.5,22.7,254.5,20.5z M255.9,20.5c0,1.9,0.2,3.1,0.7,3.8
			c0.4,0.6,1,0.9,1.6,0.9s1.2-0.3,1.6-0.9s0.7-1.9,0.7-3.8c0-1.9-0.2-3.1-0.7-3.8c-0.4-0.6-1-0.9-1.6-0.9c-0.6,0-1.2,0.3-1.5,0.8
			C256.2,17.4,255.9,18.7,255.9,20.5z"/>
		<path class="st1" d="M0.5,118.7h39.7v39.7H0.5L0.5,118.7z"/>
		<path class="st2" d="M0.5,118.7h39.7v39.7H0.5L0.5,118.7z"/>
		<path d="M21,144.4v-2.8h-5v-1.3l5.2-7.4h1.1v7.4H24v1.3h-1.5v2.8H21z M21,140.4v-5.2l-3.6,5.2H21z"/>
		<path class="st3" d="M40.2,118.7h39.7v39.7H40.2V118.7z"/>
		<path class="st2" d="M40.2,118.7h39.7v39.7H40.2V118.7z"/>
		<path d="M56.2,138.8c0-1.4,0.1-2.4,0.4-3.3c0.3-0.8,0.7-1.5,1.3-1.9c0.6-0.4,1.2-0.7,2.1-0.7c0.6,0,1.2,0.1,1.6,0.4
			c0.5,0.2,0.9,0.6,1.2,1.1s0.5,1,0.7,1.7c0.2,0.7,0.3,1.6,0.3,2.7c0,1.3-0.1,2.4-0.4,3.3c-0.3,0.8-0.7,1.5-1.2,1.9
			c-0.6,0.4-1.2,0.7-2.1,0.7c-1.1,0-2-0.4-2.6-1.2C56.6,142.5,56.2,140.9,56.2,138.8z M57.6,138.8c0,1.9,0.2,3.1,0.7,3.8
			c0.4,0.6,1,0.9,1.6,0.9s1.2-0.3,1.6-0.9s0.7-1.9,0.7-3.8c0-1.9-0.2-3.1-0.7-3.8c-0.4-0.6-1-0.9-1.6-0.9c-0.6,0-1.2,0.3-1.5,0.8
			C57.9,135.6,57.6,136.9,57.6,138.8z"/>
		<path class="st3" d="M79.8,118.7h39.7v39.7H79.8V118.7z"/>
		<path class="st2" d="M79.8,118.7h39.7v39.7H79.8V118.7z"/>
		<path d="M95.9,141.4l1.4-0.2c0.2,0.8,0.4,1.4,0.8,1.7c0.4,0.3,0.9,0.5,1.4,0.5c0.7,0,1.2-0.2,1.7-0.7c0.5-0.5,0.7-1,0.7-1.7
			c0-0.6-0.2-1.2-0.6-1.6c-0.4-0.4-1-0.6-1.6-0.6c-0.3,0-0.6,0.1-1,0.2l0.2-1.2c0.1,0,0.2,0,0.2,0c0.6,0,1.1-0.2,1.6-0.5
			c0.5-0.3,0.7-0.8,0.7-1.5c0-0.5-0.2-0.9-0.5-1.3c-0.3-0.3-0.8-0.5-1.3-0.5c-0.6,0-1,0.2-1.4,0.5c-0.4,0.3-0.6,0.9-0.7,1.5
			l-1.4-0.3c0.2-0.9,0.6-1.7,1.2-2.2c0.6-0.5,1.4-0.8,2.3-0.8c0.6,0,1.2,0.1,1.7,0.4c0.5,0.3,0.9,0.6,1.2,1.1
			c0.3,0.5,0.4,0.9,0.4,1.5c0,0.5-0.1,1-0.4,1.4c-0.3,0.4-0.7,0.7-1.2,1c0.7,0.2,1.2,0.5,1.6,1c0.4,0.5,0.6,1.1,0.6,1.8
			c0,1-0.4,1.8-1.1,2.5c-0.7,0.7-1.7,1-2.8,1c-1,0-1.8-0.3-2.5-0.9C96.3,143.1,96,142.4,95.9,141.4z"/>
		<path class="st1" d="M119.5,118.7h39.7v39.7h-39.7V118.7z"/>
		<path class="st2" d="M119.5,118.7h39.7v39.7h-39.7V118.7z"/>
		<path d="M135.5,141.4l1.4-0.2c0.2,0.8,0.4,1.4,0.8,1.7c0.4,0.3,0.9,0.5,1.4,0.5c0.7,0,1.2-0.2,1.7-0.7c0.5-0.5,0.7-1,0.7-1.7
			c0-0.6-0.2-1.2-0.6-1.6c-0.4-0.4-1-0.6-1.6-0.6c-0.3,0-0.6,0.1-1,0.2l0.2-1.2c0.1,0,0.2,0,0.2,0c0.6,0,1.1-0.2,1.6-0.5
			c0.5-0.3,0.7-0.8,0.7-1.5c0-0.5-0.2-0.9-0.5-1.3c-0.3-0.3-0.8-0.5-1.3-0.5c-0.6,0-1,0.2-1.4,0.5c-0.4,0.3-0.6,0.9-0.7,1.5
			l-1.4-0.3c0.2-0.9,0.6-1.7,1.2-2.2c0.6-0.5,1.4-0.8,2.3-0.8c0.6,0,1.2,0.1,1.7,0.4c0.5,0.3,0.9,0.6,1.2,1.1
			c0.3,0.5,0.4,0.9,0.4,1.5c0,0.5-0.1,1-0.4,1.4c-0.3,0.4-0.7,0.7-1.2,1c0.7,0.2,1.2,0.5,1.6,1c0.4,0.5,0.6,1.1,0.6,1.8
			c0,1-0.4,1.8-1.1,2.5c-0.7,0.7-1.7,1-2.8,1c-1,0-1.8-0.3-2.5-0.9C136,143.1,135.6,142.4,135.5,141.4z"/>
		<path class="st4" d="M159.1,118.7h39.7v39.7h-39.7V118.7z"/>
		<path class="st2" d="M159.1,118.7h39.7v39.7h-39.7V118.7z"/>
		<path d="M175.2,138.8c0-1.4,0.1-2.4,0.4-3.3c0.3-0.8,0.7-1.5,1.3-1.9c0.6-0.4,1.2-0.7,2.1-0.7c0.6,0,1.2,0.1,1.6,0.4
			c0.5,0.2,0.9,0.6,1.2,1.1c0.3,0.5,0.5,1,0.7,1.7c0.2,0.7,0.3,1.6,0.3,2.7c0,1.3-0.1,2.4-0.4,3.3c-0.3,0.8-0.7,1.5-1.2,1.9
			c-0.6,0.4-1.2,0.7-2.1,0.7c-1.1,0-2-0.4-2.6-1.2C175.5,142.5,175.2,140.9,175.2,138.8z M176.6,138.8c0,1.9,0.2,3.1,0.7,3.8
			c0.4,0.6,1,0.9,1.6,0.9c0.6,0,1.2-0.3,1.6-0.9c0.4-0.6,0.7-1.9,0.7-3.8c0-1.9-0.2-3.1-0.7-3.8c-0.4-0.6-1-0.9-1.6-0.9
			c-0.6,0-1.2,0.3-1.5,0.8C176.8,135.6,176.6,136.9,176.6,138.8z"/>
		<path class="st4" d="M198.8,118.7h39.7v39.7h-39.7V118.7z"/>
		<path class="st2" d="M198.8,118.7h39.7v39.7h-39.7V118.7z"/>
		<path d="M214.8,138.8c0-1.4,0.1-2.4,0.4-3.3c0.3-0.8,0.7-1.5,1.3-1.9c0.6-0.4,1.2-0.7,2.1-0.7c0.6,0,1.2,0.1,1.6,0.4
			c0.5,0.2,0.9,0.6,1.2,1.1s0.5,1,0.7,1.7c0.2,0.7,0.3,1.6,0.3,2.7c0,1.3-0.1,2.4-0.4,3.3c-0.3,0.8-0.7,1.5-1.2,1.9
			c-0.6,0.4-1.2,0.7-2.1,0.7c-1.1,0-2-0.4-2.6-1.2C215.2,142.5,214.8,140.9,214.8,138.8z M216.3,138.8c0,1.9,0.2,3.1,0.7,3.8
			c0.4,0.6,1,0.9,1.6,0.9s1.2-0.3,1.6-0.9s0.7-1.9,0.7-3.8c0-1.9-0.2-3.1-0.7-3.8c-0.4-0.6-1-0.9-1.6-0.9c-0.6,0-1.2,0.3-1.5,0.8
			C216.5,135.6,216.3,136.9,216.3,138.8z"/>
		<path class="st1" d="M198.8,0.5h39.7v39.7h-39.7V0.5z"/>
		<path class="st2" d="M198.8,0.5h39.7v39.7h-39.7V0.5z"/>
		<path d="M214.8,23.2l1.4-0.2c0.2,0.8,0.4,1.4,0.8,1.7c0.4,0.3,0.9,0.5,1.4,0.5c0.7,0,1.2-0.2,1.7-0.7c0.5-0.5,0.7-1,0.7-1.7
			c0-0.6-0.2-1.2-0.6-1.6c-0.4-0.4-1-0.6-1.6-0.6c-0.3,0-0.6,0.1-1,0.2l0.2-1.2c0.1,0,0.2,0,0.2,0c0.6,0,1.1-0.2,1.6-0.5
			s0.7-0.8,0.7-1.5c0-0.5-0.2-0.9-0.5-1.3c-0.3-0.3-0.8-0.5-1.3-0.5s-1,0.2-1.4,0.5s-0.6,0.9-0.7,1.5l-1.4-0.3
			c0.2-0.9,0.6-1.7,1.2-2.2c0.6-0.5,1.4-0.8,2.3-0.8c0.6,0,1.2,0.1,1.7,0.4c0.5,0.3,0.9,0.6,1.2,1.1c0.3,0.5,0.4,0.9,0.4,1.5
			c0,0.5-0.1,1-0.4,1.4c-0.3,0.4-0.7,0.7-1.2,1c0.7,0.2,1.2,0.5,1.6,1c0.4,0.5,0.6,1.1,0.6,1.8c0,1-0.4,1.8-1.1,2.5
			c-0.7,0.7-1.7,1-2.8,1c-1,0-1.8-0.3-2.5-0.9C215.3,24.9,214.9,24.1,214.8,23.2z"/>
		<path class="st1" d="M278.1,0.5h39.7v39.7h-39.7V0.5z"/>
		<path class="st2" d="M278.1,0.5h39.7v39.7h-39.7V0.5z"/>
		<path d="M301.5,24.8v1.4h-7.6c0-0.3,0-0.7,0.2-1c0.2-0.5,0.5-1,0.9-1.5c0.4-0.5,1-1.1,1.8-1.7c1.2-1,2.1-1.8,2.5-2.4
			c0.4-0.6,0.7-1.2,0.7-1.7c0-0.6-0.2-1-0.6-1.4c-0.4-0.4-0.9-0.6-1.6-0.6c-0.7,0-1.2,0.2-1.6,0.6s-0.6,1-0.6,1.7l-1.5-0.1
			c0.1-1.1,0.5-1.9,1.1-2.5c0.6-0.6,1.5-0.8,2.6-0.8c1.1,0,2,0.3,2.6,0.9c0.6,0.6,1,1.4,1,2.3c0,0.5-0.1,0.9-0.3,1.4
			c-0.2,0.4-0.5,0.9-0.9,1.4c-0.4,0.5-1.2,1.2-2.2,2c-0.8,0.7-1.4,1.2-1.6,1.5c-0.2,0.3-0.4,0.5-0.6,0.8H301.5z"/>
		<path class="st5" d="M317.7,0.5h39.7v39.7h-39.7V0.5z"/>
		<path class="st2" d="M317.7,0.5h39.7v39.7h-39.7V0.5z"/>
		<path d="M333.8,20.5c0-1.4,0.1-2.4,0.4-3.3c0.3-0.8,0.7-1.5,1.3-1.9c0.6-0.4,1.2-0.7,2.1-0.7c0.6,0,1.2,0.1,1.6,0.4
			c0.5,0.2,0.9,0.6,1.2,1.1s0.5,1,0.7,1.7c0.2,0.7,0.3,1.6,0.3,2.7c0,1.3-0.1,2.4-0.4,3.3c-0.3,0.8-0.7,1.5-1.2,1.9
			c-0.6,0.4-1.2,0.7-2.1,0.7c-1.1,0-2-0.4-2.6-1.2C334.2,24.2,333.8,22.7,333.8,20.5z M335.2,20.5c0,1.9,0.2,3.1,0.7,3.8
			c0.4,0.6,1,0.9,1.6,0.9s1.2-0.3,1.6-0.9s0.7-1.9,0.7-3.8c0-1.9-0.2-3.1-0.7-3.8c-0.4-0.6-1-0.9-1.6-0.9c-0.6,0-1.2,0.3-1.5,0.8
			C335.5,17.4,335.2,18.7,335.2,20.5z"/>
		<path class="st1" d="M357.4,0.5H397v39.7h-39.7V0.5z"/>
		<path class="st2" d="M357.4,0.5H397v39.7h-39.7V0.5z"/>
		<path d="M373.5,16.2v-1.4h7.4V16c-0.7,0.8-1.5,1.8-2.2,3.1c-0.7,1.3-1.3,2.6-1.7,4c-0.3,1-0.5,2-0.5,3.2h-1.5c0-0.9,0.2-2,0.5-3.3
			c0.3-1.3,0.8-2.5,1.5-3.7c0.6-1.2,1.3-2.2,2-3H373.5z"/>
		<path class="st1" d="M397,0.5h39.7v39.7H397V0.5z"/>
		<path class="st2" d="M397,0.5h39.7v39.7H397V0.5z"/>
		<path d="M418.4,26.2H417v-9c-0.3,0.3-0.8,0.6-1.3,1c-0.5,0.3-1,0.6-1.5,0.7v-1.4c0.8-0.4,1.5-0.8,2-1.3c0.6-0.5,1-1,1.3-1.5h0.9
			V26.2z"/>
		<path class="st6" d="M436.7,0.5h39.7v39.7h-39.7V0.5z"/>
		<path class="st2" d="M436.7,0.5h39.7v39.7h-39.7V0.5z"/>
		<path d="M452.7,20.5c0-1.4,0.1-2.4,0.4-3.3c0.3-0.8,0.7-1.5,1.3-1.9c0.6-0.4,1.2-0.7,2.1-0.7c0.6,0,1.2,0.1,1.6,0.4
			c0.5,0.2,0.9,0.6,1.2,1.1c0.3,0.5,0.5,1,0.7,1.7c0.2,0.7,0.3,1.6,0.3,2.7c0,1.3-0.1,2.4-0.4,3.3c-0.3,0.8-0.7,1.5-1.2,1.9
			c-0.6,0.4-1.2,0.7-2.1,0.7c-1.1,0-2-0.4-2.6-1.2C453.1,24.2,452.7,22.7,452.7,20.5z M454.2,20.5c0,1.9,0.2,3.1,0.7,3.8
			c0.4,0.6,1,0.9,1.6,0.9c0.6,0,1.2-0.3,1.6-0.9c0.4-0.6,0.7-1.9,0.7-3.8c0-1.9-0.2-3.1-0.7-3.8c-0.4-0.6-1-0.9-1.6-0.9
			c-0.6,0-1.2,0.3-1.5,0.8C454.4,17.4,454.2,18.7,454.2,20.5z"/>
		<path class="st1" d="M238.4,118.7h39.7v39.7h-39.7V118.7z"/>
		<path class="st2" d="M238.4,118.7h39.7v39.7h-39.7V118.7z"/>
		<path d="M261.9,143.1v1.4h-7.6c0-0.3,0-0.7,0.2-1c0.2-0.5,0.5-1,0.9-1.5s1-1.1,1.8-1.7c1.2-1,2.1-1.8,2.5-2.4
			c0.4-0.6,0.7-1.2,0.7-1.7c0-0.6-0.2-1-0.6-1.4c-0.4-0.4-0.9-0.6-1.6-0.6c-0.7,0-1.2,0.2-1.6,0.6s-0.6,1-0.6,1.7l-1.5-0.1
			c0.1-1.1,0.5-1.9,1.1-2.5s1.5-0.8,2.6-0.8c1.1,0,2,0.3,2.6,0.9c0.6,0.6,1,1.4,1,2.3c0,0.5-0.1,0.9-0.3,1.4
			c-0.2,0.4-0.5,0.9-0.9,1.4c-0.4,0.5-1.2,1.2-2.2,2c-0.8,0.7-1.4,1.2-1.6,1.5c-0.2,0.3-0.4,0.5-0.6,0.8H261.9z"/>
		<path class="st5" d="M278.1,118.7h39.7v39.7h-39.7V118.7z"/>
		<path class="st2" d="M278.1,118.7h39.7v39.7h-39.7V118.7z"/>
		<path d="M294.1,138.8c0-1.4,0.1-2.4,0.4-3.3c0.3-0.8,0.7-1.5,1.3-1.9c0.6-0.4,1.2-0.7,2.1-0.7c0.6,0,1.2,0.1,1.6,0.4
			c0.5,0.2,0.9,0.6,1.2,1.1c0.3,0.5,0.5,1,0.7,1.7c0.2,0.7,0.3,1.6,0.3,2.7c0,1.3-0.1,2.4-0.4,3.3c-0.3,0.8-0.7,1.5-1.2,1.9
			c-0.6,0.4-1.2,0.7-2.1,0.7c-1.1,0-2-0.4-2.6-1.2C294.5,142.5,294.1,140.9,294.1,138.8z M295.6,138.8c0,1.9,0.2,3.1,0.7,3.8
			c0.4,0.6,1,0.9,1.6,0.9c0.6,0,1.2-0.3,1.6-0.9s0.7-1.9,0.7-3.8c0-1.9-0.2-3.1-0.7-3.8c-0.4-0.6-1-0.9-1.6-0.9
			c-0.6,0-1.2,0.3-1.5,0.8C295.8,135.6,295.6,136.9,295.6,138.8z"/>
		<path class="st5" d="M317.7,118.7h39.7v39.7h-39.7V118.7z"/>
		<path class="st2" d="M317.7,118.7h39.7v39.7h-39.7V118.7z"/>
		<path d="M333.8,138.8c0-1.4,0.1-2.4,0.4-3.3c0.3-0.8,0.7-1.5,1.3-1.9c0.6-0.4,1.2-0.7,2.1-0.7c0.6,0,1.2,0.1,1.6,0.4
			c0.5,0.2,0.9,0.6,1.2,1.1s0.5,1,0.7,1.7c0.2,0.7,0.3,1.6,0.3,2.7c0,1.3-0.1,2.4-0.4,3.3c-0.3,0.8-0.7,1.5-1.2,1.9
			c-0.6,0.4-1.2,0.7-2.1,0.7c-1.1,0-2-0.4-2.6-1.2C334.2,142.5,333.8,140.9,333.8,138.8z M335.2,138.8c0,1.9,0.2,3.1,0.7,3.8
			c0.4,0.6,1,0.9,1.6,0.9s1.2-0.3,1.6-0.9s0.7-1.9,0.7-3.8c0-1.9-0.2-3.1-0.7-3.8c-0.4-0.6-1-0.9-1.6-0.9c-0.6,0-1.2,0.3-1.5,0.8
			C335.5,135.6,335.2,136.9,335.2,138.8z"/>
		<path class="st1" d="M357.4,118.7H397v39.7h-39.7V118.7z"/>
		<path class="st2" d="M357.4,118.7H397v39.7h-39.7V118.7z"/>
		<path d="M373.5,134.5v-1.4h7.4v1.1c-0.7,0.8-1.5,1.8-2.2,3.1c-0.7,1.3-1.3,2.6-1.7,4c-0.3,1-0.5,2-0.5,3.2h-1.5
			c0-0.9,0.2-2,0.5-3.3c0.3-1.3,0.8-2.5,1.5-3.7c0.6-1.2,1.3-2.2,2-3H373.5z"/>
		<path class="st1" d="M397,118.7h39.7v39.7H397V118.7z"/>
		<path class="st2" d="M397,118.7h39.7v39.7H397V118.7z"/>
		<path d="M418.4,144.4H417v-9c-0.3,0.3-0.8,0.6-1.3,1c-0.5,0.3-1,0.6-1.5,0.7v-1.4c0.8-0.4,1.5-0.8,2-1.3c0.6-0.5,1-1,1.3-1.5h0.9
			V144.4z"/>
		<path class="st7" d="M436.7,118.7h39.7v39.7h-39.7V118.7z"/>
		<path class="st2" d="M436.7,118.7h39.7v39.7h-39.7V118.7z"/>
		<path d="M452.7,138.8c0-1.4,0.1-2.4,0.4-3.3c0.3-0.8,0.7-1.5,1.3-1.9c0.6-0.4,1.2-0.7,2.1-0.7c0.6,0,1.2,0.1,1.6,0.4
			c0.5,0.2,0.9,0.6,1.2,1.1c0.3,0.5,0.5,1,0.7,1.7c0.2,0.7,0.3,1.6,0.3,2.7c0,1.3-0.1,2.4-0.4,3.3c-0.3,0.8-0.7,1.5-1.2,1.9
			c-0.6,0.4-1.2,0.7-2.1,0.7c-1.1,0-2-0.4-2.6-1.2C453.1,142.5,452.7,140.9,452.7,138.8z M454.2,138.8c0,1.9,0.2,3.1,0.7,3.8
			c0.4,0.6,1,0.9,1.6,0.9c0.6,0,1.2-0.3,1.6-0.9c0.4-0.6,0.7-1.9,0.7-3.8c0-1.9-0.2-3.1-0.7-3.8c-0.4-0.6-1-0.9-1.6-0.9
			c-0.6,0-1.2,0.3-1.5,0.8C454.4,135.6,454.2,136.9,454.2,138.8z"/>
		<path class="st7" d="M476.3,118.7H516v39.7h-39.7V118.7z"/>
		<path class="st2" d="M476.3,118.7H516v39.7h-39.7V118.7z"/>
		<path d="M492.4,138.8c0-1.4,0.1-2.4,0.4-3.3c0.3-0.8,0.7-1.5,1.3-1.9c0.6-0.4,1.2-0.7,2.1-0.7c0.6,0,1.2,0.1,1.6,0.4
			c0.5,0.2,0.9,0.6,1.2,1.1c0.3,0.5,0.5,1,0.7,1.7c0.2,0.7,0.3,1.6,0.3,2.7c0,1.3-0.1,2.4-0.4,3.3c-0.3,0.8-0.7,1.5-1.2,1.9
			c-0.6,0.4-1.2,0.7-2.1,0.7c-1.1,0-2-0.4-2.6-1.2C492.8,142.5,492.4,140.9,492.4,138.8z M493.8,138.8c0,1.9,0.2,3.1,0.7,3.8
			c0.4,0.6,1,0.9,1.6,0.9c0.6,0,1.2-0.3,1.6-0.9s0.7-1.9,0.7-3.8c0-1.9-0.2-3.1-0.7-3.8c-0.4-0.6-1-0.9-1.6-0.9
			c-0.6,0-1.2,0.3-1.5,0.8C494.1,135.6,493.8,136.9,493.8,138.8z"/>
		<path class="st1" d="M476.3,0.5H516v39.7h-39.7V0.5z"/>
		<path class="st2" d="M476.3,0.5H516v39.7h-39.7V0.5z"/>
		<path d="M491,26.2v-1.6h1.6v1.6H491z M495.4,26.2v-1.6h1.6v1.6H495.4z M499.8,26.2v-1.6h1.6v1.6H499.8z"/>
		<path class="st1" d="M516,118.7h39.7v39.7H516V118.7z"/>
		<path class="st2" d="M516,118.7h39.7v39.7H516V118.7z"/>
		<path d="M530.6,144.4v-1.6h1.6v1.6H530.6z M535.1,144.4v-1.6h1.6v1.6H535.1z M539.5,144.4v-1.6h1.6v1.6H539.5z"/>
		<path class="st8" d="M99.6,40.2h82v12.1h-82V40.2z"/>
		<path class="st2" d="M99.6,40.2h82v12.1h-82V40.2z"/>
		<path class="st8" d="M140.6,52.3l-41,66.5"/>
		<path class="st2" d="M140.6,52.3l-37.8,61.4"/>
		<path class="st9" d="M101.4,112.8l-1,4.7l3.8-3L101.4,112.8z"/>
		<path class="st8" d="M180.3,106.6h41v12.1h-41V106.6z"/>
		<path class="st2" d="M180.3,106.6h41v12.1h-41V106.6z"/>
		<path class="st8" d="M258.2,40.2l-57.5,66.5"/>
		<path class="st2" d="M258.2,40.2l-53.6,62"/>
		<path class="st9" d="M203.4,101l-1.7,4.5l4.2-2.4L203.4,101z"/>
		<path class="st8" d="M297.9,106.6h41v12.1h-41V106.6z"/>
		<path class="st2" d="M297.9,106.6h41v12.1h-41V106.6z"/>
		<path class="st8" d="M455.9,106.6h41v12.1h-41V106.6z"/>
		<path class="st2" d="M455.9,106.6h41v12.1h-41V106.6z"/>
		<path class="st8" d="M337.6,40.2l-19.1,66.5"/>
		<path class="st2" d="M337.6,40.2l-17.5,60.7"/>
		<path class="st9" d="M318.5,100.4l0.3,4.8l2.8-3.9L318.5,100.4z"/>
		<path class="st8" d="M456.5,40.2l19.8,66.5"/>
		<path class="st2" d="M456.5,40.2l18.1,60.7"/>
		<path class="st9" d="M473,101.4l2.9,3.9l0.3-4.8L473,101.4z"/>
	</g>
</g>
</svg>
