<?xml version="1.0" encoding="utf-8"?>
<!-- Generator: Adobe Illustrator 22.0.1, SVG Export Plug-In . SVG Version: 6.00 Build 0)  -->
<svg version="1.1" id="Layer_1" xmlns="http://www.w3.org/2000/svg" xmlns:xlink="http://www.w3.org/1999/xlink" x="0px" y="0px"
	 viewBox="0 0 698.9 474.1" style="enable-background:new 0 0 698.9 474.1;" xml:space="preserve">
<style type="text/css">
	.st0{clip-path:url(#SVGID_2_);}
	.st1{fill:#FFFFFF;}
	.st2{fill:none;stroke:#000000;stroke-linejoin:round;stroke-miterlimit:10;}
	.st3{fill:#EEEEEE;}
	.st4{fill-opacity:0;}
	.st5{fill:#FFE599;}
	.st6{fill:none;stroke:#595959;stroke-linejoin:round;stroke-miterlimit:10;}
</style>
<g>
	<defs>
		<rect id="SVGID_1_" x="-11.8" y="-30.8" width="960" height="540"/>
	</defs>
	<clipPath id="SVGID_2_">
		<use xlink:href="#SVGID_1_"  style="overflow:visible;"/>
	</clipPath>
	<g class="st0">
		<path class="st1" d="M127.3,0.5h185v470.3h-185V0.5z"/>
		<path class="st2" d="M127.3,0.5h185v470.3h-185V0.5z"/>
		<path class="st3" d="M158.4,21.1h123v42.4h-123V21.1z"/>
		<path class="st2" d="M158.4,21.1h123v42.4h-123V21.1z"/>
		<path d="M188.6,43.7L190,44c-0.3,1.1-0.8,2-1.6,2.6c-0.8,0.6-1.7,0.9-2.8,0.9c-1.1,0-2-0.2-2.8-0.7s-1.3-1.1-1.6-2
			c-0.4-0.9-0.5-1.8-0.5-2.8c0-1.1,0.2-2,0.6-2.9s1-1.4,1.8-1.8c0.8-0.4,1.6-0.6,2.5-0.6c1,0,1.9,0.3,2.6,0.8
			c0.7,0.5,1.2,1.3,1.5,2.3l-1.4,0.3c-0.2-0.8-0.6-1.3-1.1-1.7c-0.5-0.4-1-0.5-1.7-0.5c-0.8,0-1.5,0.2-2,0.6s-0.9,0.9-1.1,1.6
			c-0.2,0.6-0.3,1.3-0.3,2c0,0.9,0.1,1.7,0.4,2.3s0.7,1.2,1.2,1.5c0.6,0.3,1.1,0.5,1.8,0.5c0.8,0,1.4-0.2,2-0.7
			C188,45.2,188.4,44.6,188.6,43.7z M191,43.6c0-1.4,0.4-2.4,1.2-3.1c0.7-0.6,1.5-0.8,2.4-0.8c1.1,0,1.9,0.3,2.6,1
			c0.7,0.7,1,1.6,1,2.8c0,1-0.1,1.8-0.4,2.3c-0.3,0.6-0.7,1-1.3,1.3s-1.2,0.5-1.8,0.5c-1.1,0-1.9-0.3-2.6-1
			C191.4,45.8,191,44.9,191,43.6z M192.4,43.6c0,1,0.2,1.7,0.6,2.2c0.4,0.5,1,0.7,1.6,0.7c0.6,0,1.2-0.2,1.6-0.7
			c0.4-0.5,0.6-1.2,0.6-2.2c0-0.9-0.2-1.6-0.6-2.1c-0.4-0.5-1-0.7-1.6-0.7c-0.6,0-1.2,0.2-1.6,0.7C192.6,41.9,192.4,42.6,192.4,43.6
			z M199.7,47.4v-7.6h1.2v1.1c0.2-0.4,0.5-0.7,0.9-0.9c0.4-0.2,0.9-0.3,1.4-0.3c0.6,0,1,0.1,1.4,0.3c0.4,0.2,0.6,0.6,0.8,1
			c0.6-0.9,1.4-1.3,2.4-1.3c0.7,0,1.3,0.2,1.7,0.6c0.4,0.4,0.6,1.1,0.6,1.9v5.2h-1.3v-4.8c0-0.5,0-0.9-0.1-1.1
			c-0.1-0.2-0.2-0.4-0.5-0.5c-0.2-0.1-0.5-0.2-0.8-0.2c-0.5,0-1,0.2-1.3,0.5c-0.4,0.4-0.5,0.9-0.5,1.7v4.4h-1.3v-4.9
			c0-0.6-0.1-1-0.3-1.3c-0.2-0.3-0.6-0.4-1-0.4c-0.4,0-0.7,0.1-1,0.3c-0.3,0.2-0.5,0.5-0.7,0.8c-0.1,0.4-0.2,0.9-0.2,1.6v3.9H199.7z
			 M211.9,50.3V39.8h1.2v1c0.3-0.4,0.6-0.7,0.9-0.9c0.3-0.2,0.8-0.3,1.3-0.3c0.6,0,1.2,0.2,1.7,0.5s0.9,0.8,1.1,1.4
			c0.3,0.6,0.4,1.3,0.4,2c0,0.8-0.1,1.5-0.4,2.1c-0.3,0.6-0.7,1.1-1.2,1.4c-0.5,0.3-1.1,0.5-1.7,0.5c-0.4,0-0.8-0.1-1.2-0.3
			c-0.3-0.2-0.6-0.4-0.8-0.7v3.7H211.9z M213,43.6c0,1,0.2,1.7,0.6,2.2c0.4,0.5,0.9,0.7,1.5,0.7c0.6,0,1.1-0.2,1.5-0.7
			c0.4-0.5,0.6-1.2,0.6-2.3c0-1-0.2-1.7-0.6-2.2c-0.4-0.5-0.9-0.7-1.4-0.7c-0.5,0-1,0.3-1.5,0.8C213.2,41.9,213,42.6,213,43.6z
			 M220,47.4v-7.6h1.2v1.1c0.3-0.5,0.6-0.9,0.8-1c0.3-0.2,0.5-0.3,0.8-0.3c0.4,0,0.9,0.1,1.3,0.4l-0.4,1.2c-0.3-0.2-0.6-0.3-1-0.3
			c-0.3,0-0.5,0.1-0.8,0.3c-0.2,0.2-0.4,0.4-0.5,0.7c-0.1,0.5-0.2,1-0.2,1.5v4H220z M230.1,44.9l1.3,0.2c-0.2,0.8-0.6,1.4-1.2,1.8
			c-0.6,0.4-1.3,0.6-2.2,0.6c-1.1,0-2-0.3-2.7-1c-0.6-0.7-1-1.7-1-2.9c0-1.3,0.3-2.3,1-3c0.7-0.7,1.5-1.1,2.6-1.1c1,0,1.8,0.3,2.5,1
			c0.6,0.7,1,1.7,1,2.9c0,0.1,0,0.2,0,0.3h-5.7c0,0.8,0.3,1.5,0.7,1.9c0.4,0.4,1,0.7,1.6,0.7c0.5,0,0.9-0.1,1.2-0.4
			C229.6,45.9,229.9,45.5,230.1,44.9z M225.9,42.8h4.3c-0.1-0.6-0.2-1.1-0.5-1.4c-0.4-0.5-1-0.8-1.6-0.8c-0.6,0-1.1,0.2-1.5,0.6
			S225.9,42.2,225.9,42.8z M232.5,45.1l1.3-0.2c0.1,0.5,0.3,0.9,0.6,1.2c0.3,0.3,0.8,0.4,1.4,0.4c0.6,0,1-0.1,1.3-0.4
			c0.3-0.2,0.4-0.5,0.4-0.8c0-0.3-0.1-0.5-0.4-0.7c-0.2-0.1-0.6-0.3-1.3-0.4c-0.9-0.2-1.6-0.4-2-0.6c-0.4-0.2-0.6-0.4-0.8-0.7
			s-0.3-0.7-0.3-1c0-0.3,0.1-0.7,0.2-0.9c0.2-0.3,0.4-0.5,0.6-0.7c0.2-0.1,0.5-0.3,0.8-0.4c0.4-0.1,0.7-0.2,1.1-0.2
			c0.6,0,1.1,0.1,1.6,0.3c0.4,0.2,0.8,0.4,1,0.7s0.4,0.7,0.4,1.2l-1.3,0.2c-0.1-0.4-0.2-0.7-0.5-0.9c-0.3-0.2-0.7-0.3-1.2-0.3
			c-0.6,0-1,0.1-1.3,0.3c-0.3,0.2-0.4,0.4-0.4,0.7c0,0.2,0.1,0.3,0.2,0.5s0.3,0.3,0.5,0.3c0.1,0.1,0.5,0.2,1.1,0.3
			c0.9,0.2,1.5,0.4,1.9,0.6c0.4,0.2,0.7,0.4,0.9,0.7c0.2,0.3,0.3,0.7,0.3,1.1c0,0.4-0.1,0.8-0.4,1.2c-0.3,0.4-0.6,0.7-1.1,0.9
			c-0.5,0.2-1,0.3-1.6,0.3c-1,0-1.7-0.2-2.3-0.6C233,46.5,232.7,45.9,232.5,45.1z M239.9,45.1l1.3-0.2c0.1,0.5,0.3,0.9,0.6,1.2
			c0.3,0.3,0.8,0.4,1.4,0.4c0.6,0,1-0.1,1.3-0.4c0.3-0.2,0.4-0.5,0.4-0.8c0-0.3-0.1-0.5-0.4-0.7c-0.2-0.1-0.6-0.3-1.3-0.4
			c-0.9-0.2-1.6-0.4-2-0.6c-0.4-0.2-0.6-0.4-0.8-0.7s-0.3-0.7-0.3-1c0-0.3,0.1-0.7,0.2-0.9c0.2-0.3,0.4-0.5,0.6-0.7
			c0.2-0.1,0.5-0.3,0.8-0.4c0.4-0.1,0.7-0.2,1.1-0.2c0.6,0,1.1,0.1,1.6,0.3c0.4,0.2,0.8,0.4,1,0.7s0.4,0.7,0.4,1.2l-1.3,0.2
			c-0.1-0.4-0.2-0.7-0.5-0.9c-0.3-0.2-0.7-0.3-1.2-0.3c-0.6,0-1,0.1-1.3,0.3c-0.3,0.2-0.4,0.4-0.4,0.7c0,0.2,0.1,0.3,0.2,0.5
			s0.3,0.3,0.5,0.3c0.1,0.1,0.5,0.2,1.1,0.3c0.9,0.2,1.5,0.4,1.9,0.6c0.4,0.2,0.7,0.4,0.9,0.7c0.2,0.3,0.3,0.7,0.3,1.1
			c0,0.4-0.1,0.8-0.4,1.2c-0.3,0.4-0.6,0.7-1.1,0.9c-0.5,0.2-1,0.3-1.6,0.3c-1,0-1.7-0.2-2.3-0.6C240.3,46.5,240,45.9,239.9,45.1z
			 M247.2,43.6c0-1.4,0.4-2.4,1.2-3.1c0.7-0.6,1.5-0.8,2.4-0.8c1.1,0,1.9,0.3,2.6,1c0.7,0.7,1,1.6,1,2.8c0,1-0.1,1.8-0.4,2.3
			c-0.3,0.6-0.7,1-1.3,1.3s-1.2,0.5-1.8,0.5c-1.1,0-1.9-0.3-2.6-1C247.6,45.8,247.2,44.9,247.2,43.6z M248.6,43.6
			c0,1,0.2,1.7,0.6,2.2c0.4,0.5,1,0.7,1.6,0.7s1.2-0.2,1.6-0.7c0.4-0.5,0.6-1.2,0.6-2.2c0-0.9-0.2-1.6-0.6-2.1
			c-0.4-0.5-1-0.7-1.6-0.7c-0.6,0-1.2,0.2-1.6,0.7C248.8,41.9,248.6,42.6,248.6,43.6z M255.8,47.4v-7.6h1.2v1.1
			c0.3-0.5,0.6-0.9,0.8-1c0.3-0.2,0.5-0.3,0.8-0.3c0.4,0,0.9,0.1,1.3,0.4l-0.4,1.2c-0.3-0.2-0.6-0.3-1-0.3c-0.3,0-0.5,0.1-0.8,0.3
			c-0.2,0.2-0.4,0.4-0.5,0.7c-0.1,0.5-0.2,1-0.2,1.5v4H255.8z"/>
		<path class="st3" d="M158.4,95.4h123v42.4h-123V95.4z"/>
		<path class="st2" d="M158.4,95.4h123v42.4h-123V95.4z"/>
		<path d="M204.1,112.6l-2.8-10.5h1.4l1.6,6.9c0.2,0.7,0.3,1.4,0.4,2.1c0.3-1.1,0.4-1.8,0.5-1.9l2-7.1h1.7l1.5,5.3
			c0.4,1.3,0.7,2.6,0.8,3.7c0.1-0.7,0.3-1.4,0.5-2.3l1.6-6.7h1.4l-2.9,10.5h-1.3l-2.2-8c-0.2-0.7-0.3-1.1-0.3-1.2
			c-0.1,0.5-0.2,0.9-0.3,1.2l-2.2,8H204.1z M215.9,103.6v-1.5h1.3v1.5H215.9z M215.9,112.6V105h1.3v7.6H215.9z M224.1,112.6v-1
			c-0.5,0.8-1.2,1.1-2.1,1.1c-0.6,0-1.2-0.2-1.7-0.5c-0.5-0.3-0.9-0.8-1.2-1.4c-0.3-0.6-0.4-1.3-0.4-2.1c0-0.8,0.1-1.4,0.4-2.1
			c0.3-0.6,0.6-1.1,1.1-1.4c0.5-0.3,1.1-0.5,1.7-0.5c0.5,0,0.9,0.1,1.2,0.3c0.4,0.2,0.6,0.4,0.9,0.7v-3.8h1.3v10.5H224.1z
			 M220,108.8c0,1,0.2,1.7,0.6,2.2c0.4,0.5,0.9,0.7,1.5,0.7c0.6,0,1-0.2,1.4-0.7c0.4-0.5,0.6-1.2,0.6-2.1c0-1-0.2-1.8-0.6-2.3
			c-0.4-0.5-0.9-0.7-1.5-0.7c-0.6,0-1,0.2-1.4,0.7C220.2,107.1,220,107.8,220,108.8z M230.2,111.5l0.2,1.1c-0.4,0.1-0.7,0.1-1,0.1
			c-0.5,0-0.8-0.1-1.1-0.2c-0.3-0.1-0.4-0.3-0.5-0.6c-0.1-0.2-0.2-0.7-0.2-1.5V106h-1v-1h1v-1.9l1.3-0.8v2.7h1.3v1h-1.3v4.4
			c0,0.4,0,0.6,0.1,0.7c0.1,0.1,0.1,0.2,0.2,0.3c0.1,0.1,0.3,0.1,0.5,0.1C229.7,111.5,229.9,111.5,230.2,111.5z M231.4,112.6v-10.5
			h1.3v3.8c0.6-0.7,1.4-1,2.3-1c0.6,0,1.1,0.1,1.5,0.3c0.4,0.2,0.7,0.5,0.9,0.9c0.2,0.4,0.3,1,0.3,1.7v4.8h-1.3v-4.8
			c0-0.6-0.1-1.1-0.4-1.4s-0.7-0.4-1.2-0.4c-0.4,0-0.7,0.1-1.1,0.3c-0.3,0.2-0.6,0.5-0.7,0.8c-0.1,0.3-0.2,0.8-0.2,1.4v4.2H231.4z"
			/>
		<path d="M189.6,130.6v-10.5h7.6v1.2H191v3.2h5.8v1.2H191v3.6h6.4v1.2H189.6z M198.4,130.6l2.8-4l-2.6-3.6h1.6l1.2,1.8
			c0.2,0.3,0.4,0.6,0.5,0.8c0.2-0.3,0.4-0.6,0.6-0.8l1.3-1.8h1.5l-2.6,3.6l2.8,4h-1.6l-1.6-2.4l-0.4-0.6l-2,3H198.4z M206.6,133.5
			V123h1.2v1c0.3-0.4,0.6-0.7,0.9-0.9c0.3-0.2,0.8-0.3,1.3-0.3c0.6,0,1.2,0.2,1.7,0.5s0.9,0.8,1.1,1.4c0.3,0.6,0.4,1.3,0.4,2
			c0,0.8-0.1,1.5-0.4,2.1c-0.3,0.6-0.7,1.1-1.2,1.4c-0.5,0.3-1.1,0.5-1.7,0.5c-0.4,0-0.8-0.1-1.2-0.3c-0.3-0.2-0.6-0.4-0.8-0.7v3.7
			H206.6z M207.7,126.9c0,1,0.2,1.7,0.6,2.2c0.4,0.5,0.9,0.7,1.5,0.7c0.6,0,1.1-0.2,1.5-0.7c0.4-0.5,0.6-1.2,0.6-2.3
			c0-1-0.2-1.7-0.6-2.2c-0.4-0.5-0.9-0.7-1.4-0.7c-0.5,0-1,0.3-1.5,0.8C207.9,125.1,207.7,125.9,207.7,126.9z M219.7,129.7
			c-0.5,0.4-0.9,0.7-1.4,0.9c-0.4,0.2-0.9,0.3-1.4,0.3c-0.8,0-1.5-0.2-1.9-0.6c-0.4-0.4-0.7-0.9-0.7-1.6c0-0.4,0.1-0.7,0.3-1
			c0.2-0.3,0.4-0.6,0.7-0.8c0.3-0.2,0.6-0.3,0.9-0.4c0.2-0.1,0.6-0.1,1.1-0.2c1-0.1,1.8-0.3,2.3-0.5c0-0.2,0-0.3,0-0.3
			c0-0.5-0.1-0.9-0.4-1.1c-0.3-0.3-0.8-0.4-1.5-0.4c-0.6,0-1.1,0.1-1.4,0.3c-0.3,0.2-0.5,0.6-0.6,1.1l-1.3-0.2
			c0.1-0.5,0.3-1,0.6-1.3c0.3-0.3,0.6-0.6,1.1-0.8c0.5-0.2,1.1-0.3,1.7-0.3c0.7,0,1.2,0.1,1.6,0.2c0.4,0.1,0.7,0.3,0.9,0.6
			c0.2,0.2,0.3,0.5,0.4,0.9c0,0.2,0.1,0.6,0.1,1.2v1.7c0,1.2,0,2,0.1,2.3c0.1,0.3,0.2,0.6,0.3,0.9h-1.3
			C219.8,130.3,219.7,130,219.7,129.7z M219.6,126.8c-0.5,0.2-1.2,0.3-2.1,0.5c-0.5,0.1-0.9,0.2-1.1,0.3c-0.2,0.1-0.4,0.2-0.5,0.4
			c-0.1,0.2-0.2,0.4-0.2,0.6c0,0.3,0.1,0.6,0.4,0.9c0.3,0.2,0.6,0.3,1.1,0.3c0.5,0,0.9-0.1,1.3-0.3c0.4-0.2,0.7-0.5,0.9-0.9
			c0.1-0.3,0.2-0.7,0.2-1.3V126.8z M222.9,130.6V123h1.2v1.1c0.6-0.8,1.4-1.3,2.4-1.3c0.5,0,0.9,0.1,1.3,0.3
			c0.4,0.2,0.7,0.4,0.9,0.6s0.3,0.6,0.4,1c0,0.2,0.1,0.7,0.1,1.3v4.7h-1.3V126c0-0.5-0.1-0.9-0.2-1.2c-0.1-0.3-0.3-0.5-0.5-0.6
			c-0.3-0.2-0.5-0.2-0.9-0.2c-0.5,0-1,0.2-1.4,0.5c-0.4,0.3-0.6,1-0.6,2v4.2H222.9z M235.9,130.6v-1c-0.5,0.8-1.2,1.1-2.1,1.1
			c-0.6,0-1.2-0.2-1.7-0.5c-0.5-0.3-0.9-0.8-1.2-1.4c-0.3-0.6-0.4-1.3-0.4-2.1c0-0.8,0.1-1.4,0.4-2.1c0.3-0.6,0.6-1.1,1.1-1.4
			c0.5-0.3,1.1-0.5,1.7-0.5c0.5,0,0.9,0.1,1.2,0.3c0.4,0.2,0.6,0.4,0.9,0.7v-3.8h1.3v10.5H235.9z M231.9,126.8c0,1,0.2,1.7,0.6,2.2
			c0.4,0.5,0.9,0.7,1.5,0.7c0.6,0,1-0.2,1.4-0.7s0.6-1.2,0.6-2.1c0-1-0.2-1.8-0.6-2.3c-0.4-0.5-0.9-0.7-1.5-0.7
			c-0.6,0-1,0.2-1.4,0.7S231.9,125.8,231.9,126.8z M244.4,128.2l1.3,0.2c-0.2,0.8-0.6,1.4-1.2,1.8c-0.6,0.4-1.3,0.6-2.2,0.6
			c-1.1,0-2-0.3-2.7-1c-0.6-0.7-1-1.7-1-2.9c0-1.3,0.3-2.3,1-3c0.7-0.7,1.5-1.1,2.6-1.1c1,0,1.8,0.3,2.5,1c0.6,0.7,1,1.7,1,2.9
			c0,0.1,0,0.2,0,0.3h-5.7c0,0.8,0.3,1.5,0.7,1.9c0.4,0.4,1,0.7,1.6,0.7c0.5,0,0.9-0.1,1.2-0.4C243.9,129.1,244.2,128.7,244.4,128.2
			z M240.1,126.1h4.3c-0.1-0.6-0.2-1.1-0.5-1.4c-0.4-0.5-1-0.8-1.6-0.8c-0.6,0-1.1,0.2-1.5,0.6S240.2,125.4,240.1,126.1z
			 M247.3,130.6V123h1.2v1.1c0.3-0.5,0.6-0.9,0.8-1c0.3-0.2,0.5-0.3,0.8-0.3c0.4,0,0.9,0.1,1.3,0.4l-0.4,1.2c-0.3-0.2-0.6-0.3-1-0.3
			c-0.3,0-0.5,0.1-0.8,0.3c-0.2,0.2-0.4,0.4-0.5,0.7c-0.1,0.5-0.2,1-0.2,1.5v4H247.3z"/>
		<path class="st3" d="M158.4,169.6h123V212h-123V169.6z"/>
		<path class="st2" d="M158.4,169.6h123V212h-123V169.6z"/>
		<path d="M186.4,195.9v-10.5h7.6v1.2h-6.2v3.2h5.8v1.2h-5.8v3.6h6.4v1.2H186.4z M196,195.9v-7.6h1.2v1.1c0.6-0.8,1.4-1.3,2.4-1.3
			c0.5,0,0.9,0.1,1.3,0.3c0.4,0.2,0.7,0.4,0.9,0.6c0.2,0.3,0.3,0.6,0.4,1c0,0.2,0.1,0.7,0.1,1.3v4.7h-1.3v-4.6
			c0-0.5-0.1-0.9-0.2-1.2c-0.1-0.3-0.3-0.5-0.5-0.6c-0.3-0.2-0.5-0.2-0.9-0.2c-0.5,0-1,0.2-1.4,0.5c-0.4,0.3-0.6,1-0.6,2v4.2H196z
			 M209.1,193.1l1.3,0.2c-0.1,0.9-0.5,1.6-1.1,2.1c-0.6,0.5-1.3,0.7-2.1,0.7c-1,0-1.9-0.3-2.5-1c-0.6-0.7-0.9-1.7-0.9-2.9
			c0-0.8,0.1-1.5,0.4-2.2c0.3-0.6,0.7-1.1,1.2-1.4c0.6-0.3,1.2-0.5,1.8-0.5c0.8,0,1.5,0.2,2,0.6c0.5,0.4,0.9,1,1,1.8l-1.3,0.2
			c-0.1-0.5-0.3-0.9-0.6-1.2c-0.3-0.3-0.7-0.4-1.1-0.4c-0.7,0-1.2,0.2-1.6,0.7c-0.4,0.5-0.6,1.2-0.6,2.2c0,1,0.2,1.8,0.6,2.2
			c0.4,0.5,0.9,0.7,1.5,0.7c0.5,0,0.9-0.2,1.3-0.5C208.8,194.2,209,193.7,209.1,193.1z M211.4,195.9v-7.6h1.2v1.1
			c0.3-0.5,0.6-0.9,0.8-1c0.2-0.2,0.5-0.3,0.8-0.3c0.4,0,0.9,0.1,1.3,0.4l-0.4,1.2c-0.3-0.2-0.6-0.3-1-0.3c-0.3,0-0.5,0.1-0.8,0.3
			c-0.2,0.2-0.4,0.4-0.5,0.7c-0.1,0.5-0.2,1-0.2,1.5v4H211.4z M216.3,198.8l-0.1-1.2c0.3,0.1,0.5,0.1,0.7,0.1c0.3,0,0.5,0,0.7-0.1
			c0.2-0.1,0.3-0.2,0.4-0.4c0.1-0.1,0.2-0.4,0.4-1c0-0.1,0.1-0.2,0.1-0.3l-2.9-7.6h1.4l1.6,4.4c0.2,0.6,0.4,1.2,0.5,1.8
			c0.2-0.6,0.3-1.2,0.5-1.7l1.6-4.4h1.3l-2.9,7.7c-0.3,0.8-0.6,1.4-0.7,1.7c-0.2,0.4-0.5,0.7-0.8,0.9c-0.3,0.2-0.6,0.3-1.1,0.3
			C216.9,198.9,216.6,198.9,216.3,198.8z M223.7,198.8v-10.5h1.2v1c0.3-0.4,0.6-0.7,0.9-0.9c0.3-0.2,0.8-0.3,1.3-0.3
			c0.6,0,1.2,0.2,1.7,0.5c0.5,0.3,0.9,0.8,1.1,1.4c0.3,0.6,0.4,1.3,0.4,2c0,0.8-0.1,1.5-0.4,2.1c-0.3,0.6-0.7,1.1-1.2,1.4
			c-0.5,0.3-1.1,0.5-1.7,0.5c-0.4,0-0.8-0.1-1.2-0.3c-0.3-0.2-0.6-0.4-0.8-0.7v3.7H223.7z M224.8,192.1c0,1,0.2,1.7,0.6,2.2
			c0.4,0.5,0.9,0.7,1.5,0.7c0.6,0,1.1-0.2,1.5-0.7c0.4-0.5,0.6-1.2,0.6-2.3c0-1-0.2-1.7-0.6-2.2c-0.4-0.5-0.9-0.7-1.4-0.7
			c-0.5,0-1,0.3-1.5,0.8C225,190.4,224.8,191.1,224.8,192.1z M234.6,194.7l0.2,1.1c-0.4,0.1-0.7,0.1-1,0.1c-0.5,0-0.8-0.1-1.1-0.2
			c-0.3-0.1-0.4-0.3-0.5-0.6c-0.1-0.2-0.2-0.7-0.2-1.5v-4.4h-1v-1h1v-1.9l1.3-0.8v2.7h1.3v1h-1.3v4.4c0,0.4,0,0.6,0.1,0.7
			c0.1,0.1,0.1,0.2,0.2,0.3c0.1,0.1,0.3,0.1,0.5,0.1C234.2,194.8,234.4,194.7,234.6,194.7z M235.9,186.9v-1.5h1.3v1.5H235.9z
			 M235.9,195.9v-7.6h1.3v7.6H235.9z M238.7,192.1c0-1.4,0.4-2.4,1.2-3.1c0.7-0.6,1.5-0.8,2.4-0.8c1.1,0,1.9,0.3,2.6,1
			c0.7,0.7,1,1.6,1,2.8c0,1-0.1,1.8-0.4,2.3c-0.3,0.6-0.7,1-1.3,1.3c-0.6,0.3-1.2,0.5-1.8,0.5c-1.1,0-1.9-0.3-2.6-1
			C239,194.3,238.7,193.4,238.7,192.1z M240,192.1c0,1,0.2,1.7,0.6,2.2c0.4,0.5,1,0.7,1.6,0.7c0.6,0,1.2-0.2,1.6-0.7
			c0.4-0.5,0.6-1.2,0.6-2.2c0-0.9-0.2-1.6-0.6-2.1c-0.4-0.5-1-0.7-1.6-0.7c-0.6,0-1.2,0.2-1.6,0.7C240.2,190.4,240,191.1,240,192.1z
			 M247.3,195.9v-7.6h1.2v1.1c0.6-0.8,1.4-1.3,2.4-1.3c0.5,0,0.9,0.1,1.3,0.3c0.4,0.2,0.7,0.4,0.9,0.6c0.2,0.3,0.3,0.6,0.4,1
			c0,0.2,0.1,0.7,0.1,1.3v4.7h-1.3v-4.6c0-0.5-0.1-0.9-0.2-1.2c-0.1-0.3-0.3-0.5-0.5-0.6c-0.3-0.2-0.5-0.2-0.9-0.2
			c-0.5,0-1,0.2-1.4,0.5c-0.4,0.3-0.6,1-0.6,2v4.2H247.3z"/>
		<path class="st3" d="M158.4,243.9h123v42.4h-123V243.9z"/>
		<path class="st2" d="M158.4,243.9h123v42.4h-123V243.9z"/>
		<path d="M204.1,261.1l-2.8-10.5h1.4l1.6,6.9c0.2,0.7,0.3,1.4,0.4,2.1c0.3-1.1,0.4-1.8,0.5-1.9l2-7.1h1.7l1.5,5.3
			c0.4,1.3,0.7,2.6,0.8,3.7c0.1-0.7,0.3-1.4,0.5-2.3l1.6-6.7h1.4l-2.9,10.5h-1.3l-2.2-8c-0.2-0.7-0.3-1.1-0.3-1.2
			c-0.1,0.5-0.2,0.9-0.3,1.2l-2.2,8H204.1z M215.9,252.1v-1.5h1.3v1.5H215.9z M215.9,261.1v-7.6h1.3v7.6H215.9z M224.1,261.1v-1
			c-0.5,0.8-1.2,1.1-2.1,1.1c-0.6,0-1.2-0.2-1.7-0.5c-0.5-0.3-0.9-0.8-1.2-1.4c-0.3-0.6-0.4-1.3-0.4-2.1c0-0.8,0.1-1.4,0.4-2.1
			c0.3-0.6,0.6-1.1,1.1-1.4c0.5-0.3,1.1-0.5,1.7-0.5c0.5,0,0.9,0.1,1.2,0.3c0.4,0.2,0.6,0.4,0.9,0.7v-3.8h1.3v10.5H224.1z
			 M220,257.3c0,1,0.2,1.7,0.6,2.2c0.4,0.5,0.9,0.7,1.5,0.7c0.6,0,1-0.2,1.4-0.7c0.4-0.5,0.6-1.2,0.6-2.1c0-1-0.2-1.8-0.6-2.3
			c-0.4-0.5-0.9-0.7-1.5-0.7c-0.6,0-1,0.2-1.4,0.7C220.2,255.6,220,256.3,220,257.3z M230.2,260l0.2,1.1c-0.4,0.1-0.7,0.1-1,0.1
			c-0.5,0-0.8-0.1-1.1-0.2c-0.3-0.1-0.4-0.3-0.5-0.6c-0.1-0.2-0.2-0.7-0.2-1.5v-4.4h-1v-1h1v-1.9l1.3-0.8v2.7h1.3v1h-1.3v4.4
			c0,0.4,0,0.6,0.1,0.7c0.1,0.1,0.1,0.2,0.2,0.3c0.1,0.1,0.3,0.1,0.5,0.1C229.7,260,229.9,260,230.2,260z M231.4,261.1v-10.5h1.3
			v3.8c0.6-0.7,1.4-1,2.3-1c0.6,0,1.1,0.1,1.5,0.3c0.4,0.2,0.7,0.5,0.9,0.9c0.2,0.4,0.3,1,0.3,1.7v4.8h-1.3v-4.8
			c0-0.6-0.1-1.1-0.4-1.4c-0.3-0.3-0.7-0.4-1.2-0.4c-0.4,0-0.7,0.1-1.1,0.3c-0.3,0.2-0.6,0.5-0.7,0.8c-0.1,0.3-0.2,0.8-0.2,1.4v4.2
			H231.4z"/>
		<path d="M194.3,275.4l1.4,0.3c-0.3,1.1-0.8,2-1.6,2.6c-0.8,0.6-1.7,0.9-2.8,0.9c-1.1,0-2-0.2-2.8-0.7s-1.3-1.1-1.6-2
			c-0.4-0.9-0.5-1.8-0.5-2.8c0-1.1,0.2-2,0.6-2.9s1-1.4,1.8-1.8c0.8-0.4,1.6-0.6,2.5-0.6c1,0,1.9,0.3,2.6,0.8
			c0.7,0.5,1.2,1.3,1.5,2.3l-1.4,0.3c-0.2-0.8-0.6-1.3-1.1-1.7c-0.5-0.4-1-0.5-1.7-0.5c-0.8,0-1.5,0.2-2,0.6s-0.9,0.9-1.1,1.6
			c-0.2,0.6-0.3,1.3-0.3,2c0,0.9,0.1,1.7,0.4,2.3s0.7,1.2,1.2,1.5c0.6,0.3,1.1,0.5,1.8,0.5c0.8,0,1.4-0.2,2-0.7
			C193.7,277,194.1,276.3,194.3,275.4z M196.7,275.3c0-1.4,0.4-2.4,1.2-3.1c0.7-0.6,1.5-0.8,2.4-0.8c1.1,0,1.9,0.3,2.6,1
			c0.7,0.7,1,1.6,1,2.8c0,1-0.1,1.8-0.4,2.3c-0.3,0.6-0.7,1-1.3,1.3s-1.2,0.5-1.8,0.5c-1.1,0-1.9-0.3-2.6-1
			C197,277.6,196.7,276.6,196.7,275.3z M198,275.3c0,1,0.2,1.7,0.6,2.2c0.4,0.5,1,0.7,1.6,0.7c0.6,0,1.2-0.2,1.6-0.7
			c0.4-0.5,0.6-1.2,0.6-2.2c0-0.9-0.2-1.6-0.6-2.1c-0.4-0.5-1-0.7-1.6-0.7c-0.6,0-1.2,0.2-1.6,0.7C198.3,273.6,198,274.3,198,275.3z
			 M205.4,279.1v-7.6h1.2v1.1c0.6-0.8,1.4-1.3,2.4-1.3c0.5,0,0.9,0.1,1.3,0.3c0.4,0.2,0.7,0.4,0.9,0.6c0.2,0.3,0.3,0.6,0.4,1
			c0,0.2,0.1,0.7,0.1,1.3v4.7h-1.3v-4.6c0-0.5-0.1-0.9-0.2-1.2c-0.1-0.3-0.3-0.5-0.5-0.6c-0.2-0.2-0.5-0.2-0.9-0.2
			c-0.5,0-1,0.2-1.4,0.5c-0.4,0.3-0.6,1-0.6,2v4.2H205.4z M216.3,278l0.2,1.1c-0.4,0.1-0.7,0.1-1,0.1c-0.5,0-0.8-0.1-1.1-0.2
			c-0.3-0.1-0.4-0.3-0.5-0.6c-0.1-0.2-0.2-0.7-0.2-1.5v-4.4h-1v-1h1v-1.9l1.3-0.8v2.7h1.3v1H215v4.4c0,0.4,0,0.6,0.1,0.7
			c0.1,0.1,0.1,0.2,0.2,0.3c0.1,0.1,0.3,0.1,0.5,0.1C215.9,278,216.1,278,216.3,278z M217.6,279.1v-7.6h1.2v1.1
			c0.3-0.5,0.6-0.9,0.8-1c0.2-0.2,0.5-0.3,0.8-0.3c0.4,0,0.9,0.1,1.3,0.4l-0.4,1.2c-0.3-0.2-0.6-0.3-1-0.3c-0.3,0-0.5,0.1-0.8,0.3
			c-0.2,0.2-0.4,0.4-0.5,0.7c-0.1,0.5-0.2,1-0.2,1.5v4H217.6z M227.4,278.2c-0.5,0.4-0.9,0.7-1.4,0.9s-0.9,0.3-1.4,0.3
			c-0.8,0-1.5-0.2-1.9-0.6s-0.7-0.9-0.7-1.6c0-0.4,0.1-0.7,0.3-1c0.2-0.3,0.4-0.6,0.7-0.8c0.3-0.2,0.6-0.3,0.9-0.4
			c0.3-0.1,0.6-0.1,1.1-0.2c1-0.1,1.8-0.3,2.3-0.5c0-0.2,0-0.3,0-0.3c0-0.5-0.1-0.9-0.4-1.1c-0.3-0.3-0.8-0.4-1.5-0.4
			c-0.6,0-1.1,0.1-1.4,0.3c-0.3,0.2-0.5,0.6-0.6,1.1l-1.3-0.2c0.1-0.5,0.3-1,0.6-1.3s0.6-0.6,1.1-0.8s1.1-0.3,1.7-0.3
			c0.7,0,1.2,0.1,1.6,0.2c0.4,0.1,0.7,0.3,0.9,0.6s0.3,0.5,0.4,0.9c0,0.2,0.1,0.6,0.1,1.2v1.7c0,1.2,0,2,0.1,2.3
			c0.1,0.3,0.2,0.6,0.3,0.9h-1.3C227.5,278.8,227.5,278.5,227.4,278.2z M227.3,275.3c-0.5,0.2-1.2,0.3-2.1,0.5
			c-0.5,0.1-0.9,0.2-1.1,0.3c-0.2,0.1-0.4,0.2-0.5,0.4c-0.1,0.2-0.2,0.4-0.2,0.6c0,0.3,0.1,0.6,0.4,0.9s0.6,0.3,1.1,0.3
			c0.5,0,0.9-0.1,1.3-0.3c0.4-0.2,0.7-0.5,0.9-0.9c0.1-0.3,0.2-0.7,0.2-1.3V275.3z M235.6,276.3l1.3,0.2c-0.1,0.9-0.5,1.6-1.1,2.1
			c-0.6,0.5-1.3,0.7-2.1,0.7c-1,0-1.9-0.3-2.5-1c-0.6-0.7-0.9-1.7-0.9-2.9c0-0.8,0.1-1.5,0.4-2.2c0.3-0.6,0.7-1.1,1.2-1.4
			c0.6-0.3,1.2-0.5,1.8-0.5c0.8,0,1.5,0.2,2,0.6c0.5,0.4,0.9,1,1,1.8l-1.3,0.2c-0.1-0.5-0.3-0.9-0.6-1.2c-0.3-0.3-0.7-0.4-1.1-0.4
			c-0.7,0-1.2,0.2-1.6,0.7s-0.6,1.2-0.6,2.2c0,1,0.2,1.8,0.6,2.2c0.4,0.5,0.9,0.7,1.5,0.7c0.5,0,0.9-0.2,1.3-0.5
			C235.3,277.5,235.5,277,235.6,276.3z M240.8,278l0.2,1.1c-0.4,0.1-0.7,0.1-1,0.1c-0.5,0-0.8-0.1-1.1-0.2c-0.3-0.1-0.4-0.3-0.5-0.6
			c-0.1-0.2-0.2-0.7-0.2-1.5v-4.4h-1v-1h1v-1.9l1.3-0.8v2.7h1.3v1h-1.3v4.4c0,0.4,0,0.6,0.1,0.7c0.1,0.1,0.1,0.2,0.2,0.3
			c0.1,0.1,0.3,0.1,0.5,0.1C240.3,278,240.5,278,240.8,278z M241.5,275.3c0-1.4,0.4-2.4,1.2-3.1c0.7-0.6,1.5-0.8,2.4-0.8
			c1.1,0,1.9,0.3,2.6,1c0.7,0.7,1,1.6,1,2.8c0,1-0.1,1.8-0.4,2.3c-0.3,0.6-0.7,1-1.3,1.3s-1.2,0.5-1.8,0.5c-1.1,0-1.9-0.3-2.6-1
			C241.9,277.6,241.5,276.6,241.5,275.3z M242.9,275.3c0,1,0.2,1.7,0.6,2.2c0.4,0.5,1,0.7,1.6,0.7s1.2-0.2,1.6-0.7
			c0.4-0.5,0.6-1.2,0.6-2.2c0-0.9-0.2-1.6-0.6-2.1c-0.4-0.5-1-0.7-1.6-0.7c-0.6,0-1.2,0.2-1.6,0.7
			C243.1,273.6,242.9,274.3,242.9,275.3z M250.1,279.1v-7.6h1.2v1.1c0.3-0.5,0.6-0.9,0.8-1c0.3-0.2,0.5-0.3,0.8-0.3
			c0.4,0,0.9,0.1,1.3,0.4l-0.4,1.2c-0.3-0.2-0.6-0.3-1-0.3c-0.3,0-0.5,0.1-0.8,0.3c-0.2,0.2-0.4,0.4-0.5,0.7c-0.1,0.5-0.2,1-0.2,1.5
			v4H250.1z"/>
		<path class="st3" d="M158.4,318.1h123v42.4h-123V318.1z"/>
		<path class="st2" d="M158.4,318.1h123v42.4h-123V318.1z"/>
		<path d="M176.2,344.4v-10.5h7.6v1.2h-6.2v3.2h5.8v1.2h-5.8v3.6h6.4v1.2H176.2z M193.4,340.7l1.4,0.3c-0.3,1.1-0.8,2-1.6,2.6
			c-0.8,0.6-1.7,0.9-2.8,0.9c-1.1,0-2-0.2-2.8-0.7c-0.7-0.5-1.3-1.1-1.6-2c-0.4-0.9-0.5-1.8-0.5-2.8c0-1.1,0.2-2,0.6-2.9
			c0.4-0.8,1-1.4,1.8-1.8c0.8-0.4,1.6-0.6,2.5-0.6c1,0,1.9,0.3,2.6,0.8c0.7,0.5,1.2,1.3,1.5,2.3l-1.4,0.3c-0.2-0.8-0.6-1.3-1.1-1.7
			c-0.5-0.4-1-0.5-1.7-0.5c-0.8,0-1.5,0.2-2,0.6c-0.5,0.4-0.9,0.9-1.1,1.6c-0.2,0.6-0.3,1.3-0.3,2c0,0.9,0.1,1.7,0.4,2.3
			c0.3,0.7,0.7,1.2,1.2,1.5c0.6,0.3,1.1,0.5,1.8,0.5c0.8,0,1.4-0.2,2-0.7C192.9,342.2,193.3,341.6,193.4,340.7z M204,340.7l1.4,0.3
			c-0.3,1.1-0.8,2-1.6,2.6c-0.8,0.6-1.7,0.9-2.8,0.9c-1.1,0-2-0.2-2.8-0.7c-0.7-0.5-1.3-1.1-1.6-2c-0.4-0.9-0.5-1.8-0.5-2.8
			c0-1.1,0.2-2,0.6-2.9c0.4-0.8,1-1.4,1.8-1.8c0.8-0.4,1.6-0.6,2.5-0.6c1,0,1.9,0.3,2.6,0.8c0.7,0.5,1.2,1.3,1.5,2.3l-1.4,0.3
			c-0.2-0.8-0.6-1.3-1.1-1.7c-0.5-0.4-1-0.5-1.7-0.5c-0.8,0-1.5,0.2-2,0.6c-0.5,0.4-0.9,0.9-1.1,1.6c-0.2,0.6-0.3,1.3-0.3,2
			c0,0.9,0.1,1.7,0.4,2.3c0.3,0.7,0.7,1.2,1.2,1.5c0.6,0.3,1.1,0.5,1.8,0.5c0.8,0,1.4-0.2,2-0.7C203.5,342.2,203.8,341.6,204,340.7z
			 M211.2,344.4v-10.5h7.6v1.2h-6.2v3.2h5.8v1.2h-5.8v3.6h6.4v1.2H211.2z M220.8,344.4v-7.6h1.2v1.1c0.6-0.8,1.4-1.3,2.4-1.3
			c0.5,0,0.9,0.1,1.3,0.3c0.4,0.2,0.7,0.4,0.9,0.6c0.2,0.3,0.3,0.6,0.4,1c0,0.2,0.1,0.7,0.1,1.3v4.7h-1.3v-4.6
			c0-0.5-0.1-0.9-0.2-1.2c-0.1-0.3-0.3-0.5-0.5-0.6c-0.3-0.2-0.5-0.2-0.9-0.2c-0.5,0-1,0.2-1.4,0.5c-0.4,0.3-0.6,1-0.6,2v4.2H220.8z
			 M233.9,341.6l1.3,0.2c-0.1,0.9-0.5,1.6-1.1,2.1c-0.6,0.5-1.3,0.7-2.1,0.7c-1,0-1.9-0.3-2.5-1c-0.6-0.7-0.9-1.7-0.9-2.9
			c0-0.8,0.1-1.5,0.4-2.2c0.3-0.6,0.7-1.1,1.2-1.4c0.6-0.3,1.2-0.5,1.8-0.5c0.8,0,1.5,0.2,2,0.6c0.5,0.4,0.9,1,1,1.8l-1.3,0.2
			c-0.1-0.5-0.3-0.9-0.6-1.2c-0.3-0.3-0.7-0.4-1.1-0.4c-0.7,0-1.2,0.2-1.6,0.7c-0.4,0.5-0.6,1.2-0.6,2.2c0,1,0.2,1.8,0.6,2.2
			c0.4,0.5,0.9,0.7,1.5,0.7c0.5,0,0.9-0.2,1.3-0.5C233.6,342.7,233.8,342.2,233.9,341.6z M235.8,340.6c0-1.4,0.4-2.4,1.2-3.1
			c0.7-0.6,1.5-0.8,2.4-0.8c1.1,0,1.9,0.3,2.6,1c0.7,0.7,1,1.6,1,2.8c0,1-0.1,1.8-0.4,2.3c-0.3,0.6-0.7,1-1.3,1.3
			c-0.6,0.3-1.2,0.5-1.8,0.5c-1.1,0-1.9-0.3-2.6-1C236.1,342.8,235.8,341.8,235.8,340.6z M237.1,340.6c0,1,0.2,1.7,0.6,2.2
			c0.4,0.5,1,0.7,1.6,0.7c0.6,0,1.2-0.2,1.6-0.7c0.4-0.5,0.6-1.2,0.6-2.2c0-0.9-0.2-1.6-0.6-2.1c-0.4-0.5-1-0.7-1.6-0.7
			c-0.6,0-1.2,0.2-1.6,0.7C237.4,338.9,237.1,339.6,237.1,340.6z M249.4,344.4v-1c-0.5,0.8-1.2,1.1-2.1,1.1c-0.6,0-1.2-0.2-1.7-0.5
			c-0.5-0.3-0.9-0.8-1.2-1.4c-0.3-0.6-0.4-1.3-0.4-2.1c0-0.8,0.1-1.4,0.4-2.1c0.3-0.6,0.6-1.1,1.1-1.4c0.5-0.3,1.1-0.5,1.7-0.5
			c0.5,0,0.9,0.1,1.2,0.3c0.4,0.2,0.6,0.4,0.9,0.7v-3.8h1.3v10.5H249.4z M245.3,340.6c0,1,0.2,1.7,0.6,2.2c0.4,0.5,0.9,0.7,1.5,0.7
			c0.6,0,1-0.2,1.4-0.7c0.4-0.5,0.6-1.2,0.6-2.1c0-1-0.2-1.8-0.6-2.3c-0.4-0.5-0.9-0.7-1.5-0.7c-0.6,0-1,0.2-1.4,0.7
			C245.5,338.8,245.3,339.6,245.3,340.6z M257.8,341.9l1.3,0.2c-0.2,0.8-0.6,1.4-1.2,1.8c-0.6,0.4-1.3,0.6-2.2,0.6
			c-1.1,0-2-0.3-2.7-1c-0.6-0.7-1-1.7-1-2.9c0-1.3,0.3-2.3,1-3c0.7-0.7,1.5-1.1,2.6-1.1c1,0,1.8,0.3,2.5,1c0.6,0.7,1,1.7,1,2.9
			c0,0.1,0,0.2,0,0.3h-5.7c0,0.8,0.3,1.5,0.7,1.9c0.4,0.4,1,0.7,1.6,0.7c0.5,0,0.9-0.1,1.2-0.4C257.3,342.9,257.6,342.5,257.8,341.9
			z M253.6,339.8h4.2c-0.1-0.6-0.2-1.1-0.5-1.4c-0.4-0.5-1-0.8-1.6-0.8c-0.6,0-1.1,0.2-1.5,0.6C253.8,338.6,253.6,339.2,253.6,339.8
			z M260.7,344.4v-7.6h1.2v1.1c0.3-0.5,0.6-0.9,0.8-1c0.3-0.2,0.5-0.3,0.8-0.3c0.4,0,0.9,0.1,1.3,0.4l-0.4,1.2
			c-0.3-0.2-0.6-0.3-1-0.3c-0.3,0-0.5,0.1-0.8,0.3c-0.2,0.2-0.4,0.4-0.5,0.7c-0.1,0.5-0.2,1-0.2,1.5v4H260.7z"/>
		<path class="st3" d="M158.4,392.3h123v42.4h-123V392.3z"/>
		<path class="st2" d="M158.4,392.3h123v42.4h-123V392.3z"/>
		<path d="M204.1,409.6l-2.8-10.5h1.4l1.6,6.9c0.2,0.7,0.3,1.4,0.4,2.1c0.3-1.1,0.4-1.8,0.5-1.9l2-7.1h1.7l1.5,5.3
			c0.4,1.3,0.7,2.6,0.8,3.7c0.1-0.7,0.3-1.4,0.5-2.3l1.6-6.7h1.4l-2.9,10.5h-1.3l-2.2-8c-0.2-0.7-0.3-1.1-0.3-1.2
			c-0.1,0.5-0.2,0.9-0.3,1.2l-2.2,8H204.1z M215.9,400.6v-1.5h1.3v1.5H215.9z M215.9,409.6V402h1.3v7.6H215.9z M224.1,409.6v-1
			c-0.5,0.8-1.2,1.1-2.1,1.1c-0.6,0-1.2-0.2-1.7-0.5c-0.5-0.3-0.9-0.8-1.2-1.4c-0.3-0.6-0.4-1.3-0.4-2.1c0-0.8,0.1-1.4,0.4-2.1
			c0.3-0.6,0.6-1.1,1.1-1.4c0.5-0.3,1.1-0.5,1.7-0.5c0.5,0,0.9,0.1,1.2,0.3c0.4,0.2,0.6,0.4,0.9,0.7v-3.8h1.3v10.5H224.1z
			 M220,405.8c0,1,0.2,1.7,0.6,2.2c0.4,0.5,0.9,0.7,1.5,0.7c0.6,0,1-0.2,1.4-0.7c0.4-0.5,0.6-1.2,0.6-2.1c0-1-0.2-1.8-0.6-2.3
			c-0.4-0.5-0.9-0.7-1.5-0.7c-0.6,0-1,0.2-1.4,0.7C220.2,404.1,220,404.8,220,405.8z M230.2,408.5l0.2,1.1c-0.4,0.1-0.7,0.1-1,0.1
			c-0.5,0-0.8-0.1-1.1-0.2c-0.3-0.1-0.4-0.3-0.5-0.6c-0.1-0.2-0.2-0.7-0.2-1.5V403h-1v-1h1v-1.9l1.3-0.8v2.7h1.3v1h-1.3v4.4
			c0,0.4,0,0.6,0.1,0.7c0.1,0.1,0.1,0.2,0.2,0.3c0.1,0.1,0.3,0.1,0.5,0.1C229.7,408.5,229.9,408.5,230.2,408.5z M231.4,409.6v-10.5
			h1.3v3.8c0.6-0.7,1.4-1,2.3-1c0.6,0,1.1,0.1,1.5,0.3c0.4,0.2,0.7,0.5,0.9,0.9c0.2,0.4,0.3,1,0.3,1.7v4.8h-1.3v-4.8
			c0-0.6-0.1-1.1-0.4-1.4c-0.3-0.3-0.7-0.4-1.2-0.4c-0.4,0-0.7,0.1-1.1,0.3c-0.3,0.2-0.6,0.5-0.7,0.8c-0.1,0.3-0.2,0.8-0.2,1.4v4.2
			H231.4z"/>
		<path d="M194.3,423.9l1.4,0.3c-0.3,1.1-0.8,2-1.6,2.6c-0.8,0.6-1.7,0.9-2.8,0.9c-1.1,0-2-0.2-2.8-0.7c-0.7-0.5-1.3-1.1-1.6-2
			c-0.4-0.9-0.5-1.8-0.5-2.8c0-1.1,0.2-2,0.6-2.9s1-1.4,1.8-1.8c0.8-0.4,1.6-0.6,2.5-0.6c1,0,1.9,0.3,2.6,0.8
			c0.7,0.5,1.2,1.3,1.5,2.3l-1.4,0.3c-0.2-0.8-0.6-1.3-1.1-1.7c-0.5-0.4-1-0.5-1.7-0.5c-0.8,0-1.5,0.2-2,0.6
			c-0.5,0.4-0.9,0.9-1.1,1.6c-0.2,0.6-0.3,1.3-0.3,2c0,0.9,0.1,1.7,0.4,2.3c0.3,0.7,0.7,1.2,1.2,1.5c0.6,0.3,1.1,0.5,1.8,0.5
			c0.8,0,1.4-0.2,2-0.7C193.7,425.5,194.1,424.8,194.3,423.9z M196.7,423.8c0-1.4,0.4-2.4,1.2-3.1c0.7-0.6,1.5-0.8,2.4-0.8
			c1.1,0,1.9,0.3,2.6,1c0.7,0.7,1,1.6,1,2.8c0,1-0.1,1.8-0.4,2.3c-0.3,0.6-0.7,1-1.3,1.3s-1.2,0.5-1.8,0.5c-1.1,0-1.9-0.3-2.6-1
			C197,426.1,196.7,425.1,196.7,423.8z M198,423.8c0,1,0.2,1.7,0.6,2.2c0.4,0.5,1,0.7,1.6,0.7c0.6,0,1.2-0.2,1.6-0.7
			c0.4-0.5,0.6-1.2,0.6-2.2c0-0.9-0.2-1.6-0.6-2.1c-0.4-0.5-1-0.7-1.6-0.7c-0.6,0-1.2,0.2-1.6,0.7C198.3,422.1,198,422.8,198,423.8z
			 M205.4,427.6V420h1.2v1.1c0.6-0.8,1.4-1.3,2.4-1.3c0.5,0,0.9,0.1,1.3,0.3c0.4,0.2,0.7,0.4,0.9,0.6c0.2,0.3,0.3,0.6,0.4,1
			c0,0.2,0.1,0.7,0.1,1.3v4.7h-1.3V423c0-0.5-0.1-0.9-0.2-1.2c-0.1-0.3-0.3-0.5-0.5-0.6c-0.2-0.2-0.5-0.2-0.9-0.2
			c-0.5,0-1,0.2-1.4,0.5c-0.4,0.3-0.6,1-0.6,2v4.2H205.4z M216.3,426.5l0.2,1.1c-0.4,0.1-0.7,0.1-1,0.1c-0.5,0-0.8-0.1-1.1-0.2
			c-0.3-0.1-0.4-0.3-0.5-0.6c-0.1-0.2-0.2-0.7-0.2-1.5V421h-1v-1h1v-1.9l1.3-0.8v2.7h1.3v1H215v4.4c0,0.4,0,0.6,0.1,0.7
			c0.1,0.1,0.1,0.2,0.2,0.3c0.1,0.1,0.3,0.1,0.5,0.1C215.9,426.5,216.1,426.5,216.3,426.5z M217.6,427.6V420h1.2v1.1
			c0.3-0.5,0.6-0.9,0.8-1c0.2-0.2,0.5-0.3,0.8-0.3c0.4,0,0.9,0.1,1.3,0.4l-0.4,1.2c-0.3-0.2-0.6-0.3-1-0.3c-0.3,0-0.5,0.1-0.8,0.3
			c-0.2,0.2-0.4,0.4-0.5,0.7c-0.1,0.5-0.2,1-0.2,1.5v4H217.6z M227.4,426.7c-0.5,0.4-0.9,0.7-1.4,0.9c-0.4,0.2-0.9,0.3-1.4,0.3
			c-0.8,0-1.5-0.2-1.9-0.6s-0.7-0.9-0.7-1.6c0-0.4,0.1-0.7,0.3-1c0.2-0.3,0.4-0.6,0.7-0.8c0.3-0.2,0.6-0.3,0.9-0.4
			c0.3-0.1,0.6-0.1,1.1-0.2c1-0.1,1.8-0.3,2.3-0.5c0-0.2,0-0.3,0-0.3c0-0.5-0.1-0.9-0.4-1.1c-0.3-0.3-0.8-0.4-1.5-0.4
			c-0.6,0-1.1,0.1-1.4,0.3c-0.3,0.2-0.5,0.6-0.6,1.1l-1.3-0.2c0.1-0.5,0.3-1,0.6-1.3c0.3-0.3,0.6-0.6,1.1-0.8
			c0.5-0.2,1.1-0.3,1.7-0.3c0.7,0,1.2,0.1,1.6,0.2c0.4,0.1,0.7,0.3,0.9,0.6c0.2,0.2,0.3,0.5,0.4,0.9c0,0.2,0.1,0.6,0.1,1.2v1.7
			c0,1.2,0,2,0.1,2.3c0.1,0.3,0.2,0.6,0.3,0.9h-1.3C227.5,427.3,227.5,427,227.4,426.7z M227.3,423.8c-0.5,0.2-1.2,0.3-2.1,0.5
			c-0.5,0.1-0.9,0.2-1.1,0.3c-0.2,0.1-0.4,0.2-0.5,0.4c-0.1,0.2-0.2,0.4-0.2,0.6c0,0.3,0.1,0.6,0.4,0.9c0.3,0.2,0.6,0.3,1.1,0.3
			c0.5,0,0.9-0.1,1.3-0.3c0.4-0.2,0.7-0.5,0.9-0.9c0.1-0.3,0.2-0.7,0.2-1.3V423.8z M235.6,424.8l1.3,0.2c-0.1,0.9-0.5,1.6-1.1,2.1
			c-0.6,0.5-1.3,0.7-2.1,0.7c-1,0-1.9-0.3-2.5-1c-0.6-0.7-0.9-1.7-0.9-2.9c0-0.8,0.1-1.5,0.4-2.2c0.3-0.6,0.7-1.1,1.2-1.4
			c0.6-0.3,1.2-0.5,1.8-0.5c0.8,0,1.5,0.2,2,0.6c0.5,0.4,0.9,1,1,1.8l-1.3,0.2c-0.1-0.5-0.3-0.9-0.6-1.2c-0.3-0.3-0.7-0.4-1.1-0.4
			c-0.7,0-1.2,0.2-1.6,0.7s-0.6,1.2-0.6,2.2c0,1,0.2,1.8,0.6,2.2c0.4,0.5,0.9,0.7,1.5,0.7c0.5,0,0.9-0.2,1.3-0.5
			C235.3,426,235.5,425.5,235.6,424.8z M240.8,426.5l0.2,1.1c-0.4,0.1-0.7,0.1-1,0.1c-0.5,0-0.8-0.1-1.1-0.2
			c-0.3-0.1-0.4-0.3-0.5-0.6c-0.1-0.2-0.2-0.7-0.2-1.5V421h-1v-1h1v-1.9l1.3-0.8v2.7h1.3v1h-1.3v4.4c0,0.4,0,0.6,0.1,0.7
			c0.1,0.1,0.1,0.2,0.2,0.3c0.1,0.1,0.3,0.1,0.5,0.1C240.3,426.5,240.5,426.5,240.8,426.5z M241.5,423.8c0-1.4,0.4-2.4,1.2-3.1
			c0.7-0.6,1.5-0.8,2.4-0.8c1.1,0,1.9,0.3,2.6,1c0.7,0.7,1,1.6,1,2.8c0,1-0.1,1.8-0.4,2.3c-0.3,0.6-0.7,1-1.3,1.3s-1.2,0.5-1.8,0.5
			c-1.1,0-1.9-0.3-2.6-1C241.9,426.1,241.5,425.1,241.5,423.8z M242.9,423.8c0,1,0.2,1.7,0.6,2.2c0.4,0.5,1,0.7,1.6,0.7
			s1.2-0.2,1.6-0.7c0.4-0.5,0.6-1.2,0.6-2.2c0-0.9-0.2-1.6-0.6-2.1c-0.4-0.5-1-0.7-1.6-0.7c-0.6,0-1.2,0.2-1.6,0.7
			C243.1,422.1,242.9,422.8,242.9,423.8z M250.1,427.6V420h1.2v1.1c0.3-0.5,0.6-0.9,0.8-1c0.3-0.2,0.5-0.3,0.8-0.3
			c0.4,0,0.9,0.1,1.3,0.4l-0.4,1.2c-0.3-0.2-0.6-0.3-1-0.3c-0.3,0-0.5,0.1-0.8,0.3c-0.2,0.2-0.4,0.4-0.5,0.7c-0.1,0.5-0.2,1-0.2,1.5
			v4H250.1z"/>
		<path class="st4" d="M0,24.4h136.6v35.7H0L0,24.4z"/>
		<path d="M17.6,43.8l1.4,0.3c-0.3,1.1-0.8,2-1.6,2.6c-0.7,0.6-1.7,0.9-2.8,0.9c-1.1,0-2-0.2-2.8-0.7c-0.7-0.5-1.2-1.1-1.6-2
			c-0.4-0.9-0.5-1.8-0.5-2.8c0-1.1,0.2-2,0.6-2.9c0.4-0.8,1-1.4,1.8-1.8c0.8-0.4,1.6-0.6,2.5-0.6c1,0,1.9,0.3,2.6,0.8
			c0.7,0.5,1.2,1.3,1.5,2.3l-1.4,0.3c-0.2-0.8-0.6-1.3-1.1-1.7c-0.5-0.4-1-0.5-1.7-0.5c-0.8,0-1.5,0.2-2,0.6
			c-0.5,0.4-0.9,0.9-1.1,1.6c-0.2,0.6-0.3,1.3-0.3,2c0,0.9,0.1,1.7,0.4,2.3c0.3,0.7,0.7,1.2,1.2,1.5c0.6,0.3,1.1,0.5,1.8,0.5
			c0.8,0,1.4-0.2,2-0.7C17.1,45.4,17.4,44.7,17.6,43.8z M20.7,47.5V37h4.6c0.9,0,1.7,0.1,2.1,0.3c0.5,0.2,0.9,0.5,1.2,1
			c0.3,0.5,0.4,1,0.4,1.6c0,0.7-0.2,1.4-0.7,1.9c-0.5,0.5-1.2,0.8-2.2,1c0.4,0.2,0.7,0.3,0.8,0.5c0.4,0.4,0.8,0.8,1.2,1.4l1.8,2.9
			h-1.7l-1.4-2.2c-0.4-0.6-0.7-1.1-1-1.4c-0.3-0.3-0.5-0.6-0.7-0.7c-0.2-0.1-0.4-0.2-0.6-0.3c-0.2,0-0.4,0-0.8,0h-1.6v4.7H20.7z
			 M22.1,41.6h3c0.6,0,1.1-0.1,1.5-0.2c0.4-0.1,0.6-0.3,0.8-0.6c0.2-0.3,0.3-0.6,0.3-0.9c0-0.5-0.2-0.9-0.5-1.2
			c-0.4-0.3-0.9-0.5-1.7-0.5h-3.3V41.6z M31.3,47.5V37h7.6v1.2h-6.2v3.2h5.8v1.2h-5.8v3.6h6.4v1.2H31.3z M41.1,47.5V37h7.6v1.2h-6.2
			v3.2h5.8v1.2h-5.8v3.6h6.4v1.2H41.1z M58.3,43.8l1.4,0.3c-0.3,1.1-0.8,2-1.6,2.6c-0.8,0.6-1.7,0.9-2.8,0.9c-1.1,0-2-0.2-2.8-0.7
			c-0.7-0.5-1.3-1.1-1.6-2c-0.4-0.9-0.5-1.8-0.5-2.8c0-1.1,0.2-2,0.6-2.9c0.4-0.8,1-1.4,1.8-1.8c0.8-0.4,1.6-0.6,2.5-0.6
			c1,0,1.9,0.3,2.6,0.8c0.7,0.5,1.2,1.3,1.5,2.3l-1.4,0.3c-0.2-0.8-0.6-1.3-1.1-1.7c-0.5-0.4-1-0.5-1.7-0.5c-0.8,0-1.5,0.2-2,0.6
			c-0.5,0.4-0.9,0.9-1.1,1.6c-0.2,0.6-0.3,1.3-0.3,2c0,0.9,0.1,1.7,0.4,2.3c0.3,0.7,0.7,1.2,1.2,1.5c0.6,0.3,1.1,0.5,1.8,0.5
			c0.8,0,1.4-0.2,2-0.7C57.8,45.4,58.1,44.7,58.3,43.8z M61.4,47.5V37h3.9c0.8,0,1.4,0.1,1.9,0.3c0.5,0.2,0.9,0.5,1.1,1
			c0.3,0.4,0.4,0.9,0.4,1.4c0,0.4-0.1,0.9-0.4,1.3c-0.2,0.4-0.6,0.7-1.1,1c0.6,0.2,1.1,0.5,1.5,1c0.3,0.4,0.5,1,0.5,1.6
			c0,0.5-0.1,1-0.3,1.4c-0.2,0.4-0.5,0.7-0.8,1c-0.3,0.2-0.7,0.4-1.1,0.5c-0.5,0.1-1,0.2-1.7,0.2H61.4z M62.8,41.4H65
			c0.6,0,1.1,0,1.3-0.1c0.4-0.1,0.6-0.3,0.8-0.5c0.2-0.3,0.3-0.6,0.3-0.9c0-0.4-0.1-0.7-0.3-0.9c-0.2-0.3-0.4-0.4-0.7-0.5
			c-0.3-0.1-0.8-0.2-1.6-0.2h-2.1V41.4z M62.8,46.3h2.6c0.4,0,0.8,0,0.9,0c0.3-0.1,0.6-0.2,0.8-0.3c0.2-0.1,0.4-0.3,0.5-0.6
			c0.1-0.3,0.2-0.6,0.2-0.9c0-0.4-0.1-0.7-0.3-1c-0.2-0.3-0.5-0.5-0.8-0.6c-0.4-0.1-0.9-0.2-1.5-0.2h-2.4V46.3z M76,47.5v-1.1
			c-0.6,0.9-1.4,1.3-2.4,1.3c-0.4,0-0.9-0.1-1.3-0.3c-0.4-0.2-0.7-0.4-0.9-0.7c-0.2-0.3-0.3-0.6-0.4-1C71,45.6,71,45.2,71,44.6v-4.7
			h1.3v4.2c0,0.7,0,1.1,0.1,1.4c0.1,0.3,0.3,0.6,0.5,0.8c0.3,0.2,0.6,0.3,1,0.3c0.4,0,0.7-0.1,1.1-0.3c0.3-0.2,0.6-0.5,0.7-0.8
			c0.1-0.3,0.2-0.8,0.2-1.5v-4.1h1.3v7.6H76z M78.7,45.2l1.3-0.2c0.1,0.5,0.3,0.9,0.6,1.2c0.3,0.3,0.8,0.4,1.4,0.4
			c0.6,0,1-0.1,1.3-0.4c0.3-0.2,0.4-0.5,0.4-0.8c0-0.3-0.1-0.5-0.4-0.7c-0.2-0.1-0.6-0.3-1.3-0.4c-0.9-0.2-1.6-0.4-2-0.6
			c-0.4-0.2-0.6-0.4-0.8-0.7s-0.3-0.7-0.3-1c0-0.3,0.1-0.7,0.2-0.9c0.2-0.3,0.4-0.5,0.6-0.7c0.2-0.1,0.5-0.3,0.8-0.4
			c0.4-0.1,0.7-0.2,1.1-0.2c0.6,0,1.1,0.1,1.6,0.3c0.4,0.2,0.8,0.4,1,0.7c0.2,0.3,0.4,0.7,0.4,1.2L83.4,42c-0.1-0.4-0.2-0.7-0.5-0.9
			c-0.3-0.2-0.7-0.3-1.2-0.3c-0.6,0-1,0.1-1.3,0.3c-0.3,0.2-0.4,0.4-0.4,0.7c0,0.2,0.1,0.3,0.2,0.5c0.1,0.1,0.3,0.3,0.5,0.3
			c0.1,0.1,0.5,0.2,1.1,0.3c0.9,0.2,1.5,0.4,1.9,0.6c0.4,0.2,0.7,0.4,0.9,0.7c0.2,0.3,0.3,0.7,0.3,1.1c0,0.4-0.1,0.8-0.4,1.2
			c-0.3,0.4-0.6,0.7-1.1,0.9c-0.5,0.2-1,0.3-1.6,0.3c-1,0-1.7-0.2-2.3-0.6C79.2,46.6,78.8,46,78.7,45.2z M90.6,38.5V37h1.3v1.5H90.6
			z M90.6,47.5v-7.6h1.3v7.6H90.6z M93.9,47.5v-7.6H95V41c0.6-0.8,1.4-1.3,2.4-1.3c0.5,0,0.9,0.1,1.3,0.3c0.4,0.2,0.7,0.4,0.9,0.6
			c0.2,0.3,0.3,0.6,0.4,1c0,0.2,0.1,0.7,0.1,1.3v4.7h-1.3v-4.6c0-0.5-0.1-0.9-0.2-1.2c-0.1-0.3-0.3-0.5-0.5-0.6
			c-0.3-0.2-0.5-0.2-0.9-0.2c-0.5,0-1,0.2-1.4,0.5c-0.4,0.3-0.6,1-0.6,2v4.2H93.9z"/>
		<path class="st4" d="M0,395.7h136.6v35.7H0L0,395.7z"/>
		<path d="M17.6,415.1l1.4,0.3c-0.3,1.1-0.8,2-1.6,2.6c-0.7,0.6-1.7,0.9-2.8,0.9c-1.1,0-2-0.2-2.8-0.7c-0.7-0.5-1.2-1.1-1.6-2
			c-0.4-0.9-0.5-1.8-0.5-2.8c0-1.1,0.2-2,0.6-2.9c0.4-0.8,1-1.4,1.8-1.8c0.8-0.4,1.6-0.6,2.5-0.6c1,0,1.9,0.3,2.6,0.8
			c0.7,0.5,1.2,1.3,1.5,2.3l-1.4,0.3c-0.2-0.8-0.6-1.3-1.1-1.7c-0.5-0.4-1-0.5-1.7-0.5c-0.8,0-1.5,0.2-2,0.6
			c-0.5,0.4-0.9,0.9-1.1,1.6c-0.2,0.6-0.3,1.3-0.3,2c0,0.9,0.1,1.7,0.4,2.3c0.3,0.7,0.7,1.2,1.2,1.5c0.6,0.3,1.1,0.5,1.8,0.5
			c0.8,0,1.4-0.2,2-0.7C17.1,416.6,17.4,415.9,17.6,415.1z M20.7,418.7v-10.5h4.6c0.9,0,1.7,0.1,2.1,0.3c0.5,0.2,0.9,0.5,1.2,1
			c0.3,0.5,0.4,1,0.4,1.6c0,0.7-0.2,1.4-0.7,1.9c-0.5,0.5-1.2,0.8-2.2,1c0.4,0.2,0.7,0.3,0.8,0.5c0.4,0.4,0.8,0.8,1.2,1.4l1.8,2.9
			h-1.7l-1.4-2.2c-0.4-0.6-0.7-1.1-1-1.4c-0.3-0.3-0.5-0.6-0.7-0.7c-0.2-0.1-0.4-0.2-0.6-0.3c-0.2,0-0.4,0-0.8,0h-1.6v4.7H20.7z
			 M22.1,412.9h3c0.6,0,1.1-0.1,1.5-0.2c0.4-0.1,0.6-0.3,0.8-0.6c0.2-0.3,0.3-0.6,0.3-0.9c0-0.5-0.2-0.9-0.5-1.2
			c-0.4-0.3-0.9-0.5-1.7-0.5h-3.3V412.9z M31.3,418.7v-10.5h7.6v1.2h-6.2v3.2h5.8v1.2h-5.8v3.6h6.4v1.2H31.3z M41.1,418.7v-10.5h7.6
			v1.2h-6.2v3.2h5.8v1.2h-5.8v3.6h6.4v1.2H41.1z M58.3,415.1l1.4,0.3c-0.3,1.1-0.8,2-1.6,2.6c-0.8,0.6-1.7,0.9-2.8,0.9
			c-1.1,0-2-0.2-2.8-0.7c-0.7-0.5-1.3-1.1-1.6-2c-0.4-0.9-0.5-1.8-0.5-2.8c0-1.1,0.2-2,0.6-2.9c0.4-0.8,1-1.4,1.8-1.8
			c0.8-0.4,1.6-0.6,2.5-0.6c1,0,1.9,0.3,2.6,0.8c0.7,0.5,1.2,1.3,1.5,2.3l-1.4,0.3c-0.2-0.8-0.6-1.3-1.1-1.7c-0.5-0.4-1-0.5-1.7-0.5
			c-0.8,0-1.5,0.2-2,0.6c-0.5,0.4-0.9,0.9-1.1,1.6c-0.2,0.6-0.3,1.3-0.3,2c0,0.9,0.1,1.7,0.4,2.3c0.3,0.7,0.7,1.2,1.2,1.5
			c0.6,0.3,1.1,0.5,1.8,0.5c0.8,0,1.4-0.2,2-0.7C57.8,416.6,58.1,415.9,58.3,415.1z M61.4,418.7v-10.5h3.9c0.8,0,1.4,0.1,1.9,0.3
			c0.5,0.2,0.9,0.5,1.1,1c0.3,0.4,0.4,0.9,0.4,1.4c0,0.4-0.1,0.9-0.4,1.3c-0.2,0.4-0.6,0.7-1.1,1c0.6,0.2,1.1,0.5,1.5,1
			c0.3,0.4,0.5,1,0.5,1.6c0,0.5-0.1,1-0.3,1.4c-0.2,0.4-0.5,0.7-0.8,1c-0.3,0.2-0.7,0.4-1.1,0.5c-0.5,0.1-1,0.2-1.7,0.2H61.4z
			 M62.8,412.7H65c0.6,0,1.1,0,1.3-0.1c0.4-0.1,0.6-0.3,0.8-0.5c0.2-0.3,0.3-0.6,0.3-0.9c0-0.4-0.1-0.7-0.3-0.9
			c-0.2-0.3-0.4-0.4-0.7-0.5c-0.3-0.1-0.8-0.2-1.6-0.2h-2.1V412.7z M62.8,417.5h2.6c0.4,0,0.8,0,0.9,0c0.3-0.1,0.6-0.2,0.8-0.3
			c0.2-0.1,0.4-0.3,0.5-0.6c0.1-0.3,0.2-0.6,0.2-0.9c0-0.4-0.1-0.7-0.3-1c-0.2-0.3-0.5-0.5-0.8-0.6c-0.4-0.1-0.9-0.2-1.5-0.2h-2.4
			V417.5z M76,418.7v-1.1c-0.6,0.9-1.4,1.3-2.4,1.3c-0.4,0-0.9-0.1-1.3-0.3c-0.4-0.2-0.7-0.4-0.9-0.7c-0.2-0.3-0.3-0.6-0.4-1
			c-0.1-0.3-0.1-0.7-0.1-1.2v-4.7h1.3v4.2c0,0.7,0,1.1,0.1,1.4c0.1,0.3,0.3,0.6,0.5,0.8c0.3,0.2,0.6,0.3,1,0.3
			c0.4,0,0.7-0.1,1.1-0.3c0.3-0.2,0.6-0.5,0.7-0.8c0.1-0.3,0.2-0.8,0.2-1.5v-4.1h1.3v7.6H76z M78.7,416.5l1.3-0.2
			c0.1,0.5,0.3,0.9,0.6,1.2c0.3,0.3,0.8,0.4,1.4,0.4c0.6,0,1-0.1,1.3-0.4c0.3-0.2,0.4-0.5,0.4-0.8c0-0.3-0.1-0.5-0.4-0.7
			c-0.2-0.1-0.6-0.3-1.3-0.4c-0.9-0.2-1.6-0.4-2-0.6c-0.4-0.2-0.6-0.4-0.8-0.7s-0.3-0.7-0.3-1c0-0.3,0.1-0.7,0.2-0.9
			c0.2-0.3,0.4-0.5,0.6-0.7c0.2-0.1,0.5-0.3,0.8-0.4c0.4-0.1,0.7-0.2,1.1-0.2c0.6,0,1.1,0.1,1.6,0.3c0.4,0.2,0.8,0.4,1,0.7
			c0.2,0.3,0.4,0.7,0.4,1.2l-1.3,0.2c-0.1-0.4-0.2-0.7-0.5-0.9c-0.3-0.2-0.7-0.3-1.2-0.3c-0.6,0-1,0.1-1.3,0.3
			c-0.3,0.2-0.4,0.4-0.4,0.7c0,0.2,0.1,0.3,0.2,0.5c0.1,0.1,0.3,0.3,0.5,0.3c0.1,0.1,0.5,0.2,1.1,0.3c0.9,0.2,1.5,0.4,1.9,0.6
			c0.4,0.2,0.7,0.4,0.9,0.7c0.2,0.3,0.3,0.7,0.3,1.1c0,0.4-0.1,0.8-0.4,1.2c-0.3,0.4-0.6,0.7-1.1,0.9c-0.5,0.2-1,0.3-1.6,0.3
			c-1,0-1.7-0.2-2.3-0.6C79.2,417.9,78.8,417.3,78.7,416.5z M90.1,414.9c0-1.4,0.4-2.4,1.2-3.1c0.7-0.6,1.5-0.8,2.4-0.8
			c1.1,0,1.9,0.3,2.6,1c0.7,0.7,1,1.6,1,2.8c0,1-0.1,1.8-0.4,2.3c-0.3,0.6-0.7,1-1.3,1.3s-1.2,0.5-1.8,0.5c-1.1,0-1.9-0.3-2.6-1
			C90.4,417.2,90.1,416.2,90.1,414.9z M91.4,414.9c0,1,0.2,1.7,0.6,2.2c0.4,0.5,1,0.7,1.6,0.7c0.6,0,1.2-0.2,1.6-0.7
			c0.4-0.5,0.6-1.2,0.6-2.2c0-0.9-0.2-1.6-0.6-2.1c-0.4-0.5-1-0.7-1.6-0.7c-0.6,0-1.2,0.2-1.6,0.7C91.7,413.2,91.4,414,91.4,414.9z
			 M103.7,418.7v-1.1c-0.6,0.9-1.4,1.3-2.4,1.3c-0.4,0-0.9-0.1-1.3-0.3c-0.4-0.2-0.7-0.4-0.9-0.7c-0.2-0.3-0.3-0.6-0.4-1
			c-0.1-0.3-0.1-0.7-0.1-1.2v-4.7h1.3v4.2c0,0.7,0,1.1,0.1,1.4c0.1,0.3,0.3,0.6,0.5,0.8c0.3,0.2,0.6,0.3,1,0.3
			c0.4,0,0.7-0.1,1.1-0.3c0.3-0.2,0.6-0.5,0.7-0.8c0.1-0.3,0.2-0.8,0.2-1.5v-4.1h1.3v7.6H103.7z M109.7,417.6l0.2,1.1
			c-0.4,0.1-0.7,0.1-1,0.1c-0.5,0-0.8-0.1-1.1-0.2c-0.3-0.1-0.4-0.3-0.5-0.6c-0.1-0.2-0.2-0.7-0.2-1.5v-4.4h-1v-1h1v-1.9l1.3-0.8
			v2.7h1.3v1h-1.3v4.4c0,0.4,0,0.6,0.1,0.7c0.1,0.1,0.1,0.2,0.2,0.3c0.1,0.1,0.3,0.1,0.5,0.1C109.3,417.6,109.5,417.6,109.7,417.6z"
			/>
		<path class="st4" d="M202.2,438.4h136.6v35.7H202.2V438.4z"/>
		<path d="M214.1,461.5l-2.8-10.5h1.4l1.6,6.9c0.2,0.7,0.3,1.4,0.4,2.1c0.3-1.1,0.4-1.8,0.5-1.9l2-7.1h1.7l1.5,5.3
			c0.4,1.3,0.7,2.6,0.8,3.7c0.1-0.7,0.3-1.4,0.5-2.3l1.6-6.7h1.4l-2.9,10.5h-1.3l-2.2-8c-0.2-0.7-0.3-1.1-0.3-1.2
			c-0.1,0.5-0.2,0.9-0.3,1.2l-2.2,8H214.1z M226,461.5v-7.6h1.2v1.1c0.3-0.5,0.6-0.9,0.8-1c0.3-0.2,0.5-0.3,0.8-0.3
			c0.4,0,0.9,0.1,1.3,0.4l-0.4,1.2c-0.3-0.2-0.6-0.3-1-0.3c-0.3,0-0.5,0.1-0.8,0.3c-0.2,0.2-0.4,0.4-0.5,0.7c-0.1,0.5-0.2,1-0.2,1.5
			v4H226z M230.9,452.4V451h1.3v1.5H230.9z M230.9,461.5v-7.6h1.3v7.6H230.9z M236.9,460.3l0.2,1.1c-0.4,0.1-0.7,0.1-1,0.1
			c-0.5,0-0.8-0.1-1.1-0.2c-0.3-0.1-0.4-0.3-0.5-0.6c-0.1-0.2-0.2-0.7-0.2-1.5v-4.4h-1v-1h1V452l1.3-0.8v2.7h1.3v1h-1.3v4.4
			c0,0.4,0,0.6,0.1,0.7c0.1,0.1,0.1,0.2,0.2,0.3c0.1,0.1,0.3,0.1,0.5,0.1C236.5,460.3,236.7,460.3,236.9,460.3z M243.4,459l1.3,0.2
			c-0.2,0.8-0.6,1.4-1.2,1.8c-0.6,0.4-1.3,0.6-2.2,0.6c-1.1,0-2-0.3-2.7-1c-0.6-0.7-1-1.7-1-2.9c0-1.3,0.3-2.3,1-3
			c0.7-0.7,1.5-1.1,2.6-1.1c1,0,1.8,0.3,2.5,1c0.6,0.7,1,1.7,1,2.9c0,0.1,0,0.2,0,0.3h-5.7c0,0.8,0.3,1.5,0.7,1.9
			c0.4,0.4,1,0.7,1.6,0.7c0.5,0,0.9-0.1,1.2-0.4C242.9,460,243.2,459.6,243.4,459z M239.2,456.9h4.3c-0.1-0.6-0.2-1.1-0.5-1.4
			c-0.4-0.5-1-0.8-1.6-0.8c-0.6,0-1.1,0.2-1.5,0.6S239.2,456.3,239.2,456.9z M250.6,461.5V451h4c0.7,0,1.2,0,1.6,0.1
			c0.5,0.1,0.9,0.2,1.3,0.5c0.4,0.2,0.6,0.6,0.8,1c0.2,0.4,0.3,0.9,0.3,1.4c0,0.9-0.3,1.6-0.9,2.3c-0.6,0.6-1.6,0.9-3.1,0.9H252v4.3
			H250.6z M252,456h2.7c0.9,0,1.5-0.2,1.9-0.5s0.6-0.8,0.6-1.4c0-0.4-0.1-0.8-0.3-1.1s-0.5-0.5-0.9-0.6c-0.2-0.1-0.7-0.1-1.3-0.1
			H252V456z M260.2,452.4V451h1.3v1.5H260.2z M260.2,461.5v-7.6h1.3v7.6H260.2z M263.4,464.4v-10.5h1.2v1c0.3-0.4,0.6-0.7,0.9-0.9
			c0.3-0.2,0.8-0.3,1.3-0.3c0.6,0,1.2,0.2,1.7,0.5s0.9,0.8,1.1,1.4c0.3,0.6,0.4,1.3,0.4,2c0,0.8-0.1,1.5-0.4,2.1
			c-0.3,0.6-0.7,1.1-1.2,1.4c-0.5,0.3-1.1,0.5-1.7,0.5c-0.4,0-0.8-0.1-1.2-0.3c-0.3-0.2-0.6-0.4-0.8-0.7v3.7H263.4z M264.6,457.7
			c0,1,0.2,1.7,0.6,2.2c0.4,0.5,0.9,0.7,1.5,0.7c0.6,0,1.1-0.2,1.5-0.7c0.4-0.5,0.6-1.2,0.6-2.3c0-1-0.2-1.7-0.6-2.2
			c-0.4-0.5-0.9-0.7-1.4-0.7c-0.5,0-1,0.3-1.5,0.8C264.8,456,264.6,456.7,264.6,457.7z M276.8,459l1.3,0.2c-0.2,0.8-0.6,1.4-1.2,1.8
			c-0.6,0.4-1.3,0.6-2.2,0.6c-1.1,0-2-0.3-2.7-1c-0.6-0.7-1-1.7-1-2.9c0-1.3,0.3-2.3,1-3c0.7-0.7,1.5-1.1,2.6-1.1c1,0,1.8,0.3,2.5,1
			s1,1.7,1,2.9c0,0.1,0,0.2,0,0.3h-5.7c0,0.8,0.3,1.5,0.7,1.9c0.4,0.4,1,0.7,1.6,0.7c0.5,0,0.9-0.1,1.2-0.4
			C276.3,460,276.6,459.6,276.8,459z M272.6,456.9h4.3c-0.1-0.6-0.2-1.1-0.5-1.4c-0.4-0.5-1-0.8-1.6-0.8c-0.6,0-1.1,0.2-1.5,0.6
			S272.6,456.3,272.6,456.9z M279.7,461.5V451h1.3v10.5H279.7z M283,452.4V451h1.3v1.5H283z M283,461.5v-7.6h1.3v7.6H283z
			 M286.3,461.5v-7.6h1.2v1.1c0.6-0.8,1.4-1.3,2.4-1.3c0.5,0,0.9,0.1,1.3,0.3c0.4,0.2,0.7,0.4,0.9,0.6s0.3,0.6,0.4,1
			c0,0.2,0.1,0.7,0.1,1.3v4.7h-1.3v-4.6c0-0.5-0.1-0.9-0.2-1.2c-0.1-0.3-0.3-0.5-0.5-0.6c-0.3-0.2-0.5-0.2-0.9-0.2
			c-0.5,0-1,0.2-1.4,0.5c-0.4,0.3-0.6,1-0.6,2v4.2H286.3z M299.6,459l1.3,0.2c-0.2,0.8-0.6,1.4-1.2,1.8c-0.6,0.4-1.3,0.6-2.2,0.6
			c-1.1,0-2-0.3-2.7-1c-0.6-0.7-1-1.7-1-2.9c0-1.3,0.3-2.3,1-3c0.7-0.7,1.5-1.1,2.6-1.1c1,0,1.8,0.3,2.5,1c0.6,0.7,1,1.7,1,2.9
			c0,0.1,0,0.2,0,0.3h-5.7c0,0.8,0.3,1.5,0.7,1.9c0.4,0.4,1,0.7,1.6,0.7c0.5,0,0.9-0.1,1.2-0.4C299.1,460,299.4,459.6,299.6,459z
			 M295.4,456.9h4.3c-0.1-0.6-0.2-1.1-0.5-1.4c-0.4-0.5-1-0.8-1.6-0.8c-0.6,0-1.1,0.2-1.5,0.6S295.4,456.3,295.4,456.9z"/>
		<path class="st5" d="M117.5,37.3h30v-5l10,10l-10,10v-5h-30V37.3z"/>
		<path class="st6" d="M117.5,37.3h30v-5l10,10l-10,10v-5h-30V37.3z"/>
		<path class="st5" d="M224.9,63.5v21.4h5l-10,10l-10-10h5V63.5H224.9z"/>
		<path class="st6" d="M224.9,63.5v21.4h5l-10,10l-10-10h5V63.5H224.9z"/>
		<path class="st5" d="M224.9,137.7v21.4h5l-10,10l-10-10h5v-21.4H224.9z"/>
		<path class="st6" d="M224.9,137.7v21.4h5l-10,10l-10-10h5v-21.4H224.9z"/>
		<path class="st5" d="M224.9,212v21.4h5l-10,10l-10-10h5V212H224.9z"/>
		<path class="st6" d="M224.9,212v21.4h5l-10,10l-10-10h5V212H224.9z"/>
		<path class="st5" d="M224.9,286.2v21.4h5l-10,10l-10-10h5v-21.4H224.9z"/>
		<path class="st6" d="M224.9,286.2v21.4h5l-10,10l-10-10h5v-21.4H224.9z"/>
		<path class="st5" d="M224.9,360.5v21.4h5l-10,10l-10-10h5v-21.4H224.9z"/>
		<path class="st6" d="M224.9,360.5v21.4h5l-10,10l-10-10h5v-21.4H224.9z"/>
		<path class="st5" d="M157.6,418.5h-30v5l-10-10l10-10v5h30V418.5z"/>
		<path class="st6" d="M157.6,418.5h-30v5l-10-10l10-10v5h30V418.5z"/>
		<path class="st1" d="M487.4,0.5h185v470.3h-185V0.5z"/>
		<path class="st2" d="M487.4,0.5h185v470.3h-185V0.5z"/>
		<path class="st3" d="M518.5,21.1h123v42.4h-123V21.1z"/>
		<path class="st2" d="M518.5,21.1h123v42.4h-123V21.1z"/>
		<path d="M530.8,47.4L528,36.9h1.4l1.6,6.9c0.2,0.7,0.3,1.4,0.4,2.1c0.3-1.1,0.4-1.8,0.5-1.9l2-7.1h1.7l1.5,5.3
			c0.4,1.3,0.7,2.6,0.8,3.7c0.1-0.7,0.3-1.4,0.5-2.3l1.6-6.7h1.4l-2.9,10.5h-1.3l-2.2-8c-0.2-0.7-0.3-1.1-0.3-1.2
			c-0.1,0.5-0.2,0.9-0.3,1.2l-2.2,8H530.8z M542.6,38.4v-1.5h1.3v1.5H542.6z M542.6,47.4v-7.6h1.3v7.6H542.6z M550.8,47.4v-1
			c-0.5,0.8-1.2,1.1-2.1,1.1c-0.6,0-1.2-0.2-1.7-0.5c-0.5-0.3-0.9-0.8-1.2-1.4c-0.3-0.6-0.4-1.3-0.4-2.1c0-0.8,0.1-1.4,0.4-2.1
			c0.3-0.6,0.6-1.1,1.1-1.4c0.5-0.3,1.1-0.5,1.7-0.5c0.5,0,0.9,0.1,1.2,0.3c0.4,0.2,0.6,0.4,0.9,0.7v-3.8h1.3v10.5H550.8z
			 M546.7,43.6c0,1,0.2,1.7,0.6,2.2c0.4,0.5,0.9,0.7,1.5,0.7c0.6,0,1-0.2,1.4-0.7s0.6-1.2,0.6-2.1c0-1-0.2-1.8-0.6-2.3
			c-0.4-0.5-0.9-0.7-1.5-0.7c-0.6,0-1,0.2-1.4,0.7S546.7,42.6,546.7,43.6z M556.8,46.2l0.2,1.1c-0.4,0.1-0.7,0.1-1,0.1
			c-0.5,0-0.8-0.1-1.1-0.2s-0.4-0.3-0.5-0.6s-0.2-0.7-0.2-1.5v-4.4h-1v-1h1v-1.9l1.3-0.8v2.7h1.3v1h-1.3v4.4c0,0.4,0,0.6,0.1,0.7
			c0.1,0.1,0.1,0.2,0.2,0.3c0.1,0.1,0.3,0.1,0.5,0.1C556.4,46.3,556.6,46.2,556.8,46.2z M558.1,47.4V36.9h1.3v3.8
			c0.6-0.7,1.4-1,2.3-1c0.6,0,1.1,0.1,1.5,0.3c0.4,0.2,0.7,0.5,0.9,0.9c0.2,0.4,0.3,1,0.3,1.7v4.8H563v-4.8c0-0.6-0.1-1.1-0.4-1.4
			s-0.7-0.4-1.2-0.4c-0.4,0-0.7,0.1-1.1,0.3c-0.3,0.2-0.6,0.5-0.7,0.8c-0.1,0.3-0.2,0.8-0.2,1.4v4.2H558.1z M570.5,47.4V36.9h7.6
			v1.2h-6.2v3.2h5.8v1.2h-5.8v3.6h6.4v1.2H570.5z M579.2,47.4l2.8-4l-2.6-3.6h1.6l1.2,1.8c0.2,0.3,0.4,0.6,0.5,0.8
			c0.2-0.3,0.4-0.6,0.6-0.8l1.3-1.8h1.5l-2.6,3.6l2.8,4h-1.6l-1.6-2.4l-0.4-0.6l-2,3H579.2z M587.4,50.3V39.8h1.2v1
			c0.3-0.4,0.6-0.7,0.9-0.9c0.3-0.2,0.8-0.3,1.3-0.3c0.6,0,1.2,0.2,1.7,0.5s0.9,0.8,1.1,1.4c0.3,0.6,0.4,1.3,0.4,2
			c0,0.8-0.1,1.5-0.4,2.1c-0.3,0.6-0.7,1.1-1.2,1.4c-0.5,0.3-1.1,0.5-1.7,0.5c-0.4,0-0.8-0.1-1.2-0.3c-0.3-0.2-0.6-0.4-0.8-0.7v3.7
			H587.4z M588.6,43.6c0,1,0.2,1.7,0.6,2.2c0.4,0.5,0.9,0.7,1.5,0.7c0.6,0,1.1-0.2,1.5-0.7c0.4-0.5,0.6-1.2,0.6-2.3
			c0-1-0.2-1.7-0.6-2.2c-0.4-0.5-0.9-0.7-1.4-0.7c-0.5,0-1,0.3-1.5,0.8C588.8,41.9,588.6,42.6,588.6,43.6z M600.5,46.4
			c-0.5,0.4-0.9,0.7-1.4,0.9s-0.9,0.3-1.4,0.3c-0.8,0-1.5-0.2-1.9-0.6c-0.4-0.4-0.7-0.9-0.7-1.6c0-0.4,0.1-0.7,0.3-1
			c0.2-0.3,0.4-0.6,0.7-0.8c0.3-0.2,0.6-0.3,0.9-0.4c0.3-0.1,0.6-0.1,1.1-0.2c1-0.1,1.8-0.3,2.3-0.5c0-0.2,0-0.3,0-0.3
			c0-0.5-0.1-0.9-0.4-1.1c-0.3-0.3-0.8-0.4-1.5-0.4c-0.6,0-1.1,0.1-1.4,0.3c-0.3,0.2-0.5,0.6-0.6,1.1l-1.3-0.2
			c0.1-0.5,0.3-1,0.6-1.3c0.3-0.3,0.6-0.6,1.1-0.8s1.1-0.3,1.7-0.3c0.7,0,1.2,0.1,1.6,0.2c0.4,0.1,0.7,0.3,0.9,0.6s0.3,0.5,0.4,0.9
			c0,0.2,0.1,0.6,0.1,1.2v1.7c0,1.2,0,2,0.1,2.3c0.1,0.3,0.2,0.6,0.3,0.9h-1.3C600.7,47.1,600.6,46.8,600.5,46.4z M600.4,43.6
			c-0.5,0.2-1.2,0.3-2.1,0.5c-0.5,0.1-0.9,0.2-1.1,0.3c-0.2,0.1-0.4,0.2-0.5,0.4c-0.1,0.2-0.2,0.4-0.2,0.6c0,0.3,0.1,0.6,0.4,0.9
			c0.3,0.2,0.6,0.3,1.1,0.3c0.5,0,0.9-0.1,1.3-0.3c0.4-0.2,0.7-0.5,0.9-0.9c0.1-0.3,0.2-0.7,0.2-1.3V43.6z M603.7,47.4v-7.6h1.2v1.1
			c0.6-0.8,1.4-1.3,2.4-1.3c0.5,0,0.9,0.1,1.3,0.3c0.4,0.2,0.7,0.4,0.9,0.6s0.3,0.6,0.4,1c0,0.2,0.1,0.7,0.1,1.3v4.7h-1.3v-4.6
			c0-0.5-0.1-0.9-0.2-1.2c-0.1-0.3-0.3-0.5-0.5-0.6c-0.3-0.2-0.5-0.2-0.9-0.2c-0.5,0-1,0.2-1.4,0.5c-0.4,0.3-0.6,1-0.6,2v4.2H603.7z
			 M616.8,47.4v-1c-0.5,0.8-1.2,1.1-2.1,1.1c-0.6,0-1.2-0.2-1.7-0.5c-0.5-0.3-0.9-0.8-1.2-1.4c-0.3-0.6-0.4-1.3-0.4-2.1
			c0-0.8,0.1-1.4,0.4-2.1c0.3-0.6,0.6-1.1,1.1-1.4c0.5-0.3,1.1-0.5,1.7-0.5c0.5,0,0.9,0.1,1.2,0.3c0.4,0.2,0.6,0.4,0.9,0.7v-3.8h1.3
			v10.5H616.8z M612.7,43.6c0,1,0.2,1.7,0.6,2.2c0.4,0.5,0.9,0.7,1.5,0.7c0.6,0,1-0.2,1.4-0.7c0.4-0.5,0.6-1.2,0.6-2.1
			c0-1-0.2-1.8-0.6-2.3c-0.4-0.5-0.9-0.7-1.5-0.7c-0.6,0-1,0.2-1.4,0.7C612.9,41.8,612.7,42.6,612.7,43.6z M625.2,44.9l1.3,0.2
			c-0.2,0.8-0.6,1.4-1.2,1.8c-0.6,0.4-1.3,0.6-2.2,0.6c-1.1,0-2-0.3-2.7-1c-0.6-0.7-1-1.7-1-2.9c0-1.3,0.3-2.3,1-3
			c0.7-0.7,1.5-1.1,2.6-1.1c1,0,1.8,0.3,2.5,1s1,1.7,1,2.9c0,0.1,0,0.2,0,0.3h-5.7c0,0.8,0.3,1.5,0.7,1.9c0.4,0.4,1,0.7,1.6,0.7
			c0.5,0,0.9-0.1,1.2-0.4C624.8,45.9,625,45.5,625.2,44.9z M621,42.8h4.3c-0.1-0.6-0.2-1.1-0.5-1.4c-0.4-0.5-1-0.8-1.6-0.8
			c-0.6,0-1.1,0.2-1.5,0.6S621,42.2,621,42.8z M628.2,47.4v-7.6h1.2v1.1c0.3-0.5,0.6-0.9,0.8-1c0.3-0.2,0.5-0.3,0.8-0.3
			c0.4,0,0.9,0.1,1.3,0.4l-0.4,1.2c-0.3-0.2-0.6-0.3-1-0.3c-0.3,0-0.5,0.1-0.8,0.3c-0.2,0.2-0.4,0.4-0.5,0.7c-0.1,0.5-0.2,1-0.2,1.5
			v4H628.2z"/>
		<path class="st3" d="M518.5,95.4h123v42.4h-123V95.4z"/>
		<path class="st2" d="M518.5,95.4h123v42.4h-123V95.4z"/>
		<path d="M535.9,121.6v-10.5h7.6v1.2h-6.2v3.2h5.8v1.2h-5.8v3.6h6.4v1.2H535.9z M553.1,117.9l1.4,0.3c-0.3,1.1-0.8,2-1.6,2.6
			c-0.8,0.6-1.7,0.9-2.8,0.9c-1.1,0-2-0.2-2.8-0.7c-0.7-0.5-1.3-1.1-1.6-2c-0.4-0.9-0.5-1.8-0.5-2.8c0-1.1,0.2-2,0.6-2.9
			c0.4-0.8,1-1.4,1.8-1.8c0.8-0.4,1.6-0.6,2.5-0.6c1,0,1.9,0.3,2.6,0.8c0.7,0.5,1.2,1.3,1.5,2.3l-1.4,0.3c-0.2-0.8-0.6-1.3-1.1-1.7
			c-0.5-0.4-1-0.5-1.7-0.5c-0.8,0-1.5,0.2-2,0.6c-0.5,0.4-0.9,0.9-1.1,1.6c-0.2,0.6-0.3,1.3-0.3,2c0,0.9,0.1,1.7,0.4,2.3
			c0.3,0.7,0.7,1.2,1.2,1.5c0.6,0.3,1.1,0.5,1.8,0.5c0.8,0,1.4-0.2,2-0.7C552.6,119.5,553,118.8,553.1,117.9z M563.7,117.9l1.4,0.3
			c-0.3,1.1-0.8,2-1.6,2.6c-0.8,0.6-1.7,0.9-2.8,0.9c-1.1,0-2-0.2-2.8-0.7s-1.3-1.1-1.6-2c-0.4-0.9-0.5-1.8-0.5-2.8
			c0-1.1,0.2-2,0.6-2.9s1-1.4,1.8-1.8c0.8-0.4,1.6-0.6,2.5-0.6c1,0,1.9,0.3,2.6,0.8c0.7,0.5,1.2,1.3,1.5,2.3l-1.4,0.3
			c-0.2-0.8-0.6-1.3-1.1-1.7c-0.5-0.4-1-0.5-1.7-0.5c-0.8,0-1.5,0.2-2,0.6s-0.9,0.9-1.1,1.6c-0.2,0.6-0.3,1.3-0.3,2
			c0,0.9,0.1,1.7,0.4,2.3s0.7,1.2,1.2,1.5c0.6,0.3,1.1,0.5,1.8,0.5c0.8,0,1.4-0.2,2-0.7C563.2,119.5,563.5,118.8,563.7,117.9z
			 M570.9,121.6v-10.5h3.6c0.8,0,1.4,0,1.9,0.1c0.6,0.1,1.1,0.4,1.5,0.8c0.6,0.5,1,1.1,1.2,1.8s0.4,1.6,0.4,2.5
			c0,0.8-0.1,1.5-0.3,2.1c-0.2,0.6-0.4,1.1-0.7,1.5s-0.6,0.7-1,1c-0.3,0.2-0.8,0.4-1.3,0.5c-0.5,0.1-1,0.2-1.7,0.2H570.9z
			 M572.3,120.4h2.3c0.7,0,1.2-0.1,1.6-0.2c0.4-0.1,0.7-0.3,0.9-0.5c0.3-0.3,0.6-0.8,0.8-1.3c0.2-0.6,0.3-1.2,0.3-2
			c0-1.1-0.2-1.9-0.5-2.5c-0.4-0.6-0.8-1-1.3-1.2c-0.4-0.1-1-0.2-1.8-0.2h-2.2V120.4z M586.5,119.2l1.3,0.2
			c-0.2,0.8-0.6,1.4-1.2,1.8c-0.6,0.4-1.3,0.6-2.2,0.6c-1.1,0-2-0.3-2.7-1c-0.6-0.7-1-1.7-1-2.9c0-1.3,0.3-2.3,1-3
			c0.7-0.7,1.5-1.1,2.6-1.1c1,0,1.8,0.3,2.5,1c0.6,0.7,1,1.7,1,2.9c0,0.1,0,0.2,0,0.3h-5.7c0,0.8,0.3,1.5,0.7,1.9
			c0.4,0.4,1,0.7,1.6,0.7c0.5,0,0.9-0.1,1.2-0.4C586.1,120.1,586.3,119.7,586.5,119.2z M582.3,117.1h4.3c-0.1-0.6-0.2-1.1-0.5-1.4
			c-0.4-0.5-1-0.8-1.6-0.8c-0.6,0-1.1,0.2-1.5,0.6S582.3,116.4,582.3,117.1z M594.4,118.8l1.3,0.2c-0.1,0.9-0.5,1.6-1.1,2.1
			c-0.6,0.5-1.3,0.7-2.1,0.7c-1,0-1.9-0.3-2.5-1c-0.6-0.7-0.9-1.7-0.9-2.9c0-0.8,0.1-1.5,0.4-2.2s0.7-1.1,1.2-1.4
			c0.6-0.3,1.2-0.5,1.8-0.5c0.8,0,1.5,0.2,2,0.6s0.9,1,1,1.8l-1.3,0.2c-0.1-0.5-0.3-0.9-0.6-1.2s-0.7-0.4-1.1-0.4
			c-0.7,0-1.2,0.2-1.6,0.7s-0.6,1.2-0.6,2.2c0,1,0.2,1.8,0.6,2.2c0.4,0.5,0.9,0.7,1.5,0.7c0.5,0,0.9-0.2,1.3-0.5
			C594.1,120,594.3,119.5,594.4,118.8z M596.3,117.8c0-1.4,0.4-2.4,1.2-3.1c0.7-0.6,1.5-0.8,2.4-0.8c1.1,0,1.9,0.3,2.6,1
			c0.7,0.7,1,1.6,1,2.8c0,1-0.1,1.8-0.4,2.3c-0.3,0.6-0.7,1-1.3,1.3s-1.2,0.5-1.8,0.5c-1.1,0-1.9-0.3-2.6-1
			C596.6,120.1,596.3,119.1,596.3,117.8z M597.6,117.8c0,1,0.2,1.7,0.6,2.2c0.4,0.5,1,0.7,1.6,0.7s1.2-0.2,1.6-0.7
			c0.4-0.5,0.6-1.2,0.6-2.2c0-0.9-0.2-1.6-0.6-2.1c-0.4-0.5-1-0.7-1.6-0.7c-0.6,0-1.2,0.2-1.6,0.7
			C597.9,116.1,597.6,116.8,597.6,117.8z M609.9,121.6v-1c-0.5,0.8-1.2,1.1-2.1,1.1c-0.6,0-1.2-0.2-1.7-0.5
			c-0.5-0.3-0.9-0.8-1.2-1.4c-0.3-0.6-0.4-1.3-0.4-2.1c0-0.8,0.1-1.4,0.4-2.1c0.3-0.6,0.6-1.1,1.1-1.4c0.5-0.3,1.1-0.5,1.7-0.5
			c0.5,0,0.9,0.1,1.2,0.3c0.4,0.2,0.6,0.4,0.9,0.7v-3.8h1.3v10.5H609.9z M605.8,117.8c0,1,0.2,1.7,0.6,2.2c0.4,0.5,0.9,0.7,1.5,0.7
			c0.6,0,1-0.2,1.4-0.7s0.6-1.2,0.6-2.1c0-1-0.2-1.8-0.6-2.3c-0.4-0.5-0.9-0.7-1.5-0.7c-0.6,0-1,0.2-1.4,0.7
			S605.8,116.8,605.8,117.8z M618.3,119.2l1.3,0.2c-0.2,0.8-0.6,1.4-1.2,1.8c-0.6,0.4-1.3,0.6-2.2,0.6c-1.1,0-2-0.3-2.7-1
			c-0.6-0.7-1-1.7-1-2.9c0-1.3,0.3-2.3,1-3c0.7-0.7,1.5-1.1,2.6-1.1c1,0,1.8,0.3,2.5,1s1,1.7,1,2.9c0,0.1,0,0.2,0,0.3H614
			c0,0.8,0.3,1.5,0.7,1.9c0.4,0.4,1,0.7,1.6,0.7c0.5,0,0.9-0.1,1.2-0.4C617.8,120.1,618.1,119.7,618.3,119.2z M614.1,117.1h4.3
			c-0.1-0.6-0.2-1.1-0.5-1.4c-0.4-0.5-1-0.8-1.6-0.8c-0.6,0-1.1,0.2-1.5,0.6S614.1,116.4,614.1,117.1z M621.2,121.6V114h1.2v1.1
			c0.3-0.5,0.6-0.9,0.8-1c0.3-0.2,0.5-0.3,0.8-0.3c0.4,0,0.9,0.1,1.3,0.4l-0.4,1.2c-0.3-0.2-0.6-0.3-1-0.3c-0.3,0-0.5,0.1-0.8,0.3
			c-0.2,0.2-0.4,0.4-0.5,0.7c-0.1,0.5-0.2,1-0.2,1.5v4H621.2z"/>
		<path class="st3" d="M518.5,169.6h123V212h-123V169.6z"/>
		<path class="st2" d="M518.5,169.6h123V212h-123V169.6z"/>
		<path d="M530.8,195.9l-2.8-10.5h1.4l1.6,6.9c0.2,0.7,0.3,1.4,0.4,2.1c0.3-1.1,0.4-1.8,0.5-1.9l2-7.1h1.7l1.5,5.3
			c0.4,1.3,0.7,2.6,0.8,3.7c0.1-0.7,0.3-1.4,0.5-2.3l1.6-6.7h1.4l-2.9,10.5h-1.3l-2.2-8c-0.2-0.7-0.3-1.1-0.3-1.2
			c-0.1,0.5-0.2,0.9-0.3,1.2l-2.2,8H530.8z M542.6,186.9v-1.5h1.3v1.5H542.6z M542.6,195.9v-7.6h1.3v7.6H542.6z M550.8,195.9v-1
			c-0.5,0.8-1.2,1.1-2.1,1.1c-0.6,0-1.2-0.2-1.7-0.5c-0.5-0.3-0.9-0.8-1.2-1.4c-0.3-0.6-0.4-1.3-0.4-2.1c0-0.8,0.1-1.4,0.4-2.1
			c0.3-0.6,0.6-1.1,1.1-1.4c0.5-0.3,1.1-0.5,1.7-0.5c0.5,0,0.9,0.1,1.2,0.3c0.4,0.2,0.6,0.4,0.9,0.7v-3.8h1.3v10.5H550.8z
			 M546.7,192.1c0,1,0.2,1.7,0.6,2.2c0.4,0.5,0.9,0.7,1.5,0.7c0.6,0,1-0.2,1.4-0.7c0.4-0.5,0.6-1.2,0.6-2.1c0-1-0.2-1.8-0.6-2.3
			c-0.4-0.5-0.9-0.7-1.5-0.7c-0.6,0-1,0.2-1.4,0.7S546.7,191.1,546.7,192.1z M556.8,194.7l0.2,1.1c-0.4,0.1-0.7,0.1-1,0.1
			c-0.5,0-0.8-0.1-1.1-0.2c-0.3-0.1-0.4-0.3-0.5-0.6c-0.1-0.2-0.2-0.7-0.2-1.5v-4.4h-1v-1h1v-1.9l1.3-0.8v2.7h1.3v1h-1.3v4.4
			c0,0.4,0,0.6,0.1,0.7c0.1,0.1,0.1,0.2,0.2,0.3c0.1,0.1,0.3,0.1,0.5,0.1C556.4,194.8,556.6,194.7,556.8,194.7z M558.1,195.9v-10.5
			h1.3v3.8c0.6-0.7,1.4-1,2.3-1c0.6,0,1.1,0.1,1.5,0.3c0.4,0.2,0.7,0.5,0.9,0.9c0.2,0.4,0.3,1,0.3,1.7v4.8H563v-4.8
			c0-0.6-0.1-1.1-0.4-1.4c-0.3-0.3-0.7-0.4-1.2-0.4c-0.4,0-0.7,0.1-1.1,0.3c-0.3,0.2-0.6,0.5-0.7,0.8c-0.1,0.3-0.2,0.8-0.2,1.4v4.2
			H558.1z M570.5,195.9v-10.5h7.6v1.2h-6.2v3.2h5.8v1.2h-5.8v3.6h6.4v1.2H570.5z M579.2,195.9l2.8-4l-2.6-3.6h1.6l1.2,1.8
			c0.2,0.3,0.4,0.6,0.5,0.8c0.2-0.3,0.4-0.6,0.6-0.8l1.3-1.8h1.5l-2.6,3.6l2.8,4h-1.6l-1.6-2.4l-0.4-0.6l-2,3H579.2z M587.4,198.8
			v-10.5h1.2v1c0.3-0.4,0.6-0.7,0.9-0.9c0.3-0.2,0.8-0.3,1.3-0.3c0.6,0,1.2,0.2,1.7,0.5c0.5,0.3,0.9,0.8,1.1,1.4
			c0.3,0.6,0.4,1.3,0.4,2c0,0.8-0.1,1.5-0.4,2.1c-0.3,0.6-0.7,1.1-1.2,1.4c-0.5,0.3-1.1,0.5-1.7,0.5c-0.4,0-0.8-0.1-1.2-0.3
			c-0.3-0.2-0.6-0.4-0.8-0.7v3.7H587.4z M588.6,192.1c0,1,0.2,1.7,0.6,2.2c0.4,0.5,0.9,0.7,1.5,0.7c0.6,0,1.1-0.2,1.5-0.7
			c0.4-0.5,0.6-1.2,0.6-2.3c0-1-0.2-1.7-0.6-2.2c-0.4-0.5-0.9-0.7-1.4-0.7c-0.5,0-1,0.3-1.5,0.8
			C588.8,190.4,588.6,191.1,588.6,192.1z M600.5,194.9c-0.5,0.4-0.9,0.7-1.4,0.9c-0.4,0.2-0.9,0.3-1.4,0.3c-0.8,0-1.5-0.2-1.9-0.6
			c-0.4-0.4-0.7-0.9-0.7-1.6c0-0.4,0.1-0.7,0.3-1c0.2-0.3,0.4-0.6,0.7-0.8c0.3-0.2,0.6-0.3,0.9-0.4c0.3-0.1,0.6-0.1,1.1-0.2
			c1-0.1,1.8-0.3,2.3-0.5c0-0.2,0-0.3,0-0.3c0-0.5-0.1-0.9-0.4-1.1c-0.3-0.3-0.8-0.4-1.5-0.4c-0.6,0-1.1,0.1-1.4,0.3
			c-0.3,0.2-0.5,0.6-0.6,1.1l-1.3-0.2c0.1-0.5,0.3-1,0.6-1.3c0.3-0.3,0.6-0.6,1.1-0.8c0.5-0.2,1.1-0.3,1.7-0.3
			c0.7,0,1.2,0.1,1.6,0.2c0.4,0.1,0.7,0.3,0.9,0.6c0.2,0.2,0.3,0.5,0.4,0.9c0,0.2,0.1,0.6,0.1,1.2v1.7c0,1.2,0,2,0.1,2.3
			c0.1,0.3,0.2,0.6,0.3,0.9h-1.3C600.7,195.6,600.6,195.3,600.5,194.9z M600.4,192.1c-0.5,0.2-1.2,0.3-2.1,0.5
			c-0.5,0.1-0.9,0.2-1.1,0.3c-0.2,0.1-0.4,0.2-0.5,0.4c-0.1,0.2-0.2,0.4-0.2,0.6c0,0.3,0.1,0.6,0.4,0.9c0.3,0.2,0.6,0.3,1.1,0.3
			c0.5,0,0.9-0.1,1.3-0.3c0.4-0.2,0.7-0.5,0.9-0.9c0.1-0.3,0.2-0.7,0.2-1.3V192.1z M603.7,195.9v-7.6h1.2v1.1
			c0.6-0.8,1.4-1.3,2.4-1.3c0.5,0,0.9,0.1,1.3,0.3c0.4,0.2,0.7,0.4,0.9,0.6c0.2,0.3,0.3,0.6,0.4,1c0,0.2,0.1,0.7,0.1,1.3v4.7h-1.3
			v-4.6c0-0.5-0.1-0.9-0.2-1.2c-0.1-0.3-0.3-0.5-0.5-0.6c-0.3-0.2-0.5-0.2-0.9-0.2c-0.5,0-1,0.2-1.4,0.5c-0.4,0.3-0.6,1-0.6,2v4.2
			H603.7z M616.8,195.9v-1c-0.5,0.8-1.2,1.1-2.1,1.1c-0.6,0-1.2-0.2-1.7-0.5c-0.5-0.3-0.9-0.8-1.2-1.4c-0.3-0.6-0.4-1.3-0.4-2.1
			c0-0.8,0.1-1.4,0.4-2.1c0.3-0.6,0.6-1.1,1.1-1.4c0.5-0.3,1.1-0.5,1.7-0.5c0.5,0,0.9,0.1,1.2,0.3c0.4,0.2,0.6,0.4,0.9,0.7v-3.8h1.3
			v10.5H616.8z M612.7,192.1c0,1,0.2,1.7,0.6,2.2c0.4,0.5,0.9,0.7,1.5,0.7c0.6,0,1-0.2,1.4-0.7c0.4-0.5,0.6-1.2,0.6-2.1
			c0-1-0.2-1.8-0.6-2.3c-0.4-0.5-0.9-0.7-1.5-0.7c-0.6,0-1,0.2-1.4,0.7C612.9,190.3,612.7,191.1,612.7,192.1z M625.2,193.4l1.3,0.2
			c-0.2,0.8-0.6,1.4-1.2,1.8c-0.6,0.4-1.3,0.6-2.2,0.6c-1.1,0-2-0.3-2.7-1c-0.6-0.7-1-1.7-1-2.9c0-1.3,0.3-2.3,1-3
			c0.7-0.7,1.5-1.1,2.6-1.1c1,0,1.8,0.3,2.5,1s1,1.7,1,2.9c0,0.1,0,0.2,0,0.3h-5.7c0,0.8,0.3,1.5,0.7,1.9c0.4,0.4,1,0.7,1.6,0.7
			c0.5,0,0.9-0.1,1.2-0.4C624.8,194.4,625,194,625.2,193.4z M621,191.3h4.3c-0.1-0.6-0.2-1.1-0.5-1.4c-0.4-0.5-1-0.8-1.6-0.8
			c-0.6,0-1.1,0.2-1.5,0.6C621.3,190.1,621,190.7,621,191.3z M628.2,195.9v-7.6h1.2v1.1c0.3-0.5,0.6-0.9,0.8-1
			c0.3-0.2,0.5-0.3,0.8-0.3c0.4,0,0.9,0.1,1.3,0.4l-0.4,1.2c-0.3-0.2-0.6-0.3-1-0.3c-0.3,0-0.5,0.1-0.8,0.3
			c-0.2,0.2-0.4,0.4-0.5,0.7c-0.1,0.5-0.2,1-0.2,1.5v4H628.2z"/>
		<path class="st3" d="M518.5,243.9h123v42.4h-123V243.9z"/>
		<path class="st2" d="M518.5,243.9h123v42.4h-123V243.9z"/>
		<path d="M546.1,270.1v-10.5h3.6c0.8,0,1.4,0,1.9,0.1c0.6,0.1,1.1,0.4,1.5,0.8c0.6,0.5,1,1.1,1.2,1.8s0.4,1.6,0.4,2.5
			c0,0.8-0.1,1.5-0.3,2.1c-0.2,0.6-0.4,1.1-0.7,1.5s-0.6,0.7-1,1c-0.3,0.2-0.8,0.4-1.3,0.5c-0.5,0.1-1,0.2-1.7,0.2H546.1z
			 M547.5,268.9h2.3c0.7,0,1.2-0.1,1.6-0.2c0.4-0.1,0.7-0.3,0.9-0.5c0.3-0.3,0.6-0.8,0.8-1.3c0.2-0.6,0.3-1.2,0.3-2
			c0-1.1-0.2-1.9-0.5-2.5c-0.4-0.6-0.8-1-1.3-1.2c-0.4-0.1-1-0.2-1.8-0.2h-2.2V268.9z M561.7,267.7l1.3,0.2
			c-0.2,0.8-0.6,1.4-1.2,1.8c-0.6,0.4-1.3,0.6-2.2,0.6c-1.1,0-2-0.3-2.7-1c-0.6-0.7-1-1.7-1-2.9c0-1.3,0.3-2.3,1-3
			c0.7-0.7,1.5-1.1,2.6-1.1c1,0,1.8,0.3,2.5,1s1,1.7,1,2.9c0,0.1,0,0.2,0,0.3h-5.7c0,0.8,0.3,1.5,0.7,1.9c0.4,0.4,1,0.7,1.6,0.7
			c0.5,0,0.9-0.1,1.2-0.4C561.2,268.6,561.5,268.2,561.7,267.7z M557.5,265.6h4.3c-0.1-0.6-0.2-1.1-0.5-1.4c-0.4-0.5-1-0.8-1.6-0.8
			c-0.6,0-1.1,0.2-1.5,0.6S557.5,264.9,557.5,265.6z M569.6,267.3l1.3,0.2c-0.1,0.9-0.5,1.6-1.1,2.1c-0.6,0.5-1.3,0.7-2.1,0.7
			c-1,0-1.9-0.3-2.5-1c-0.6-0.7-0.9-1.7-0.9-2.9c0-0.8,0.1-1.5,0.4-2.2s0.7-1.1,1.2-1.4c0.6-0.3,1.2-0.5,1.8-0.5
			c0.8,0,1.5,0.2,2,0.6s0.9,1,1,1.8l-1.3,0.2c-0.1-0.5-0.3-0.9-0.6-1.2s-0.7-0.4-1.1-0.4c-0.7,0-1.2,0.2-1.6,0.7s-0.6,1.2-0.6,2.2
			c0,1,0.2,1.8,0.6,2.2c0.4,0.5,0.9,0.7,1.5,0.7c0.5,0,0.9-0.2,1.3-0.5C569.3,268.5,569.5,268,569.6,267.3z M572,270.1v-7.6h1.2v1.1
			c0.3-0.5,0.6-0.9,0.8-1c0.3-0.2,0.5-0.3,0.8-0.3c0.4,0,0.9,0.1,1.3,0.4l-0.4,1.2c-0.3-0.2-0.6-0.3-1-0.3c-0.3,0-0.5,0.1-0.8,0.3
			c-0.2,0.2-0.4,0.4-0.5,0.7c-0.1,0.5-0.2,1-0.2,1.5v4H572z M576.8,273l-0.1-1.2c0.3,0.1,0.5,0.1,0.7,0.1c0.3,0,0.5,0,0.7-0.1
			c0.2-0.1,0.3-0.2,0.4-0.4c0.1-0.1,0.2-0.4,0.4-1c0-0.1,0.1-0.2,0.1-0.3l-2.9-7.6h1.4l1.6,4.4c0.2,0.6,0.4,1.2,0.5,1.8
			c0.2-0.6,0.3-1.2,0.5-1.7l1.6-4.4h1.3l-2.9,7.7c-0.3,0.8-0.6,1.4-0.7,1.7c-0.2,0.4-0.5,0.7-0.8,0.9c-0.3,0.2-0.6,0.3-1.1,0.3
			C577.4,273.2,577.1,273.1,576.8,273z M584.2,273v-10.5h1.2v1c0.3-0.4,0.6-0.7,0.9-0.9c0.3-0.2,0.8-0.3,1.3-0.3
			c0.6,0,1.2,0.2,1.7,0.5s0.9,0.8,1.1,1.4c0.3,0.6,0.4,1.3,0.4,2c0,0.8-0.1,1.5-0.4,2.1c-0.3,0.6-0.7,1.1-1.2,1.4
			c-0.5,0.3-1.1,0.5-1.7,0.5c-0.4,0-0.8-0.1-1.2-0.3c-0.3-0.2-0.6-0.4-0.8-0.7v3.7H584.2z M585.3,266.4c0,1,0.2,1.7,0.6,2.2
			c0.4,0.5,0.9,0.7,1.5,0.7c0.6,0,1.1-0.2,1.5-0.7c0.4-0.5,0.6-1.2,0.6-2.3c0-1-0.2-1.7-0.6-2.2c-0.4-0.5-0.9-0.7-1.4-0.7
			c-0.5,0-1,0.3-1.5,0.8C585.5,264.6,585.3,265.4,585.3,266.4z M595.1,269l0.2,1.1c-0.4,0.1-0.7,0.1-1,0.1c-0.5,0-0.8-0.1-1.1-0.2
			s-0.4-0.3-0.5-0.6s-0.2-0.7-0.2-1.5v-4.4h-1v-1h1v-1.9l1.3-0.8v2.7h1.3v1h-1.3v4.4c0,0.4,0,0.6,0.1,0.7c0.1,0.1,0.1,0.2,0.2,0.3
			c0.1,0.1,0.3,0.1,0.5,0.1C594.7,269,594.9,269,595.1,269z M596.4,261.1v-1.5h1.3v1.5H596.4z M596.4,270.1v-7.6h1.3v7.6H596.4z
			 M599.2,266.3c0-1.4,0.4-2.4,1.2-3.1c0.7-0.6,1.5-0.8,2.4-0.8c1.1,0,1.9,0.3,2.6,1c0.7,0.7,1,1.6,1,2.8c0,1-0.1,1.8-0.4,2.3
			c-0.3,0.6-0.7,1-1.3,1.3s-1.2,0.5-1.8,0.5c-1.1,0-1.9-0.3-2.6-1C599.5,268.6,599.2,267.6,599.2,266.3z M600.5,266.3
			c0,1,0.2,1.7,0.6,2.2c0.4,0.5,1,0.7,1.6,0.7s1.2-0.2,1.6-0.7c0.4-0.5,0.6-1.2,0.6-2.2c0-0.9-0.2-1.6-0.6-2.1
			c-0.4-0.5-1-0.7-1.6-0.7c-0.6,0-1.2,0.2-1.6,0.7C600.7,264.6,600.5,265.3,600.5,266.3z M607.8,270.1v-7.6h1.2v1.1
			c0.6-0.8,1.4-1.3,2.4-1.3c0.5,0,0.9,0.1,1.3,0.3c0.4,0.2,0.7,0.4,0.9,0.6s0.3,0.6,0.4,1c0,0.2,0.1,0.7,0.1,1.3v4.7h-1.3v-4.6
			c0-0.5-0.1-0.9-0.2-1.2s-0.3-0.5-0.5-0.6c-0.3-0.2-0.5-0.2-0.9-0.2c-0.5,0-1,0.2-1.4,0.5c-0.4,0.3-0.6,1-0.6,2v4.2H607.8z"/>
		<path class="st3" d="M518.5,318.1h123v42.4h-123V318.1z"/>
		<path class="st2" d="M518.5,318.1h123v42.4h-123V318.1z"/>
		<path d="M532.7,336.1l-2.5-9.5h1.3l1.5,6.3c0.2,0.7,0.3,1.3,0.4,2c0.2-1,0.4-1.6,0.4-1.8l1.8-6.5h1.5l1.4,4.8
			c0.3,1.2,0.6,2.3,0.7,3.4c0.1-0.6,0.3-1.3,0.5-2.1l1.5-6.1h1.3l-2.6,9.5h-1.2l-2-7.3c-0.2-0.6-0.3-1-0.3-1.1
			c-0.1,0.4-0.2,0.8-0.3,1.1l-2,7.3H532.7z M543.4,327.9v-1.4h1.2v1.4H543.4z M543.4,336.1v-6.9h1.2v6.9H543.4z M550.9,336.1v-0.9
			c-0.4,0.7-1.1,1-1.9,1c-0.5,0-1-0.2-1.5-0.5c-0.5-0.3-0.8-0.7-1.1-1.3c-0.3-0.6-0.4-1.2-0.4-1.9c0-0.7,0.1-1.3,0.3-1.9
			c0.2-0.6,0.6-1,1-1.3c0.5-0.3,1-0.5,1.5-0.5c0.4,0,0.8,0.1,1.1,0.3c0.3,0.2,0.6,0.4,0.8,0.7v-3.4h1.2v9.5H550.9z M547.2,332.6
			c0,0.9,0.2,1.5,0.6,2s0.8,0.7,1.3,0.7c0.5,0,0.9-0.2,1.3-0.6c0.4-0.4,0.5-1.1,0.5-1.9c0-0.9-0.2-1.6-0.5-2.1
			c-0.4-0.4-0.8-0.7-1.3-0.7c-0.5,0-1,0.2-1.3,0.6C547.3,331,547.2,331.7,547.2,332.6z M556.4,335l0.2,1c-0.3,0.1-0.6,0.1-0.9,0.1
			c-0.4,0-0.8-0.1-1-0.2c-0.2-0.1-0.4-0.3-0.5-0.5s-0.1-0.7-0.1-1.4v-4h-0.9v-0.9h0.9v-1.7l1.2-0.7v2.4h1.2v0.9h-1.2v4
			c0,0.3,0,0.5,0,0.6c0,0.1,0.1,0.2,0.2,0.2c0.1,0.1,0.2,0.1,0.4,0.1C556,335.1,556.1,335.1,556.4,335z M557.5,336.1v-9.5h1.2v3.4
			c0.6-0.6,1.2-0.9,2.1-0.9c0.5,0,1,0.1,1.3,0.3c0.4,0.2,0.6,0.5,0.8,0.8c0.2,0.4,0.3,0.9,0.3,1.5v4.4H562v-4.4c0-0.6-0.1-1-0.4-1.3
			c-0.3-0.3-0.6-0.4-1.1-0.4c-0.3,0-0.7,0.1-1,0.3c-0.3,0.2-0.5,0.4-0.7,0.7c-0.1,0.3-0.2,0.7-0.2,1.3v3.8H557.5z M575.6,332.7
			l1.3,0.3c-0.3,1-0.7,1.8-1.4,2.4c-0.7,0.5-1.5,0.8-2.5,0.8c-1,0-1.9-0.2-2.5-0.6c-0.6-0.4-1.1-1-1.5-1.8c-0.3-0.8-0.5-1.6-0.5-2.6
			c0-1,0.2-1.9,0.6-2.6c0.4-0.7,0.9-1.3,1.6-1.7c0.7-0.4,1.5-0.6,2.3-0.6c0.9,0,1.7,0.2,2.4,0.7c0.7,0.5,1.1,1.2,1.4,2l-1.3,0.3
			c-0.2-0.7-0.5-1.2-1-1.5c-0.4-0.3-0.9-0.5-1.6-0.5c-0.7,0-1.3,0.2-1.8,0.5c-0.5,0.4-0.8,0.8-1,1.4c-0.2,0.6-0.3,1.2-0.3,1.8
			c0,0.8,0.1,1.5,0.3,2.1c0.2,0.6,0.6,1.1,1.1,1.4c0.5,0.3,1,0.4,1.6,0.4c0.7,0,1.3-0.2,1.8-0.6
			C575.1,334.1,575.4,333.5,575.6,332.7z M577.8,332.6c0-1.3,0.4-2.2,1.1-2.8c0.6-0.5,1.3-0.8,2.2-0.8c0.9,0,1.7,0.3,2.3,0.9
			c0.6,0.6,0.9,1.5,0.9,2.6c0,0.9-0.1,1.6-0.4,2.1c-0.3,0.5-0.6,0.9-1.2,1.2c-0.5,0.3-1.1,0.4-1.7,0.4c-1,0-1.8-0.3-2.4-0.9
			C578.1,334.7,577.8,333.8,577.8,332.6z M579,332.6c0,0.9,0.2,1.5,0.6,2c0.4,0.4,0.9,0.7,1.5,0.7c0.6,0,1.1-0.2,1.5-0.7
			c0.4-0.4,0.6-1.1,0.6-2c0-0.9-0.2-1.5-0.6-1.9c-0.4-0.4-0.9-0.7-1.4-0.7c-0.6,0-1.1,0.2-1.5,0.7C579.2,331.1,579,331.7,579,332.6z
			 M585.7,336.1v-6.9h1.1v1c0.5-0.8,1.2-1.1,2.2-1.1c0.4,0,0.8,0.1,1.2,0.2c0.4,0.1,0.6,0.3,0.8,0.6c0.2,0.2,0.3,0.5,0.4,0.9
			c0,0.2,0.1,0.6,0.1,1.1v4.3h-1.2v-4.2c0-0.5,0-0.8-0.1-1.1c-0.1-0.2-0.3-0.4-0.5-0.6c-0.2-0.1-0.5-0.2-0.8-0.2
			c-0.5,0-0.9,0.2-1.3,0.5c-0.4,0.3-0.5,0.9-0.5,1.8v3.8H585.7z M595.6,335l0.2,1c-0.3,0.1-0.6,0.1-0.9,0.1c-0.4,0-0.8-0.1-1-0.2
			c-0.2-0.1-0.4-0.3-0.5-0.5s-0.1-0.7-0.1-1.4v-4h-0.9v-0.9h0.9v-1.7l1.2-0.7v2.4h1.2v0.9h-1.2v4c0,0.3,0,0.5,0,0.6
			c0,0.1,0.1,0.2,0.2,0.2c0.1,0.1,0.2,0.1,0.4,0.1C595.2,335.1,595.4,335.1,595.6,335z M596.8,336.1v-6.9h1.1v1
			c0.3-0.5,0.5-0.8,0.7-1c0.2-0.2,0.5-0.2,0.8-0.2c0.4,0,0.8,0.1,1.2,0.4l-0.4,1.1c-0.3-0.2-0.6-0.3-0.9-0.3c-0.3,0-0.5,0.1-0.7,0.2
			c-0.2,0.2-0.3,0.4-0.4,0.6c-0.1,0.4-0.2,0.9-0.2,1.4v3.6H596.8z M605.7,335.2c-0.4,0.4-0.9,0.6-1.3,0.8c-0.4,0.1-0.8,0.2-1.3,0.2
			c-0.8,0-1.3-0.2-1.8-0.5c-0.4-0.4-0.6-0.9-0.6-1.4c0-0.3,0.1-0.6,0.2-0.9c0.2-0.3,0.4-0.5,0.6-0.7c0.3-0.2,0.5-0.3,0.8-0.4
			c0.2-0.1,0.6-0.1,1-0.2c0.9-0.1,1.6-0.3,2.1-0.4c0-0.2,0-0.3,0-0.3c0-0.5-0.1-0.8-0.3-1c-0.3-0.3-0.8-0.4-1.3-0.4
			c-0.5,0-0.9,0.1-1.2,0.3c-0.3,0.2-0.5,0.5-0.6,1l-1.1-0.2c0.1-0.5,0.3-0.9,0.5-1.2c0.2-0.3,0.6-0.5,1-0.7c0.4-0.2,1-0.3,1.6-0.3
			s1.1,0.1,1.4,0.2c0.4,0.1,0.6,0.3,0.8,0.5c0.2,0.2,0.3,0.5,0.4,0.8c0,0.2,0,0.6,0,1.1v1.6c0,1.1,0,1.8,0.1,2.1
			c0.1,0.3,0.2,0.6,0.3,0.8H606C605.8,335.8,605.8,335.6,605.7,335.2z M605.6,332.6c-0.4,0.2-1.1,0.3-1.9,0.4
			c-0.5,0.1-0.8,0.2-1,0.3c-0.2,0.1-0.4,0.2-0.5,0.4c-0.1,0.2-0.2,0.3-0.2,0.5c0,0.3,0.1,0.6,0.3,0.8c0.2,0.2,0.6,0.3,1,0.3
			c0.4,0,0.8-0.1,1.2-0.3c0.4-0.2,0.6-0.5,0.8-0.8c0.1-0.3,0.2-0.7,0.2-1.2V332.6z M613.1,333.5l1.2,0.2c-0.1,0.8-0.4,1.4-1,1.9
			c-0.5,0.4-1.2,0.7-1.9,0.7c-0.9,0-1.7-0.3-2.3-0.9c-0.6-0.6-0.9-1.5-0.9-2.7c0-0.8,0.1-1.4,0.4-2s0.6-1,1.1-1.3
			c0.5-0.3,1.1-0.4,1.7-0.4c0.8,0,1.4,0.2,1.8,0.6c0.5,0.4,0.8,0.9,0.9,1.6l-1.1,0.2c-0.1-0.5-0.3-0.8-0.6-1c-0.3-0.2-0.6-0.4-1-0.4
			c-0.6,0-1.1,0.2-1.5,0.6c-0.4,0.4-0.5,1.1-0.5,2c0,0.9,0.2,1.6,0.5,2c0.4,0.4,0.8,0.6,1.4,0.6c0.5,0,0.8-0.1,1.1-0.4
			C612.9,334.6,613,334.1,613.1,333.5z M617.8,335l0.2,1c-0.3,0.1-0.6,0.1-0.9,0.1c-0.4,0-0.8-0.1-1-0.2c-0.2-0.1-0.4-0.3-0.5-0.5
			s-0.1-0.7-0.1-1.4v-4h-0.9v-0.9h0.9v-1.7l1.2-0.7v2.4h1.2v0.9h-1.2v4c0,0.3,0,0.5,0,0.6c0,0.1,0.1,0.2,0.2,0.2
			c0.1,0.1,0.2,0.1,0.4,0.1C617.5,335.1,617.6,335.1,617.8,335z M618.5,332.6c0-1.3,0.4-2.2,1.1-2.8c0.6-0.5,1.3-0.8,2.2-0.8
			c0.9,0,1.7,0.3,2.3,0.9c0.6,0.6,0.9,1.5,0.9,2.6c0,0.9-0.1,1.6-0.4,2.1c-0.3,0.5-0.6,0.9-1.2,1.2c-0.5,0.3-1.1,0.4-1.7,0.4
			c-1,0-1.8-0.3-2.4-0.9C618.8,334.7,618.5,333.8,618.5,332.6z M619.7,332.6c0,0.9,0.2,1.5,0.6,2c0.4,0.4,0.9,0.7,1.5,0.7
			c0.6,0,1.1-0.2,1.5-0.7c0.4-0.4,0.6-1.1,0.6-2c0-0.9-0.2-1.5-0.6-1.9c-0.4-0.4-0.9-0.7-1.4-0.7c-0.6,0-1.1,0.2-1.5,0.7
			C619.9,331.1,619.7,331.7,619.7,332.6z M626.4,336.1v-6.9h1.1v1c0.3-0.5,0.5-0.8,0.7-1c0.2-0.2,0.5-0.2,0.8-0.2
			c0.4,0,0.8,0.1,1.2,0.4l-0.4,1.1c-0.3-0.2-0.6-0.3-0.9-0.3c-0.3,0-0.5,0.1-0.7,0.2c-0.2,0.2-0.3,0.4-0.4,0.6
			c-0.1,0.4-0.2,0.9-0.2,1.4v3.6H626.4z"/>
		<path d="M554.2,350.5v-2.6h-2.6v-1.1h2.6v-2.6h1.1v2.6h2.6v1.1h-2.6v2.6H554.2z M563,349l1.2-0.1c0.1,0.5,0.2,0.9,0.4,1.2
			c0.2,0.3,0.5,0.5,1,0.7c0.4,0.2,0.9,0.3,1.5,0.3c0.5,0,0.9-0.1,1.3-0.2c0.4-0.1,0.7-0.3,0.8-0.6c0.2-0.3,0.3-0.5,0.3-0.8
			c0-0.3-0.1-0.6-0.3-0.8c-0.2-0.2-0.4-0.4-0.8-0.6c-0.3-0.1-0.8-0.3-1.7-0.5c-0.9-0.2-1.5-0.4-1.8-0.6c-0.4-0.2-0.8-0.5-1-0.9
			c-0.2-0.4-0.3-0.8-0.3-1.2c0-0.5,0.1-0.9,0.4-1.3c0.3-0.4,0.7-0.7,1.2-1c0.5-0.2,1.1-0.3,1.8-0.3c0.7,0,1.3,0.1,1.9,0.3
			c0.5,0.2,1,0.6,1.3,1c0.3,0.4,0.4,0.9,0.5,1.5l-1.2,0.1c-0.1-0.6-0.3-1.1-0.7-1.4c-0.4-0.3-0.9-0.5-1.7-0.5
			c-0.8,0-1.3,0.1-1.7,0.4c-0.3,0.3-0.5,0.6-0.5,1c0,0.3,0.1,0.6,0.4,0.8c0.3,0.2,0.9,0.4,1.9,0.7c1,0.2,1.7,0.4,2.1,0.6
			c0.6,0.3,1,0.6,1.2,1c0.3,0.4,0.4,0.8,0.4,1.4c0,0.5-0.1,1-0.4,1.4c-0.3,0.4-0.7,0.8-1.3,1c-0.5,0.2-1.2,0.4-1.8,0.4
			c-0.9,0-1.6-0.1-2.2-0.4s-1-0.6-1.4-1.1C563.2,350.2,563,349.7,563,349z M574.7,351l0.2,1c-0.3,0.1-0.6,0.1-0.9,0.1
			c-0.4,0-0.8-0.1-1-0.2c-0.2-0.1-0.4-0.3-0.5-0.5s-0.1-0.7-0.1-1.4v-4h-0.9v-0.9h0.9v-1.7l1.2-0.7v2.4h1.2v0.9h-1.2v4
			c0,0.3,0,0.5,0,0.6c0,0.1,0.1,0.2,0.2,0.2c0.1,0.1,0.2,0.1,0.4,0.1C574.3,351.1,574.5,351.1,574.7,351z M575.8,352.1v-6.9h1.1v1
			c0.3-0.5,0.5-0.8,0.7-1c0.2-0.2,0.5-0.2,0.8-0.2c0.4,0,0.8,0.1,1.2,0.4l-0.4,1.1c-0.3-0.2-0.6-0.3-0.9-0.3c-0.3,0-0.5,0.1-0.7,0.2
			c-0.2,0.2-0.3,0.4-0.4,0.6c-0.1,0.4-0.2,0.9-0.2,1.4v3.6H575.8z M580.3,343.9v-1.4h1.2v1.4H580.3z M580.3,352.1v-6.9h1.2v6.9
			H580.3z M583.2,354.7v-9.6h1.1v0.9c0.3-0.4,0.5-0.6,0.8-0.8c0.3-0.2,0.7-0.3,1.2-0.3c0.6,0,1.1,0.2,1.5,0.5c0.5,0.3,0.8,0.7,1,1.3
			c0.2,0.6,0.3,1.2,0.3,1.8c0,0.7-0.1,1.3-0.4,1.9c-0.3,0.6-0.6,1-1.1,1.3c-0.5,0.3-1,0.5-1.5,0.5c-0.4,0-0.7-0.1-1-0.3
			c-0.3-0.2-0.6-0.4-0.8-0.6v3.4H583.2z M584.3,348.7c0,0.9,0.2,1.6,0.5,2c0.4,0.4,0.8,0.6,1.3,0.6c0.5,0,1-0.2,1.3-0.7
			s0.6-1.1,0.6-2c0-0.9-0.2-1.5-0.5-2c-0.4-0.4-0.8-0.7-1.3-0.7s-0.9,0.2-1.3,0.7S584.3,347.8,584.3,348.7z M590.7,354.7v-9.6h1.1
			v0.9c0.3-0.4,0.5-0.6,0.8-0.8c0.3-0.2,0.7-0.3,1.2-0.3c0.6,0,1.1,0.2,1.5,0.5c0.5,0.3,0.8,0.7,1,1.3c0.2,0.6,0.3,1.2,0.3,1.8
			c0,0.7-0.1,1.3-0.4,1.9c-0.3,0.6-0.6,1-1.1,1.3c-0.5,0.3-1,0.5-1.5,0.5c-0.4,0-0.7-0.1-1-0.3c-0.3-0.2-0.6-0.4-0.8-0.6v3.4H590.7z
			 M591.7,348.7c0,0.9,0.2,1.6,0.5,2c0.4,0.4,0.8,0.6,1.3,0.6c0.5,0,1-0.2,1.3-0.7s0.6-1.1,0.6-2c0-0.9-0.2-1.5-0.5-2
			c-0.4-0.4-0.8-0.7-1.3-0.7s-0.9,0.2-1.3,0.7S591.7,347.8,591.7,348.7z M602.8,349.9l1.2,0.1c-0.2,0.7-0.5,1.3-1.1,1.7
			c-0.5,0.4-1.2,0.6-2,0.6c-1,0-1.8-0.3-2.4-0.9s-0.9-1.5-0.9-2.6c0-1.2,0.3-2.1,0.9-2.7c0.6-0.6,1.4-1,2.3-1c0.9,0,1.7,0.3,2.3,0.9
			s0.9,1.5,0.9,2.7c0,0.1,0,0.2,0,0.3h-5.2c0,0.8,0.3,1.3,0.6,1.8c0.4,0.4,0.9,0.6,1.4,0.6c0.4,0,0.8-0.1,1.1-0.3
			C602.4,350.7,602.6,350.4,602.8,349.9z M599,348h3.9c-0.1-0.6-0.2-1-0.4-1.3c-0.4-0.5-0.9-0.7-1.5-0.7c-0.5,0-1,0.2-1.4,0.5
			C599.2,346.9,599,347.4,599,348z M605.5,352.1v-6.9h1.1v1c0.3-0.5,0.5-0.8,0.7-1c0.2-0.2,0.5-0.2,0.8-0.2c0.4,0,0.8,0.1,1.2,0.4
			l-0.4,1.1c-0.3-0.2-0.6-0.3-0.9-0.3c-0.3,0-0.5,0.1-0.7,0.2c-0.2,0.2-0.3,0.4-0.4,0.6c-0.1,0.4-0.2,0.9-0.2,1.4v3.6H605.5z"/>
		<path class="st3" d="M518.5,392.3h123v42.4h-123V392.3z"/>
		<path class="st2" d="M518.5,392.3h123v42.4h-123V392.3z"/>
		<path d="M533.4,418.6v-10.5h3.6c0.8,0,1.4,0,1.9,0.1c0.6,0.1,1.1,0.4,1.5,0.8c0.6,0.5,1,1.1,1.2,1.8c0.3,0.7,0.4,1.6,0.4,2.5
			c0,0.8-0.1,1.5-0.3,2.1c-0.2,0.6-0.4,1.1-0.7,1.5c-0.3,0.4-0.6,0.7-1,1c-0.3,0.2-0.8,0.4-1.3,0.5c-0.5,0.1-1,0.2-1.7,0.2H533.4z
			 M534.8,417.4h2.3c0.7,0,1.2-0.1,1.6-0.2c0.4-0.1,0.7-0.3,0.9-0.5c0.3-0.3,0.6-0.8,0.8-1.3c0.2-0.6,0.3-1.2,0.3-2
			c0-1.1-0.2-1.9-0.5-2.5c-0.4-0.6-0.8-1-1.3-1.2c-0.4-0.1-1-0.2-1.8-0.2h-2.2V417.4z M549.1,416.2l1.3,0.2
			c-0.2,0.8-0.6,1.4-1.2,1.8c-0.6,0.4-1.3,0.6-2.2,0.6c-1.1,0-2-0.3-2.7-1c-0.6-0.7-1-1.7-1-2.9c0-1.3,0.3-2.3,1-3
			c0.7-0.7,1.5-1.1,2.6-1.1c1,0,1.8,0.3,2.5,1s1,1.7,1,2.9c0,0.1,0,0.2,0,0.3h-5.7c0,0.8,0.3,1.5,0.7,1.9c0.4,0.4,1,0.7,1.6,0.7
			c0.5,0,0.9-0.1,1.2-0.4C548.6,417.1,548.9,416.7,549.1,416.2z M544.8,414.1h4.3c-0.1-0.6-0.2-1.1-0.5-1.4c-0.4-0.5-1-0.8-1.6-0.8
			c-0.6,0-1.1,0.2-1.5,0.6C545.1,412.9,544.9,413.4,544.8,414.1z M557,415.8l1.3,0.2c-0.1,0.9-0.5,1.6-1.1,2.1
			c-0.6,0.5-1.3,0.7-2.1,0.7c-1,0-1.9-0.3-2.5-1c-0.6-0.7-0.9-1.7-0.9-2.9c0-0.8,0.1-1.5,0.4-2.2c0.3-0.6,0.7-1.1,1.2-1.4
			c0.6-0.3,1.2-0.5,1.8-0.5c0.8,0,1.5,0.2,2,0.6c0.5,0.4,0.9,1,1,1.8l-1.3,0.2c-0.1-0.5-0.3-0.9-0.6-1.2c-0.3-0.3-0.7-0.4-1.1-0.4
			c-0.7,0-1.2,0.2-1.6,0.7s-0.6,1.2-0.6,2.2c0,1,0.2,1.8,0.6,2.2c0.4,0.5,0.9,0.7,1.5,0.7c0.5,0,0.9-0.2,1.3-0.5
			C556.7,417,556.9,416.5,557,415.8z M558.9,414.8c0-1.4,0.4-2.4,1.2-3.1c0.7-0.6,1.5-0.8,2.4-0.8c1.1,0,1.9,0.3,2.6,1
			c0.7,0.7,1,1.6,1,2.8c0,1-0.1,1.8-0.4,2.3c-0.3,0.6-0.7,1-1.3,1.3s-1.2,0.5-1.8,0.5c-1.1,0-1.9-0.3-2.6-1
			C559.2,417.1,558.9,416.1,558.9,414.8z M560.2,414.8c0,1,0.2,1.7,0.6,2.2c0.4,0.5,1,0.7,1.6,0.7s1.2-0.2,1.6-0.7
			c0.4-0.5,0.6-1.2,0.6-2.2c0-0.9-0.2-1.6-0.6-2.1c-0.4-0.5-1-0.7-1.6-0.7c-0.6,0-1.2,0.2-1.6,0.7
			C560.4,413.1,560.2,413.8,560.2,414.8z M567.5,418.6V411h1.2v1.1c0.2-0.4,0.5-0.7,0.9-0.9c0.4-0.2,0.9-0.3,1.4-0.3
			c0.6,0,1,0.1,1.4,0.3c0.4,0.2,0.6,0.6,0.8,1c0.6-0.9,1.4-1.3,2.4-1.3c0.8,0,1.3,0.2,1.7,0.6c0.4,0.4,0.6,1.1,0.6,1.9v5.2h-1.3
			v-4.8c0-0.5,0-0.9-0.1-1.1c-0.1-0.2-0.2-0.4-0.5-0.5c-0.2-0.1-0.5-0.2-0.8-0.2c-0.5,0-1,0.2-1.3,0.5c-0.4,0.4-0.5,0.9-0.5,1.7v4.4
			H572v-4.9c0-0.6-0.1-1-0.3-1.3c-0.2-0.3-0.6-0.4-1-0.4c-0.4,0-0.7,0.1-1,0.3c-0.3,0.2-0.5,0.5-0.7,0.8c-0.1,0.4-0.2,0.9-0.2,1.6
			v3.9H567.5z M579.7,421.5V411h1.2v1c0.3-0.4,0.6-0.7,0.9-0.9c0.3-0.2,0.8-0.3,1.3-0.3c0.6,0,1.2,0.2,1.7,0.5
			c0.5,0.3,0.9,0.8,1.1,1.4c0.3,0.6,0.4,1.3,0.4,2c0,0.8-0.1,1.5-0.4,2.1c-0.3,0.6-0.7,1.1-1.2,1.4c-0.5,0.3-1.1,0.5-1.7,0.5
			c-0.4,0-0.8-0.1-1.2-0.3c-0.3-0.2-0.6-0.4-0.8-0.7v3.7H579.7z M580.9,414.9c0,1,0.2,1.7,0.6,2.2c0.4,0.5,0.9,0.7,1.5,0.7
			c0.6,0,1.1-0.2,1.5-0.7c0.4-0.5,0.6-1.2,0.6-2.3c0-1-0.2-1.7-0.6-2.2c-0.4-0.5-0.9-0.7-1.4-0.7c-0.5,0-1,0.3-1.5,0.8
			C581.1,413.1,580.9,413.9,580.9,414.9z M587.8,418.6V411h1.2v1.1c0.3-0.5,0.6-0.9,0.8-1c0.3-0.2,0.5-0.3,0.8-0.3
			c0.4,0,0.9,0.1,1.3,0.4l-0.4,1.2c-0.3-0.2-0.6-0.3-1-0.3c-0.3,0-0.5,0.1-0.8,0.3c-0.2,0.2-0.4,0.4-0.5,0.7c-0.1,0.5-0.2,1-0.2,1.5
			v4H587.8z M597.9,416.2l1.3,0.2c-0.2,0.8-0.6,1.4-1.2,1.8c-0.6,0.4-1.3,0.6-2.2,0.6c-1.1,0-2-0.3-2.7-1c-0.6-0.7-1-1.7-1-2.9
			c0-1.3,0.3-2.3,1-3c0.7-0.7,1.5-1.1,2.6-1.1c1,0,1.8,0.3,2.5,1s1,1.7,1,2.9c0,0.1,0,0.2,0,0.3h-5.7c0,0.8,0.3,1.5,0.7,1.9
			c0.4,0.4,1,0.7,1.6,0.7c0.5,0,0.9-0.1,1.2-0.4C597.5,417.1,597.7,416.7,597.9,416.2z M593.7,414.1h4.3c-0.1-0.6-0.2-1.1-0.5-1.4
			c-0.4-0.5-1-0.8-1.6-0.8c-0.6,0-1.1,0.2-1.5,0.6C594,412.9,593.8,413.4,593.7,414.1z M600.4,416.3l1.3-0.2
			c0.1,0.5,0.3,0.9,0.6,1.2c0.3,0.3,0.8,0.4,1.4,0.4c0.6,0,1-0.1,1.3-0.4c0.3-0.2,0.4-0.5,0.4-0.8c0-0.3-0.1-0.5-0.4-0.7
			c-0.2-0.1-0.6-0.3-1.3-0.4c-0.9-0.2-1.6-0.4-2-0.6c-0.4-0.2-0.6-0.4-0.8-0.7s-0.3-0.7-0.3-1c0-0.3,0.1-0.7,0.2-0.9
			c0.2-0.3,0.4-0.5,0.6-0.7c0.2-0.1,0.5-0.3,0.8-0.4c0.4-0.1,0.7-0.2,1.1-0.2c0.6,0,1.1,0.1,1.6,0.3c0.4,0.2,0.8,0.4,1,0.7
			c0.2,0.3,0.4,0.7,0.4,1.2l-1.3,0.2c-0.1-0.4-0.2-0.7-0.5-0.9c-0.3-0.2-0.7-0.3-1.2-0.3c-0.6,0-1,0.1-1.3,0.3
			c-0.3,0.2-0.4,0.4-0.4,0.7c0,0.2,0.1,0.3,0.2,0.5c0.1,0.1,0.3,0.3,0.5,0.3c0.1,0.1,0.5,0.2,1.1,0.3c0.9,0.2,1.5,0.4,1.9,0.6
			c0.4,0.2,0.7,0.4,0.9,0.7c0.2,0.3,0.3,0.7,0.3,1.1c0,0.4-0.1,0.8-0.4,1.2c-0.3,0.4-0.6,0.7-1.1,0.9c-0.5,0.2-1,0.3-1.6,0.3
			c-1,0-1.7-0.2-2.3-0.6C600.8,417.8,600.5,417.1,600.4,416.3z M607.7,416.3l1.3-0.2c0.1,0.5,0.3,0.9,0.6,1.2
			c0.3,0.3,0.8,0.4,1.4,0.4c0.6,0,1-0.1,1.3-0.4c0.3-0.2,0.4-0.5,0.4-0.8c0-0.3-0.1-0.5-0.4-0.7c-0.2-0.1-0.6-0.3-1.3-0.4
			c-0.9-0.2-1.6-0.4-2-0.6c-0.4-0.2-0.6-0.4-0.8-0.7s-0.3-0.7-0.3-1c0-0.3,0.1-0.7,0.2-0.9c0.2-0.3,0.4-0.5,0.6-0.7
			c0.2-0.1,0.5-0.3,0.8-0.4c0.4-0.1,0.7-0.2,1.1-0.2c0.6,0,1.1,0.1,1.6,0.3c0.4,0.2,0.8,0.4,1,0.7c0.2,0.3,0.4,0.7,0.4,1.2l-1.3,0.2
			c-0.1-0.4-0.2-0.7-0.5-0.9c-0.3-0.2-0.7-0.3-1.2-0.3c-0.6,0-1,0.1-1.3,0.3c-0.3,0.2-0.4,0.4-0.4,0.7c0,0.2,0.1,0.3,0.2,0.5
			c0.1,0.1,0.3,0.3,0.5,0.3c0.1,0.1,0.5,0.2,1.1,0.3c0.9,0.2,1.5,0.4,1.9,0.6c0.4,0.2,0.7,0.4,0.9,0.7c0.2,0.3,0.3,0.7,0.3,1.1
			c0,0.4-0.1,0.8-0.4,1.2c-0.3,0.4-0.6,0.7-1.1,0.9c-0.5,0.2-1,0.3-1.6,0.3c-1,0-1.7-0.2-2.3-0.6
			C608.2,417.8,607.8,417.1,607.7,416.3z M615.1,414.8c0-1.4,0.4-2.4,1.2-3.1c0.7-0.6,1.5-0.8,2.4-0.8c1.1,0,1.9,0.3,2.6,1
			c0.7,0.7,1,1.6,1,2.8c0,1-0.1,1.8-0.4,2.3c-0.3,0.6-0.7,1-1.3,1.3s-1.2,0.5-1.8,0.5c-1.1,0-1.9-0.3-2.6-1
			C615.4,417.1,615.1,416.1,615.1,414.8z M616.4,414.8c0,1,0.2,1.7,0.6,2.2c0.4,0.5,1,0.7,1.6,0.7s1.2-0.2,1.6-0.7
			c0.4-0.5,0.6-1.2,0.6-2.2c0-0.9-0.2-1.6-0.6-2.1c-0.4-0.5-1-0.7-1.6-0.7c-0.6,0-1.2,0.2-1.6,0.7
			C616.6,413.1,616.4,413.8,616.4,414.8z M623.7,418.6V411h1.2v1.1c0.3-0.5,0.6-0.9,0.8-1c0.3-0.2,0.5-0.3,0.8-0.3
			c0.4,0,0.9,0.1,1.3,0.4l-0.4,1.2c-0.3-0.2-0.6-0.3-1-0.3c-0.3,0-0.5,0.1-0.8,0.3c-0.2,0.2-0.4,0.4-0.5,0.7c-0.1,0.5-0.2,1-0.2,1.5
			v4H623.7z"/>
		<path class="st4" d="M360.1,24.4h136.6v35.7H360.1V24.4z"/>
		<path d="M377.7,43.8l1.4,0.3c-0.3,1.1-0.8,2-1.6,2.6c-0.8,0.6-1.7,0.9-2.8,0.9c-1.1,0-2-0.2-2.8-0.7c-0.7-0.5-1.3-1.1-1.6-2
			c-0.4-0.9-0.5-1.8-0.5-2.8c0-1.1,0.2-2,0.6-2.9c0.4-0.8,1-1.4,1.8-1.8c0.8-0.4,1.6-0.6,2.5-0.6c1,0,1.9,0.3,2.6,0.8
			c0.7,0.5,1.2,1.3,1.5,2.3l-1.4,0.3c-0.2-0.8-0.6-1.3-1.1-1.7c-0.5-0.4-1-0.5-1.7-0.5c-0.8,0-1.5,0.2-2,0.6
			c-0.5,0.4-0.9,0.9-1.1,1.6c-0.2,0.6-0.3,1.3-0.3,2c0,0.9,0.1,1.7,0.4,2.3c0.3,0.7,0.7,1.2,1.2,1.5c0.6,0.3,1.1,0.5,1.8,0.5
			c0.8,0,1.4-0.2,2-0.7C377.2,45.4,377.5,44.7,377.7,43.8z M380.8,47.5V37h4.6c0.9,0,1.7,0.1,2.1,0.3s0.9,0.5,1.2,1
			c0.3,0.5,0.4,1,0.4,1.6c0,0.7-0.2,1.4-0.7,1.9c-0.5,0.5-1.2,0.8-2.2,1c0.4,0.2,0.7,0.3,0.8,0.5c0.4,0.4,0.8,0.8,1.2,1.4l1.8,2.9
			h-1.7l-1.4-2.2c-0.4-0.6-0.7-1.1-1-1.4c-0.3-0.3-0.5-0.6-0.7-0.7c-0.2-0.1-0.4-0.2-0.6-0.3c-0.2,0-0.4,0-0.8,0h-1.6v4.7H380.8z
			 M382.2,41.6h3c0.6,0,1.1-0.1,1.5-0.2c0.4-0.1,0.6-0.3,0.8-0.6c0.2-0.3,0.3-0.6,0.3-0.9c0-0.5-0.2-0.9-0.5-1.2
			c-0.4-0.3-0.9-0.5-1.7-0.5h-3.3V41.6z M391.4,47.5V37h7.6v1.2h-6.2v3.2h5.8v1.2h-5.8v3.6h6.4v1.2H391.4z M401.2,47.5V37h7.6v1.2
			h-6.2v3.2h5.8v1.2h-5.8v3.6h6.4v1.2H401.2z M418.4,43.8l1.4,0.3c-0.3,1.1-0.8,2-1.6,2.6c-0.8,0.6-1.7,0.9-2.8,0.9
			c-1.1,0-2-0.2-2.8-0.7c-0.7-0.5-1.3-1.1-1.6-2c-0.4-0.9-0.5-1.8-0.5-2.8c0-1.1,0.2-2,0.6-2.9s1-1.4,1.8-1.8
			c0.8-0.4,1.6-0.6,2.5-0.6c1,0,1.9,0.3,2.6,0.8c0.7,0.5,1.2,1.3,1.5,2.3l-1.4,0.3c-0.2-0.8-0.6-1.3-1.1-1.7c-0.5-0.4-1-0.5-1.7-0.5
			c-0.8,0-1.5,0.2-2,0.6c-0.5,0.4-0.9,0.9-1.1,1.6c-0.2,0.6-0.3,1.3-0.3,2c0,0.9,0.1,1.7,0.4,2.3c0.3,0.7,0.7,1.2,1.2,1.5
			c0.6,0.3,1.1,0.5,1.8,0.5c0.8,0,1.4-0.2,2-0.7C417.9,45.4,418.2,44.7,418.4,43.8z M421.5,47.5V37h3.9c0.8,0,1.4,0.1,1.9,0.3
			c0.5,0.2,0.9,0.5,1.1,1c0.3,0.4,0.4,0.9,0.4,1.4c0,0.4-0.1,0.9-0.4,1.3c-0.2,0.4-0.6,0.7-1.1,1c0.6,0.2,1.1,0.5,1.5,1
			c0.3,0.4,0.5,1,0.5,1.6c0,0.5-0.1,1-0.3,1.4c-0.2,0.4-0.5,0.7-0.8,1c-0.3,0.2-0.7,0.4-1.1,0.5c-0.5,0.1-1,0.2-1.7,0.2H421.5z
			 M422.9,41.4h2.3c0.6,0,1.1,0,1.3-0.1c0.4-0.1,0.6-0.3,0.8-0.5c0.2-0.3,0.3-0.6,0.3-0.9c0-0.4-0.1-0.7-0.3-0.9
			c-0.2-0.3-0.4-0.4-0.7-0.5c-0.3-0.1-0.8-0.2-1.6-0.2h-2.1V41.4z M422.9,46.3h2.6c0.4,0,0.8,0,0.9,0c0.3-0.1,0.6-0.2,0.8-0.3
			c0.2-0.1,0.4-0.3,0.5-0.6c0.1-0.3,0.2-0.6,0.2-0.9c0-0.4-0.1-0.7-0.3-1c-0.2-0.3-0.5-0.5-0.8-0.6c-0.4-0.1-0.9-0.2-1.5-0.2h-2.4
			V46.3z M436.1,47.5v-1.1c-0.6,0.9-1.4,1.3-2.4,1.3c-0.4,0-0.9-0.1-1.3-0.3c-0.4-0.2-0.7-0.4-0.9-0.7c-0.2-0.3-0.3-0.6-0.4-1
			c-0.1-0.3-0.1-0.7-0.1-1.2v-4.7h1.3v4.2c0,0.7,0,1.1,0.1,1.4c0.1,0.3,0.3,0.6,0.5,0.8c0.3,0.2,0.6,0.3,1,0.3s0.7-0.1,1.1-0.3
			c0.3-0.2,0.6-0.5,0.7-0.8c0.1-0.3,0.2-0.8,0.2-1.5v-4.1h1.3v7.6H436.1z M438.8,45.2L440,45c0.1,0.5,0.3,0.9,0.6,1.2
			c0.3,0.3,0.8,0.4,1.4,0.4c0.6,0,1-0.1,1.3-0.4c0.3-0.2,0.4-0.5,0.4-0.8c0-0.3-0.1-0.5-0.4-0.7c-0.2-0.1-0.6-0.3-1.3-0.4
			c-0.9-0.2-1.6-0.4-2-0.6c-0.4-0.2-0.6-0.4-0.8-0.7s-0.3-0.7-0.3-1c0-0.3,0.1-0.7,0.2-0.9c0.2-0.3,0.4-0.5,0.6-0.7
			c0.2-0.1,0.5-0.3,0.8-0.4c0.4-0.1,0.7-0.2,1.1-0.2c0.6,0,1.1,0.1,1.6,0.3c0.4,0.2,0.8,0.4,1,0.7c0.2,0.3,0.4,0.7,0.4,1.2l-1.3,0.2
			c-0.1-0.4-0.2-0.7-0.5-0.9c-0.3-0.2-0.7-0.3-1.2-0.3c-0.6,0-1,0.1-1.3,0.3c-0.3,0.2-0.4,0.4-0.4,0.7c0,0.2,0.1,0.3,0.2,0.5
			c0.1,0.1,0.3,0.3,0.5,0.3c0.1,0.1,0.5,0.2,1.1,0.3c0.9,0.2,1.5,0.4,1.9,0.6c0.4,0.2,0.7,0.4,0.9,0.7c0.2,0.3,0.3,0.7,0.3,1.1
			c0,0.4-0.1,0.8-0.4,1.2c-0.3,0.4-0.6,0.7-1.1,0.9c-0.5,0.2-1,0.3-1.6,0.3c-1,0-1.7-0.2-2.3-0.6C439.3,46.6,438.9,46,438.8,45.2z
			 M450.7,38.5V37h1.3v1.5H450.7z M450.7,47.5v-7.6h1.3v7.6H450.7z M454,47.5v-7.6h1.2V41c0.6-0.8,1.4-1.3,2.4-1.3
			c0.5,0,0.9,0.1,1.3,0.3c0.4,0.2,0.7,0.4,0.9,0.6c0.2,0.3,0.3,0.6,0.4,1c0,0.2,0.1,0.7,0.1,1.3v4.7h-1.3v-4.6
			c0-0.5-0.1-0.9-0.2-1.2c-0.1-0.3-0.3-0.5-0.5-0.6c-0.3-0.2-0.5-0.2-0.9-0.2c-0.5,0-1,0.2-1.4,0.5c-0.4,0.3-0.6,1-0.6,2v4.2H454z"
			/>
		<path class="st4" d="M360.1,395.7h136.6v35.7H360.1V395.7z"/>
		<path d="M377.7,415.1l1.4,0.3c-0.3,1.1-0.8,2-1.6,2.6c-0.8,0.6-1.7,0.9-2.8,0.9c-1.1,0-2-0.2-2.8-0.7c-0.7-0.5-1.3-1.1-1.6-2
			c-0.4-0.9-0.5-1.8-0.5-2.8c0-1.1,0.2-2,0.6-2.9c0.4-0.8,1-1.4,1.8-1.8c0.8-0.4,1.6-0.6,2.5-0.6c1,0,1.9,0.3,2.6,0.8
			c0.7,0.5,1.2,1.3,1.5,2.3l-1.4,0.3c-0.2-0.8-0.6-1.3-1.1-1.7c-0.5-0.4-1-0.5-1.7-0.5c-0.8,0-1.5,0.2-2,0.6
			c-0.5,0.4-0.9,0.9-1.1,1.6c-0.2,0.6-0.3,1.3-0.3,2c0,0.9,0.1,1.7,0.4,2.3c0.3,0.7,0.7,1.2,1.2,1.5c0.6,0.3,1.1,0.5,1.8,0.5
			c0.8,0,1.4-0.2,2-0.7C377.2,416.6,377.5,415.9,377.7,415.1z M380.8,418.7v-10.5h4.6c0.9,0,1.7,0.1,2.1,0.3s0.9,0.5,1.2,1
			c0.3,0.5,0.4,1,0.4,1.6c0,0.7-0.2,1.4-0.7,1.9c-0.5,0.5-1.2,0.8-2.2,1c0.4,0.2,0.7,0.3,0.8,0.5c0.4,0.4,0.8,0.8,1.2,1.4l1.8,2.9
			h-1.7l-1.4-2.2c-0.4-0.6-0.7-1.1-1-1.4c-0.3-0.3-0.5-0.6-0.7-0.7c-0.2-0.1-0.4-0.2-0.6-0.3c-0.2,0-0.4,0-0.8,0h-1.6v4.7H380.8z
			 M382.2,412.9h3c0.6,0,1.1-0.1,1.5-0.2c0.4-0.1,0.6-0.3,0.8-0.6c0.2-0.3,0.3-0.6,0.3-0.9c0-0.5-0.2-0.9-0.5-1.2
			c-0.4-0.3-0.9-0.5-1.7-0.5h-3.3V412.9z M391.4,418.7v-10.5h7.6v1.2h-6.2v3.2h5.8v1.2h-5.8v3.6h6.4v1.2H391.4z M401.2,418.7v-10.5
			h7.6v1.2h-6.2v3.2h5.8v1.2h-5.8v3.6h6.4v1.2H401.2z M418.4,415.1l1.4,0.3c-0.3,1.1-0.8,2-1.6,2.6c-0.8,0.6-1.7,0.9-2.8,0.9
			c-1.1,0-2-0.2-2.8-0.7c-0.7-0.5-1.3-1.1-1.6-2c-0.4-0.9-0.5-1.8-0.5-2.8c0-1.1,0.2-2,0.6-2.9s1-1.4,1.8-1.8
			c0.8-0.4,1.6-0.6,2.5-0.6c1,0,1.9,0.3,2.6,0.8c0.7,0.5,1.2,1.3,1.5,2.3l-1.4,0.3c-0.2-0.8-0.6-1.3-1.1-1.7c-0.5-0.4-1-0.5-1.7-0.5
			c-0.8,0-1.5,0.2-2,0.6c-0.5,0.4-0.9,0.9-1.1,1.6c-0.2,0.6-0.3,1.3-0.3,2c0,0.9,0.1,1.7,0.4,2.3c0.3,0.7,0.7,1.2,1.2,1.5
			c0.6,0.3,1.1,0.5,1.8,0.5c0.8,0,1.4-0.2,2-0.7C417.9,416.6,418.2,415.9,418.4,415.1z M421.5,418.7v-10.5h3.9
			c0.8,0,1.4,0.1,1.9,0.3c0.5,0.2,0.9,0.5,1.1,1c0.3,0.4,0.4,0.9,0.4,1.4c0,0.4-0.1,0.9-0.4,1.3c-0.2,0.4-0.6,0.7-1.1,1
			c0.6,0.2,1.1,0.5,1.5,1c0.3,0.4,0.5,1,0.5,1.6c0,0.5-0.1,1-0.3,1.4c-0.2,0.4-0.5,0.7-0.8,1c-0.3,0.2-0.7,0.4-1.1,0.5
			c-0.5,0.1-1,0.2-1.7,0.2H421.5z M422.9,412.7h2.3c0.6,0,1.1,0,1.3-0.1c0.4-0.1,0.6-0.3,0.8-0.5c0.2-0.3,0.3-0.6,0.3-0.9
			c0-0.4-0.1-0.7-0.3-0.9c-0.2-0.3-0.4-0.4-0.7-0.5c-0.3-0.1-0.8-0.2-1.6-0.2h-2.1V412.7z M422.9,417.5h2.6c0.4,0,0.8,0,0.9,0
			c0.3-0.1,0.6-0.2,0.8-0.3c0.2-0.1,0.4-0.3,0.5-0.6c0.1-0.3,0.2-0.6,0.2-0.9c0-0.4-0.1-0.7-0.3-1c-0.2-0.3-0.5-0.5-0.8-0.6
			c-0.4-0.1-0.9-0.2-1.5-0.2h-2.4V417.5z M436.1,418.7v-1.1c-0.6,0.9-1.4,1.3-2.4,1.3c-0.4,0-0.9-0.1-1.3-0.3
			c-0.4-0.2-0.7-0.4-0.9-0.7c-0.2-0.3-0.3-0.6-0.4-1c-0.1-0.3-0.1-0.7-0.1-1.2v-4.7h1.3v4.2c0,0.7,0,1.1,0.1,1.4
			c0.1,0.3,0.3,0.6,0.5,0.8c0.3,0.2,0.6,0.3,1,0.3s0.7-0.1,1.1-0.3c0.3-0.2,0.6-0.5,0.7-0.8c0.1-0.3,0.2-0.8,0.2-1.5v-4.1h1.3v7.6
			H436.1z M438.8,416.5l1.3-0.2c0.1,0.5,0.3,0.9,0.6,1.2c0.3,0.3,0.8,0.4,1.4,0.4c0.6,0,1-0.1,1.3-0.4c0.3-0.2,0.4-0.5,0.4-0.8
			c0-0.3-0.1-0.5-0.4-0.7c-0.2-0.1-0.6-0.3-1.3-0.4c-0.9-0.2-1.6-0.4-2-0.6c-0.4-0.2-0.6-0.4-0.8-0.7s-0.3-0.7-0.3-1
			c0-0.3,0.1-0.7,0.2-0.9c0.2-0.3,0.4-0.5,0.6-0.7c0.2-0.1,0.5-0.3,0.8-0.4c0.4-0.1,0.7-0.2,1.1-0.2c0.6,0,1.1,0.1,1.6,0.3
			c0.4,0.2,0.8,0.4,1,0.7c0.2,0.3,0.4,0.7,0.4,1.2l-1.3,0.2c-0.1-0.4-0.2-0.7-0.5-0.9c-0.3-0.2-0.7-0.3-1.2-0.3
			c-0.6,0-1,0.1-1.3,0.3c-0.3,0.2-0.4,0.4-0.4,0.7c0,0.2,0.1,0.3,0.2,0.5c0.1,0.1,0.3,0.3,0.5,0.3c0.1,0.1,0.5,0.2,1.1,0.3
			c0.9,0.2,1.5,0.4,1.9,0.6c0.4,0.2,0.7,0.4,0.9,0.7c0.2,0.3,0.3,0.7,0.3,1.1c0,0.4-0.1,0.8-0.4,1.2c-0.3,0.4-0.6,0.7-1.1,0.9
			c-0.5,0.2-1,0.3-1.6,0.3c-1,0-1.7-0.2-2.3-0.6C439.3,417.9,438.9,417.3,438.8,416.5z M450.2,414.9c0-1.4,0.4-2.4,1.2-3.1
			c0.7-0.6,1.5-0.8,2.4-0.8c1.1,0,1.9,0.3,2.6,1c0.7,0.7,1,1.6,1,2.8c0,1-0.1,1.8-0.4,2.3c-0.3,0.6-0.7,1-1.3,1.3s-1.2,0.5-1.8,0.5
			c-1.1,0-1.9-0.3-2.6-1C450.5,417.2,450.2,416.2,450.2,414.9z M451.5,414.9c0,1,0.2,1.7,0.6,2.2c0.4,0.5,1,0.7,1.6,0.7
			c0.6,0,1.2-0.2,1.6-0.7c0.4-0.5,0.6-1.2,0.6-2.2c0-0.9-0.2-1.6-0.6-2.1c-0.4-0.5-1-0.7-1.6-0.7c-0.6,0-1.2,0.2-1.6,0.7
			C451.8,413.2,451.5,414,451.5,414.9z M463.8,418.7v-1.1c-0.6,0.9-1.4,1.3-2.4,1.3c-0.4,0-0.9-0.1-1.3-0.3
			c-0.4-0.2-0.7-0.4-0.9-0.7c-0.2-0.3-0.3-0.6-0.4-1c-0.1-0.3-0.1-0.7-0.1-1.2v-4.7h1.3v4.2c0,0.7,0,1.1,0.1,1.4
			c0.1,0.3,0.3,0.6,0.5,0.8c0.3,0.2,0.6,0.3,1,0.3c0.4,0,0.7-0.1,1.1-0.3c0.3-0.2,0.6-0.5,0.7-0.8c0.1-0.3,0.2-0.8,0.2-1.5v-4.1h1.3
			v7.6H463.8z M469.8,417.6l0.2,1.1c-0.4,0.1-0.7,0.1-1,0.1c-0.5,0-0.8-0.1-1.1-0.2c-0.3-0.1-0.4-0.3-0.5-0.6
			c-0.1-0.2-0.2-0.7-0.2-1.5v-4.4h-1v-1h1v-1.9l1.3-0.8v2.7h1.3v1h-1.3v4.4c0,0.4,0,0.6,0.1,0.7c0.1,0.1,0.1,0.2,0.2,0.3
			c0.1,0.1,0.3,0.1,0.5,0.1C469.4,417.6,469.6,417.6,469.8,417.6z"/>
		<path class="st4" d="M562.3,438.4h136.6v35.7H562.3V438.4z"/>
		<path d="M572.4,461.5V451h4.6c0.9,0,1.7,0.1,2.1,0.3c0.5,0.2,0.9,0.5,1.2,1c0.3,0.5,0.4,1,0.4,1.6c0,0.7-0.2,1.4-0.7,1.9
			c-0.5,0.5-1.2,0.8-2.2,1c0.4,0.2,0.7,0.3,0.8,0.5c0.4,0.4,0.8,0.8,1.2,1.4l1.8,2.9h-1.7l-1.4-2.2c-0.4-0.6-0.7-1.1-1-1.4
			c-0.3-0.3-0.5-0.6-0.7-0.7c-0.2-0.1-0.4-0.2-0.6-0.3c-0.2,0-0.4,0-0.8,0h-1.6v4.7H572.4z M573.8,455.6h3c0.6,0,1.1-0.1,1.5-0.2
			c0.4-0.1,0.6-0.3,0.8-0.6s0.3-0.6,0.3-0.9c0-0.5-0.2-0.9-0.5-1.2c-0.4-0.3-0.9-0.5-1.7-0.5h-3.3V455.6z M588,459l1.3,0.2
			c-0.2,0.8-0.6,1.4-1.2,1.8c-0.6,0.4-1.3,0.6-2.2,0.6c-1.1,0-2-0.3-2.7-1c-0.6-0.7-1-1.7-1-2.9c0-1.3,0.3-2.3,1-3
			c0.7-0.7,1.5-1.1,2.6-1.1c1,0,1.8,0.3,2.5,1s1,1.7,1,2.9c0,0.1,0,0.2,0,0.3h-5.7c0,0.8,0.3,1.5,0.7,1.9c0.4,0.4,1,0.7,1.6,0.7
			c0.5,0,0.9-0.1,1.2-0.4C587.6,460,587.8,459.6,588,459z M583.8,456.9h4.3c-0.1-0.6-0.2-1.1-0.5-1.4c-0.4-0.5-1-0.8-1.6-0.8
			c-0.6,0-1.1,0.2-1.5,0.6S583.8,456.3,583.8,456.9z M595.9,460.5c-0.5,0.4-0.9,0.7-1.4,0.9s-0.9,0.3-1.4,0.3
			c-0.8,0-1.5-0.2-1.9-0.6s-0.7-0.9-0.7-1.6c0-0.4,0.1-0.7,0.3-1c0.2-0.3,0.4-0.6,0.7-0.8c0.3-0.2,0.6-0.3,0.9-0.4
			c0.3-0.1,0.6-0.1,1.1-0.2c1-0.1,1.8-0.3,2.3-0.5c0-0.2,0-0.3,0-0.3c0-0.5-0.1-0.9-0.4-1.1c-0.3-0.3-0.8-0.4-1.5-0.4
			c-0.6,0-1.1,0.1-1.4,0.3c-0.3,0.2-0.5,0.6-0.6,1.1l-1.3-0.2c0.1-0.5,0.3-1,0.6-1.3s0.6-0.6,1.1-0.8s1.1-0.3,1.7-0.3
			c0.7,0,1.2,0.1,1.6,0.2c0.4,0.1,0.7,0.3,0.9,0.6s0.3,0.5,0.4,0.9c0,0.2,0.1,0.6,0.1,1.2v1.7c0,1.2,0,2,0.1,2.3
			c0.1,0.3,0.2,0.6,0.3,0.9h-1.3C596.1,461.2,596,460.9,595.9,460.5z M595.8,457.6c-0.5,0.2-1.2,0.3-2.1,0.5
			c-0.5,0.1-0.9,0.2-1.1,0.3c-0.2,0.1-0.4,0.2-0.5,0.4c-0.1,0.2-0.2,0.4-0.2,0.6c0,0.3,0.1,0.6,0.4,0.9s0.6,0.3,1.1,0.3
			c0.5,0,0.9-0.1,1.3-0.3c0.4-0.2,0.7-0.5,0.9-0.9c0.1-0.3,0.2-0.7,0.2-1.3V457.6z M604.1,461.5v-1c-0.5,0.8-1.2,1.1-2.1,1.1
			c-0.6,0-1.2-0.2-1.7-0.5c-0.5-0.3-0.9-0.8-1.2-1.4c-0.3-0.6-0.4-1.3-0.4-2.1c0-0.8,0.1-1.4,0.4-2.1c0.3-0.6,0.6-1.1,1.1-1.4
			c0.5-0.3,1.1-0.5,1.7-0.5c0.5,0,0.9,0.1,1.2,0.3c0.4,0.2,0.6,0.4,0.9,0.7V451h1.3v10.5H604.1z M600,457.7c0,1,0.2,1.7,0.6,2.2
			c0.4,0.5,0.9,0.7,1.5,0.7c0.6,0,1-0.2,1.4-0.7c0.4-0.5,0.6-1.2,0.6-2.1c0-1-0.2-1.8-0.6-2.3c-0.4-0.5-0.9-0.7-1.5-0.7
			c-0.6,0-1,0.2-1.4,0.7C600.2,455.9,600,456.7,600,457.7z M611.5,461.5V451h4c0.7,0,1.2,0,1.6,0.1c0.5,0.1,0.9,0.2,1.3,0.5
			c0.4,0.2,0.6,0.6,0.8,1c0.2,0.4,0.3,0.9,0.3,1.4c0,0.9-0.3,1.6-0.9,2.3c-0.6,0.6-1.6,0.9-3.1,0.9h-2.7v4.3H611.5z M612.9,456h2.7
			c0.9,0,1.5-0.2,1.9-0.5s0.6-0.8,0.6-1.4c0-0.4-0.1-0.8-0.3-1.1s-0.5-0.5-0.9-0.6c-0.2-0.1-0.7-0.1-1.3-0.1h-2.7V456z M621.1,452.4
			V451h1.3v1.5H621.1z M621.1,461.5v-7.6h1.3v7.6H621.1z M624.4,464.4v-10.5h1.2v1c0.3-0.4,0.6-0.7,0.9-0.9c0.3-0.2,0.8-0.3,1.3-0.3
			c0.6,0,1.2,0.2,1.7,0.5s0.9,0.8,1.1,1.4c0.3,0.6,0.4,1.3,0.4,2c0,0.8-0.1,1.5-0.4,2.1c-0.3,0.6-0.7,1.1-1.2,1.4
			c-0.5,0.3-1.1,0.5-1.7,0.5c-0.4,0-0.8-0.1-1.2-0.3c-0.3-0.2-0.6-0.4-0.8-0.7v3.7H624.4z M625.5,457.7c0,1,0.2,1.7,0.6,2.2
			c0.4,0.5,0.9,0.7,1.5,0.7c0.6,0,1.1-0.2,1.5-0.7c0.4-0.5,0.6-1.2,0.6-2.3c0-1-0.2-1.7-0.6-2.2c-0.4-0.5-0.9-0.7-1.4-0.7
			c-0.5,0-1,0.3-1.5,0.8C625.8,456,625.5,456.7,625.5,457.7z M637.7,459l1.3,0.2c-0.2,0.8-0.6,1.4-1.2,1.8c-0.6,0.4-1.3,0.6-2.2,0.6
			c-1.1,0-2-0.3-2.7-1c-0.6-0.7-1-1.7-1-2.9c0-1.3,0.3-2.3,1-3c0.7-0.7,1.5-1.1,2.6-1.1c1,0,1.8,0.3,2.5,1s1,1.7,1,2.9
			c0,0.1,0,0.2,0,0.3h-5.7c0,0.8,0.3,1.5,0.7,1.9c0.4,0.4,1,0.7,1.6,0.7c0.5,0,0.9-0.1,1.2-0.4C637.3,460,637.5,459.6,637.7,459z
			 M633.5,456.9h4.3c-0.1-0.6-0.2-1.1-0.5-1.4c-0.4-0.5-1-0.8-1.6-0.8c-0.6,0-1.1,0.2-1.5,0.6S633.5,456.3,633.5,456.9z
			 M640.7,461.5V451h1.3v10.5H640.7z M643.9,452.4V451h1.3v1.5H643.9z M643.9,461.5v-7.6h1.3v7.6H643.9z M647.2,461.5v-7.6h1.2v1.1
			c0.6-0.8,1.4-1.3,2.4-1.3c0.5,0,0.9,0.1,1.3,0.3c0.4,0.2,0.7,0.4,0.9,0.6s0.3,0.6,0.4,1c0,0.2,0.1,0.7,0.1,1.3v4.7h-1.3v-4.6
			c0-0.5-0.1-0.9-0.2-1.2s-0.3-0.5-0.5-0.6c-0.3-0.2-0.5-0.2-0.9-0.2c-0.5,0-1,0.2-1.4,0.5c-0.4,0.3-0.6,1-0.6,2v4.2H647.2z
			 M660.6,459l1.3,0.2c-0.2,0.8-0.6,1.4-1.2,1.8c-0.6,0.4-1.3,0.6-2.2,0.6c-1.1,0-2-0.3-2.7-1c-0.6-0.7-1-1.7-1-2.9
			c0-1.3,0.3-2.3,1-3c0.7-0.7,1.5-1.1,2.6-1.1c1,0,1.8,0.3,2.5,1c0.6,0.7,1,1.7,1,2.9c0,0.1,0,0.2,0,0.3h-5.7c0,0.8,0.3,1.5,0.7,1.9
			c0.4,0.4,1,0.7,1.6,0.7c0.5,0,0.9-0.1,1.2-0.4C660.1,460,660.4,459.6,660.6,459z M656.3,456.9h4.3c-0.1-0.6-0.2-1.1-0.5-1.4
			c-0.4-0.5-1-0.8-1.6-0.8c-0.6,0-1.1,0.2-1.5,0.6S656.4,456.3,656.3,456.9z"/>
		<path class="st5" d="M477.6,37.3h30v-5l10,10l-10,10v-5h-30V37.3z"/>
		<path class="st6" d="M477.6,37.3h30v-5l10,10l-10,10v-5h-30V37.3z"/>
		<path class="st5" d="M585,63.5v21.4h5l-10,10l-10-10h5V63.5H585z"/>
		<path class="st6" d="M585,63.5v21.4h5l-10,10l-10-10h5V63.5H585z"/>
		<path class="st5" d="M585,137.7v21.4h5l-10,10l-10-10h5v-21.4H585z"/>
		<path class="st6" d="M585,137.7v21.4h5l-10,10l-10-10h5v-21.4H585z"/>
		<path class="st5" d="M585,212v21.4h5l-10,10l-10-10h5V212H585z"/>
		<path class="st6" d="M585,212v21.4h5l-10,10l-10-10h5V212H585z"/>
		<path class="st5" d="M585,286.2v21.4h5l-10,10l-10-10h5v-21.4H585z"/>
		<path class="st6" d="M585,286.2v21.4h5l-10,10l-10-10h5v-21.4H585z"/>
		<path class="st5" d="M585,360.5v21.4h5l-10,10l-10-10h5v-21.4H585z"/>
		<path class="st6" d="M585,360.5v21.4h5l-10,10l-10-10h5v-21.4H585z"/>
		<path class="st5" d="M517.7,418.5h-30v5l-10-10l10-10v5h30V418.5z"/>
		<path class="st6" d="M517.7,418.5h-30v5l-10-10l10-10v5h30V418.5z"/>
	</g>
</g>
</svg>
