<?xml version="1.0" encoding="utf-8"?>
<!-- Generator: Adobe Illustrator 22.0.1, SVG Export Plug-In . SVG Version: 6.00 Build 0)  -->
<svg version="1.1" id="Layer_1" xmlns="http://www.w3.org/2000/svg" xmlns:xlink="http://www.w3.org/1999/xlink" x="0px" y="0px"
	 viewBox="0 0 223.3 158.9" style="enable-background:new 0 0 223.3 158.9;" xml:space="preserve">
<style type="text/css">
	.st0{clip-path:url(#SVGID_2_);}
	.st1{fill:#B6D7A8;}
	.st2{fill:none;stroke:#595959;stroke-linejoin:round;stroke-miterlimit:10;}
	.st3{fill-opacity:0;}
	.st4{fill:#595959;stroke:#595959;stroke-miterlimit:10;}
	.st5{fill:#A2C4C9;}
</style>
<g>
	<defs>
		<rect id="SVGID_1_" x="-16.2" y="-100.2" width="960" height="540"/>
	</defs>
	<clipPath id="SVGID_2_">
		<use xlink:href="#SVGID_1_"  style="overflow:visible;"/>
	</clipPath>
	<g class="st0">
		<path class="st1" d="M0.5,0.5h39.7v39.7H0.5V0.5z"/>
		<path class="st2" d="M0.5,0.5h39.7v39.7H0.5V0.5z"/>
		<path d="M12.1,23.2l1.4-0.2c0.2,0.8,0.4,1.4,0.8,1.7c0.4,0.3,0.9,0.5,1.4,0.5c0.7,0,1.2-0.2,1.7-0.7c0.5-0.5,0.7-1,0.7-1.7
			c0-0.6-0.2-1.2-0.6-1.6c-0.4-0.4-1-0.6-1.6-0.6c-0.3,0-0.6,0.1-1,0.2l0.2-1.2c0.1,0,0.2,0,0.2,0c0.6,0,1.1-0.2,1.6-0.5
			c0.5-0.3,0.7-0.8,0.7-1.5c0-0.5-0.2-0.9-0.5-1.3c-0.3-0.3-0.8-0.5-1.3-0.5c-0.6,0-1,0.2-1.4,0.5c-0.4,0.3-0.6,0.9-0.7,1.5
			l-1.4-0.3c0.2-0.9,0.6-1.7,1.2-2.2c0.6-0.5,1.4-0.8,2.3-0.8c0.6,0,1.2,0.1,1.7,0.4c0.5,0.3,0.9,0.6,1.2,1.1
			c0.3,0.5,0.4,0.9,0.4,1.5c0,0.5-0.1,1-0.4,1.4c-0.3,0.4-0.7,0.7-1.2,1c0.7,0.2,1.2,0.5,1.6,1c0.4,0.5,0.6,1.1,0.6,1.8
			c0,1-0.4,1.8-1.1,2.5c-0.7,0.7-1.7,1-2.8,1c-1,0-1.8-0.3-2.5-0.9C12.6,24.9,12.2,24.1,12.1,23.2z M21,20.5c0-1.4,0.1-2.4,0.4-3.3
			c0.3-0.8,0.7-1.5,1.3-1.9c0.6-0.4,1.2-0.7,2.1-0.7c0.6,0,1.2,0.1,1.6,0.4c0.5,0.2,0.9,0.6,1.2,1.1c0.3,0.5,0.5,1,0.7,1.7
			c0.2,0.7,0.3,1.6,0.3,2.7c0,1.3-0.1,2.4-0.4,3.3c-0.3,0.8-0.7,1.5-1.2,1.9c-0.6,0.4-1.2,0.7-2.1,0.7c-1.1,0-2-0.4-2.6-1.2
			C21.4,24.2,21,22.7,21,20.5z M22.4,20.5c0,1.9,0.2,3.1,0.7,3.8c0.4,0.6,1,0.9,1.6,0.9c0.6,0,1.2-0.3,1.6-0.9
			c0.4-0.6,0.7-1.9,0.7-3.8c0-1.9-0.2-3.1-0.7-3.8c-0.4-0.6-1-0.9-1.6-0.9c-0.6,0-1.2,0.3-1.5,0.8C22.7,17.4,22.4,18.7,22.4,20.5z"
			/>
		<path class="st1" d="M40.2,0.5h39.7v39.7H40.2V0.5z"/>
		<path class="st2" d="M40.2,0.5h39.7v39.7H40.2V0.5z"/>
		<path d="M51.8,23.2l1.4-0.2c0.2,0.8,0.4,1.4,0.8,1.7c0.4,0.3,0.9,0.5,1.4,0.5c0.7,0,1.2-0.2,1.7-0.7c0.5-0.5,0.7-1,0.7-1.7
			c0-0.6-0.2-1.2-0.6-1.6c-0.4-0.4-1-0.6-1.6-0.6c-0.3,0-0.6,0.1-1,0.2l0.2-1.2c0.1,0,0.2,0,0.2,0c0.6,0,1.1-0.2,1.6-0.5
			c0.5-0.3,0.7-0.8,0.7-1.5c0-0.5-0.2-0.9-0.5-1.3c-0.3-0.3-0.8-0.5-1.3-0.5c-0.6,0-1,0.2-1.4,0.5c-0.4,0.3-0.6,0.9-0.7,1.5
			l-1.4-0.3c0.2-0.9,0.6-1.7,1.2-2.2c0.6-0.5,1.4-0.8,2.3-0.8c0.6,0,1.2,0.1,1.7,0.4c0.5,0.3,0.9,0.6,1.2,1.1
			c0.3,0.5,0.4,0.9,0.4,1.5c0,0.5-0.1,1-0.4,1.4c-0.3,0.4-0.7,0.7-1.2,1c0.7,0.2,1.2,0.5,1.6,1c0.4,0.5,0.6,1.1,0.6,1.8
			c0,1-0.4,1.8-1.1,2.5c-0.7,0.7-1.7,1-2.8,1c-1,0-1.8-0.3-2.5-0.9C52.2,24.9,51.8,24.1,51.8,23.2z M65.9,26.2h-1.4v-9
			c-0.3,0.3-0.8,0.6-1.3,1c-0.5,0.3-1,0.6-1.5,0.7v-1.4c0.8-0.4,1.5-0.8,2-1.3c0.6-0.5,1-1,1.3-1.5h0.9V26.2z"/>
		<path class="st1" d="M79.8,0.5h39.7v39.7H79.8V0.5z"/>
		<path class="st2" d="M79.8,0.5h39.7v39.7H79.8V0.5z"/>
		<path d="M91.4,23.2l1.4-0.2c0.2,0.8,0.4,1.4,0.8,1.7c0.4,0.3,0.9,0.5,1.4,0.5c0.7,0,1.2-0.2,1.7-0.7c0.5-0.5,0.7-1,0.7-1.7
			c0-0.6-0.2-1.2-0.6-1.6c-0.4-0.4-1-0.6-1.6-0.6c-0.3,0-0.6,0.1-1,0.2l0.2-1.2c0.1,0,0.2,0,0.2,0c0.6,0,1.1-0.2,1.6-0.5
			c0.5-0.3,0.7-0.8,0.7-1.5c0-0.5-0.2-0.9-0.5-1.3C96,16,95.6,15.8,95,15.8c-0.6,0-1,0.2-1.4,0.5c-0.4,0.3-0.6,0.9-0.7,1.5l-1.4-0.3
			c0.2-0.9,0.6-1.7,1.2-2.2c0.6-0.5,1.4-0.8,2.3-0.8c0.6,0,1.2,0.1,1.7,0.4c0.5,0.3,0.9,0.6,1.2,1.1c0.3,0.5,0.4,0.9,0.4,1.5
			c0,0.5-0.1,1-0.4,1.4c-0.3,0.4-0.7,0.7-1.2,1c0.7,0.2,1.2,0.5,1.6,1c0.4,0.5,0.6,1.1,0.6,1.8c0,1-0.4,1.8-1.1,2.5
			c-0.7,0.7-1.7,1-2.8,1c-1,0-1.8-0.3-2.5-0.9C91.9,24.9,91.5,24.1,91.4,23.2z M100.3,23.2l1.5-0.1c0.1,0.7,0.4,1.3,0.8,1.6
			c0.4,0.4,0.9,0.5,1.4,0.5c0.7,0,1.3-0.3,1.7-0.8c0.5-0.5,0.7-1.2,0.7-2c0-0.8-0.2-1.4-0.7-1.9c-0.4-0.5-1-0.7-1.8-0.7
			c-0.5,0-0.9,0.1-1.2,0.3c-0.4,0.2-0.7,0.5-0.9,0.8l-1.3-0.2l1.1-5.9h5.7v1.3h-4.6l-0.6,3.1c0.7-0.5,1.4-0.7,2.2-0.7
			c1,0,1.8,0.3,2.5,1c0.7,0.7,1,1.6,1,2.7c0,1-0.3,1.9-0.9,2.7c-0.7,0.9-1.7,1.4-3,1.4c-1,0-1.9-0.3-2.5-0.9
			C100.8,24.9,100.4,24.1,100.3,23.2z"/>
		<path class="st1" d="M119.5,0.5h39.7v39.7h-39.7V0.5z"/>
		<path class="st2" d="M119.5,0.5h39.7v39.7h-39.7V0.5z"/>
		<path d="M131.1,23.2l1.4-0.2c0.2,0.8,0.4,1.4,0.8,1.7c0.4,0.3,0.9,0.5,1.4,0.5c0.7,0,1.2-0.2,1.7-0.7c0.5-0.5,0.7-1,0.7-1.7
			c0-0.6-0.2-1.2-0.6-1.6c-0.4-0.4-1-0.6-1.6-0.6c-0.3,0-0.6,0.1-1,0.2l0.2-1.2c0.1,0,0.2,0,0.2,0c0.6,0,1.1-0.2,1.6-0.5
			c0.5-0.3,0.7-0.8,0.7-1.5c0-0.5-0.2-0.9-0.5-1.3c-0.3-0.3-0.8-0.5-1.3-0.5c-0.6,0-1,0.2-1.4,0.5c-0.4,0.3-0.6,0.9-0.7,1.5
			l-1.4-0.3c0.2-0.9,0.6-1.7,1.2-2.2c0.6-0.5,1.4-0.8,2.3-0.8c0.6,0,1.2,0.1,1.7,0.4c0.5,0.3,0.9,0.6,1.2,1.1
			c0.3,0.5,0.4,0.9,0.4,1.5c0,0.5-0.1,1-0.4,1.4c-0.3,0.4-0.7,0.7-1.2,1c0.7,0.2,1.2,0.5,1.6,1c0.4,0.5,0.6,1.1,0.6,1.8
			c0,1-0.4,1.8-1.1,2.5c-0.7,0.7-1.7,1-2.8,1c-1,0-1.8-0.3-2.5-0.9C131.5,24.9,131.2,24.1,131.1,23.2z M147.3,24.8v1.4h-7.6
			c0-0.3,0-0.7,0.2-1c0.2-0.5,0.5-1,0.9-1.5c0.4-0.5,1-1.1,1.8-1.7c1.2-1,2.1-1.8,2.5-2.4c0.4-0.6,0.7-1.2,0.7-1.7
			c0-0.6-0.2-1-0.6-1.4c-0.4-0.4-0.9-0.6-1.6-0.6c-0.7,0-1.2,0.2-1.6,0.6c-0.4,0.4-0.6,1-0.6,1.7L140,18c0.1-1.1,0.5-1.9,1.1-2.5
			c0.6-0.6,1.5-0.8,2.6-0.8c1.1,0,2,0.3,2.6,0.9c0.6,0.6,1,1.4,1,2.3c0,0.5-0.1,0.9-0.3,1.4c-0.2,0.4-0.5,0.9-0.9,1.4
			c-0.4,0.5-1.2,1.2-2.2,2c-0.8,0.7-1.4,1.2-1.6,1.5c-0.2,0.2-0.4,0.5-0.6,0.8H147.3z"/>
		<path class="st1" d="M0.5,118.7h39.7v39.7H0.5V118.7z"/>
		<path class="st2" d="M0.5,118.7h39.7v39.7H0.5V118.7z"/>
		<path d="M12.1,141.4l1.4-0.2c0.2,0.8,0.4,1.4,0.8,1.7c0.4,0.3,0.9,0.5,1.4,0.5c0.7,0,1.2-0.2,1.7-0.7s0.7-1,0.7-1.7
			c0-0.6-0.2-1.2-0.6-1.6c-0.4-0.4-1-0.6-1.6-0.6c-0.3,0-0.6,0.1-1,0.2l0.2-1.2c0.1,0,0.2,0,0.2,0c0.6,0,1.1-0.2,1.6-0.5
			s0.7-0.8,0.7-1.5c0-0.5-0.2-0.9-0.5-1.3c-0.3-0.3-0.8-0.5-1.3-0.5c-0.6,0-1,0.2-1.4,0.5c-0.4,0.3-0.6,0.9-0.7,1.5l-1.4-0.3
			c0.2-0.9,0.6-1.7,1.2-2.2c0.6-0.5,1.4-0.8,2.3-0.8c0.6,0,1.2,0.1,1.7,0.4c0.5,0.3,0.9,0.6,1.2,1.1c0.3,0.5,0.4,0.9,0.4,1.5
			c0,0.5-0.1,1-0.4,1.4c-0.3,0.4-0.7,0.7-1.2,1c0.7,0.2,1.2,0.5,1.6,1s0.6,1.1,0.6,1.8c0,1-0.4,1.8-1.1,2.5s-1.7,1-2.8,1
			c-1,0-1.8-0.3-2.5-0.9C12.6,143.1,12.2,142.4,12.1,141.4z M21,138.8c0-1.4,0.1-2.4,0.4-3.3c0.3-0.8,0.7-1.5,1.3-1.9
			s1.2-0.7,2.1-0.7c0.6,0,1.2,0.1,1.6,0.4c0.5,0.2,0.9,0.6,1.2,1.1s0.5,1,0.7,1.7c0.2,0.7,0.3,1.6,0.3,2.7c0,1.3-0.1,2.4-0.4,3.3
			c-0.3,0.8-0.7,1.5-1.2,1.9c-0.6,0.4-1.2,0.7-2.1,0.7c-1.1,0-2-0.4-2.6-1.2C21.4,142.5,21,140.9,21,138.8z M22.4,138.8
			c0,1.9,0.2,3.1,0.7,3.8c0.4,0.6,1,0.9,1.6,0.9s1.2-0.3,1.6-0.9s0.7-1.9,0.7-3.8c0-1.9-0.2-3.1-0.7-3.8c-0.4-0.6-1-0.9-1.6-0.9
			c-0.6,0-1.2,0.3-1.5,0.8C22.7,135.6,22.4,136.9,22.4,138.8z"/>
		<path class="st1" d="M40.2,118.7h39.7v39.7H40.2V118.7z"/>
		<path class="st2" d="M40.2,118.7h39.7v39.7H40.2V118.7z"/>
		<path d="M61.5,144.4h-1.4v-9c-0.3,0.3-0.8,0.6-1.3,1c-0.5,0.3-1,0.6-1.5,0.7v-1.4c0.8-0.4,1.5-0.8,2-1.3c0.6-0.5,1-1,1.3-1.5h0.9
			V144.4z"/>
		<path class="st1" d="M79.8,118.7h39.7v39.7H79.8V118.7z"/>
		<path class="st2" d="M79.8,118.7h39.7v39.7H79.8V118.7z"/>
		<path d="M100.4,144.4v-2.8h-5v-1.3l5.2-7.4h1.1v7.4h1.5v1.3h-1.5v2.8H100.4z M100.4,140.4v-5.2l-3.6,5.2H100.4z"/>
		<path class="st1" d="M119.5,118.7h39.7v39.7h-39.7V118.7z"/>
		<path class="st2" d="M119.5,118.7h39.7v39.7h-39.7V118.7z"/>
		<path d="M132.7,141v-1.4h4.3v1.4H132.7z M138.2,141.4l1.4-0.2c0.2,0.8,0.4,1.4,0.8,1.7c0.4,0.3,0.9,0.5,1.4,0.5
			c0.7,0,1.2-0.2,1.7-0.7s0.7-1,0.7-1.7c0-0.6-0.2-1.2-0.6-1.6c-0.4-0.4-1-0.6-1.6-0.6c-0.3,0-0.6,0.1-1,0.2l0.2-1.2
			c0.1,0,0.2,0,0.2,0c0.6,0,1.1-0.2,1.6-0.5s0.7-0.8,0.7-1.5c0-0.5-0.2-0.9-0.5-1.3c-0.3-0.3-0.8-0.5-1.3-0.5s-1,0.2-1.4,0.5
			s-0.6,0.9-0.7,1.5l-1.4-0.3c0.2-0.9,0.6-1.7,1.2-2.2c0.6-0.5,1.4-0.8,2.3-0.8c0.6,0,1.2,0.1,1.7,0.4c0.5,0.3,0.9,0.6,1.2,1.1
			c0.3,0.5,0.4,0.9,0.4,1.5c0,0.5-0.1,1-0.4,1.4c-0.3,0.4-0.7,0.7-1.2,1c0.7,0.2,1.2,0.5,1.6,1s0.6,1.1,0.6,1.8c0,1-0.4,1.8-1.1,2.5
			s-1.7,1-2.8,1c-1,0-1.8-0.3-2.5-0.9C138.6,143.1,138.3,142.4,138.2,141.4z"/>
		<path class="st3" d="M20.3,40.2v78.6"/>
		<path class="st2" d="M20.3,40.2v72.6"/>
		<path class="st4" d="M18.7,112.7l1.7,4.5l1.7-4.5H18.7z"/>
		<path class="st1" d="M159.1,0.5h39.7v39.7h-39.7V0.5z"/>
		<path class="st2" d="M159.1,0.5h39.7v39.7h-39.7V0.5z"/>
		<path d="M173.7,26.2v-1.6h1.6v1.6H173.7z M178.2,26.2v-1.6h1.6v1.6H178.2z M182.6,26.2v-1.6h1.6v1.6H182.6z"/>
		<path class="st1" d="M159.1,118.7h39.7v39.7h-39.7V118.7z"/>
		<path class="st2" d="M159.1,118.7h39.7v39.7h-39.7V118.7z"/>
		<path d="M173.7,144.4v-1.6h1.6v1.6H173.7z M178.2,144.4v-1.6h1.6v1.6H178.2z M182.6,144.4v-1.6h1.6v1.6H182.6z"/>
		<path class="st3" d="M20.3,40.2l33.3,32.9"/>
		<path class="st2" d="M20.3,40.2l29,28.7"/>
		<path class="st4" d="M48.2,70.1l4.4,2l-2.1-4.4L48.2,70.1z"/>
		<path class="st3" d="M60,40.2v30.3"/>
		<path class="st2" d="M60,40.2v24.3"/>
		<path class="st4" d="M58.3,64.5L60,69l1.7-4.5H58.3z"/>
		<path class="st3" d="M60,88.4v30.3"/>
		<path class="st2" d="M60,88.4v24.3"/>
		<path class="st4" d="M58.3,112.8l1.7,4.5l1.7-4.5H58.3z"/>
		<path class="st3" d="M60,40.2l33.3,32.9"/>
		<path class="st2" d="M60,40.2l29,28.7"/>
		<path class="st4" d="M87.8,70.1l4.4,2l-2.1-4.4L87.8,70.1z"/>
		<path class="st3" d="M99.6,40.1v30.3"/>
		<path class="st2" d="M99.6,40.1v24.3"/>
		<path class="st4" d="M98,64.5l1.7,4.5l1.7-4.5H98z"/>
		<path class="st3" d="M99.6,88.4v30.3"/>
		<path class="st2" d="M99.6,88.4v24.3"/>
		<path class="st4" d="M98,112.8l1.7,4.5l1.7-4.5H98z"/>
		<path class="st3" d="M99.6,40.2l33.3,32.9"/>
		<path class="st2" d="M99.6,40.2l29,28.7"/>
		<path class="st4" d="M127.5,70l4.4,2l-2.1-4.4L127.5,70z"/>
		<path class="st3" d="M139.3,40.1v30.3"/>
		<path class="st2" d="M139.3,40.1v24.3"/>
		<path class="st4" d="M137.6,64.5l1.7,4.5l1.7-4.5H137.6z"/>
		<path class="st3" d="M139.3,88.4v30.3"/>
		<path class="st2" d="M139.3,88.4v24.3"/>
		<path class="st4" d="M137.6,112.8l1.7,4.5l1.7-4.5H137.6z"/>
		<path class="st3" d="M139.3,40.2l33.3,32.9"/>
		<path class="st2" d="M139.3,40.2l29,28.7"/>
		<path class="st4" d="M167.2,70.1l4.4,2l-2.1-4.4L167.2,70.1z"/>
		<path class="st3" d="M178.9,40.1v30.3"/>
		<path class="st2" d="M178.9,40.1v24.3"/>
		<path class="st4" d="M177.3,64.5l1.7,4.5l1.7-4.5H177.3z"/>
		<path class="st3" d="M178.9,88.4v30.3"/>
		<path class="st2" d="M178.9,88.4v24.3"/>
		<path class="st4" d="M177.3,112.8l1.7,4.5l1.7-4.5H177.3z"/>
		<path class="st5" d="M51,79.4L51,79.4c0-5,4-9,9-9l0,0c2.4,0,4.7,0.9,6.3,2.6s2.6,4,2.6,6.3l0,0c0,5-4,9-9,9l0,0
			C55,88.4,51,84.4,51,79.4z"/>
		<path class="st2" d="M51,79.4L51,79.4c0-5,4-9,9-9l0,0c2.4,0,4.7,0.9,6.3,2.6s2.6,4,2.6,6.3l0,0c0,5-4,9-9,9l0,0
			C55,88.4,51,84.4,51,79.4z"/>
		<path class="st3" d="M40.2,40.2h39.6v78.6H40.2V40.2z"/>
		<path d="M57.8,80.1v-1.4h4.3v1.4H57.8z"/>
		<path class="st5" d="M90.6,79.4L90.6,79.4c0-5,4-9,9-9l0,0c2.4,0,4.7,0.9,6.3,2.6c1.7,1.7,2.6,4,2.6,6.3l0,0c0,5-4,9-9,9l0,0
			C94.7,88.4,90.6,84.4,90.6,79.4z"/>
		<path class="st2" d="M90.6,79.4L90.6,79.4c0-5,4-9,9-9l0,0c2.4,0,4.7,0.9,6.3,2.6c1.7,1.7,2.6,4,2.6,6.3l0,0c0,5-4,9-9,9l0,0
			C94.7,88.4,90.6,84.4,90.6,79.4z"/>
		<path class="st3" d="M79.8,40.2h39.6v78.6H79.8V40.2z"/>
		<path d="M97.5,80.1v-1.4h4.3v1.4H97.5z"/>
		<path class="st5" d="M130.3,79.4L130.3,79.4c0-5,4-9,9-9l0,0c2.4,0,4.7,0.9,6.3,2.6s2.6,4,2.6,6.3l0,0c0,5-4,9-9,9l0,0
			C134.3,88.4,130.3,84.4,130.3,79.4z"/>
		<path class="st2" d="M130.3,79.4L130.3,79.4c0-5,4-9,9-9l0,0c2.4,0,4.7,0.9,6.3,2.6s2.6,4,2.6,6.3l0,0c0,5-4,9-9,9l0,0
			C134.3,88.4,130.3,84.4,130.3,79.4z"/>
		<path class="st3" d="M119.5,40.2h39.6v78.6h-39.6V40.2z"/>
		<path d="M137.1,80.1v-1.4h4.3v1.4H137.1z"/>
		<path class="st5" d="M169.9,79.4L169.9,79.4c0-5,4-9,9-9l0,0c2.4,0,4.7,0.9,6.3,2.6s2.6,4,2.6,6.3l0,0c0,5-4,9-9,9l0,0
			C174,88.4,169.9,84.4,169.9,79.4z"/>
		<path class="st2" d="M169.9,79.4L169.9,79.4c0-5,4-9,9-9l0,0c2.4,0,4.7,0.9,6.3,2.6s2.6,4,2.6,6.3l0,0c0,5-4,9-9,9l0,0
			C174,88.4,169.9,84.4,169.9,79.4z"/>
		<path class="st3" d="M159.1,40.2h39.6v78.6h-39.6V40.2z"/>
		<path d="M176.8,80.1v-1.4h4.3v1.4H176.8z"/>
		<path class="st3" d="M190,55.2h33.3v42.1H190V55.2z"/>
		<path d="M200.4,79.5v-1.6h1.6v1.6H200.4z M204.9,79.5v-1.6h1.6v1.6H204.9z M209.3,79.5v-1.6h1.6v1.6H209.3z"/>
	</g>
</g>
</svg>
