<?xml version="1.0" encoding="utf-8"?>
<!-- Generator: Adobe Illustrator 22.0.1, SVG Export Plug-In . SVG Version: 6.00 Build 0)  -->
<svg version="1.1" id="Layer_1" xmlns="http://www.w3.org/2000/svg" xmlns:xlink="http://www.w3.org/1999/xlink" x="0px" y="0px"
	 viewBox="0 0 357.9 158.9" style="enable-background:new 0 0 357.9 158.9;" xml:space="preserve">
<style type="text/css">
	.st0{clip-path:url(#SVGID_2_);}
	.st1{fill:#B6D7A8;}
	.st2{fill:none;stroke:#595959;stroke-linejoin:round;stroke-miterlimit:10;}
	.st3{fill:#FFD966;}
	.st4{fill-opacity:0;}
	.st5{fill:#595959;stroke:#595959;stroke-miterlimit:10;}
</style>
<g>
	<defs>
		<rect id="SVGID_1_" x="-251.1" y="-100.2" width="960" height="540"/>
	</defs>
	<clipPath id="SVGID_2_">
		<use xlink:href="#SVGID_1_"  style="overflow:visible;"/>
	</clipPath>
	<g class="st0">
		<path class="st1" d="M0.5,0.5h39.7v39.7H0.5V0.5z"/>
		<path class="st2" d="M0.5,0.5h39.7v39.7H0.5V0.5z"/>
		<path d="M12.1,23.2l1.4-0.2c0.2,0.8,0.4,1.4,0.8,1.7c0.4,0.3,0.9,0.5,1.4,0.5c0.7,0,1.2-0.2,1.7-0.7c0.5-0.5,0.7-1,0.7-1.7
			c0-0.6-0.2-1.2-0.6-1.6c-0.4-0.4-1-0.6-1.6-0.6c-0.3,0-0.6,0.1-1,0.2l0.2-1.2c0.1,0,0.2,0,0.2,0c0.6,0,1.1-0.2,1.6-0.5
			c0.5-0.3,0.7-0.8,0.7-1.5c0-0.5-0.2-0.9-0.5-1.3c-0.3-0.3-0.8-0.5-1.3-0.5c-0.6,0-1,0.2-1.4,0.5c-0.4,0.3-0.6,0.9-0.7,1.5
			l-1.4-0.3c0.2-0.9,0.6-1.7,1.2-2.2c0.6-0.5,1.4-0.8,2.3-0.8c0.6,0,1.2,0.1,1.7,0.4c0.5,0.3,0.9,0.6,1.2,1.1
			c0.3,0.5,0.4,0.9,0.4,1.5c0,0.5-0.1,1-0.4,1.4c-0.3,0.4-0.7,0.7-1.2,1c0.7,0.2,1.2,0.5,1.6,1c0.4,0.5,0.6,1.1,0.6,1.8
			c0,1-0.4,1.8-1.1,2.5c-0.7,0.7-1.7,1-2.8,1c-1,0-1.8-0.3-2.5-0.9C12.6,24.9,12.2,24.1,12.1,23.2z M21,20.5c0-1.4,0.1-2.4,0.4-3.3
			c0.3-0.8,0.7-1.5,1.3-1.9c0.6-0.4,1.2-0.7,2.1-0.7c0.6,0,1.2,0.1,1.6,0.4c0.5,0.2,0.9,0.6,1.2,1.1c0.3,0.5,0.5,1,0.7,1.7
			c0.2,0.7,0.3,1.6,0.3,2.7c0,1.3-0.1,2.4-0.4,3.3c-0.3,0.8-0.7,1.5-1.2,1.9c-0.6,0.4-1.2,0.7-2.1,0.7c-1.1,0-2-0.4-2.6-1.2
			C21.4,24.2,21,22.7,21,20.5z M22.4,20.5c0,1.9,0.2,3.1,0.7,3.8c0.4,0.6,1,0.9,1.6,0.9c0.6,0,1.2-0.3,1.6-0.9
			c0.4-0.6,0.7-1.9,0.7-3.8c0-1.9-0.2-3.1-0.7-3.8c-0.4-0.6-1-0.9-1.6-0.9c-0.6,0-1.2,0.3-1.5,0.8C22.7,17.4,22.4,18.7,22.4,20.5z"
			/>
		<path class="st3" d="M40.2,0.5h39.7v39.7H40.2V0.5z"/>
		<path class="st2" d="M40.2,0.5h39.7v39.7H40.2V0.5z"/>
		<path d="M56.2,20.5c0-1.4,0.1-2.4,0.4-3.3c0.3-0.8,0.7-1.5,1.3-1.9c0.6-0.4,1.2-0.7,2.1-0.7c0.6,0,1.2,0.1,1.6,0.4
			c0.5,0.2,0.9,0.6,1.2,1.1c0.3,0.5,0.5,1,0.7,1.7c0.2,0.7,0.3,1.6,0.3,2.7c0,1.3-0.1,2.4-0.4,3.3c-0.3,0.8-0.7,1.5-1.2,1.9
			c-0.6,0.4-1.2,0.7-2.1,0.7c-1.1,0-2-0.4-2.6-1.2C56.6,24.2,56.2,22.7,56.2,20.5z M57.6,20.5c0,1.9,0.2,3.1,0.7,3.8
			c0.4,0.6,1,0.9,1.6,0.9c0.6,0,1.2-0.3,1.6-0.9c0.4-0.6,0.7-1.9,0.7-3.8c0-1.9-0.2-3.1-0.7-3.8c-0.4-0.6-1-0.9-1.6-0.9
			c-0.6,0-1.2,0.3-1.5,0.8C57.9,17.4,57.6,18.7,57.6,20.5z"/>
		<path class="st3" d="M79.8,0.5h39.7v39.7H79.8V0.5z"/>
		<path class="st2" d="M79.8,0.5h39.7v39.7H79.8V0.5z"/>
		<path d="M95.9,20.5c0-1.4,0.1-2.4,0.4-3.3c0.3-0.8,0.7-1.5,1.3-1.9c0.6-0.4,1.2-0.7,2.1-0.7c0.6,0,1.2,0.1,1.6,0.4
			c0.5,0.2,0.9,0.6,1.2,1.1c0.3,0.5,0.5,1,0.7,1.7c0.2,0.7,0.3,1.6,0.3,2.7c0,1.3-0.1,2.4-0.4,3.3c-0.3,0.8-0.7,1.5-1.2,1.9
			c-0.6,0.4-1.2,0.7-2.1,0.7c-1.1,0-2-0.4-2.6-1.2C96.2,24.2,95.9,22.7,95.9,20.5z M97.3,20.5c0,1.9,0.2,3.1,0.7,3.8
			c0.4,0.6,1,0.9,1.6,0.9c0.6,0,1.2-0.3,1.6-0.9c0.4-0.6,0.7-1.9,0.7-3.8c0-1.9-0.2-3.1-0.7-3.8c-0.4-0.6-1-0.9-1.6-0.9
			c-0.6,0-1.2,0.3-1.5,0.8C97.5,17.4,97.3,18.7,97.3,20.5z"/>
		<path class="st3" d="M119.5,0.5h39.7v39.7h-39.7V0.5z"/>
		<path class="st2" d="M119.5,0.5h39.7v39.7h-39.7V0.5z"/>
		<path d="M135.5,20.5c0-1.4,0.1-2.4,0.4-3.3c0.3-0.8,0.7-1.5,1.3-1.9c0.6-0.4,1.2-0.7,2.1-0.7c0.6,0,1.2,0.1,1.6,0.4
			c0.5,0.2,0.9,0.6,1.2,1.1c0.3,0.5,0.5,1,0.7,1.7c0.2,0.7,0.3,1.6,0.3,2.7c0,1.3-0.1,2.4-0.4,3.3c-0.3,0.8-0.7,1.5-1.2,1.9
			c-0.6,0.4-1.2,0.7-2.1,0.7c-1.1,0-2-0.4-2.6-1.2C135.9,24.2,135.5,22.7,135.5,20.5z M136.9,20.5c0,1.9,0.2,3.1,0.7,3.8
			c0.4,0.6,1,0.9,1.6,0.9c0.6,0,1.2-0.3,1.6-0.9c0.4-0.6,0.7-1.9,0.7-3.8c0-1.9-0.2-3.1-0.7-3.8c-0.4-0.6-1-0.9-1.6-0.9
			c-0.6,0-1.2,0.3-1.5,0.8C137.2,17.4,136.9,18.7,136.9,20.5z"/>
		<path class="st3" d="M159.1,0.5h39.7v39.7h-39.7V0.5z"/>
		<path class="st2" d="M159.1,0.5h39.7v39.7h-39.7V0.5z"/>
		<path d="M175.2,20.5c0-1.4,0.1-2.4,0.4-3.3c0.3-0.8,0.7-1.5,1.3-1.9c0.6-0.4,1.2-0.7,2.1-0.7c0.6,0,1.2,0.1,1.6,0.4
			c0.5,0.2,0.9,0.6,1.2,1.1c0.3,0.5,0.5,1,0.7,1.7c0.2,0.7,0.3,1.6,0.3,2.7c0,1.3-0.1,2.4-0.4,3.3c-0.3,0.8-0.7,1.5-1.2,1.9
			c-0.6,0.4-1.2,0.7-2.1,0.7c-1.1,0-2-0.4-2.6-1.2C175.5,24.2,175.2,22.7,175.2,20.5z M176.6,20.5c0,1.9,0.2,3.1,0.7,3.8
			c0.4,0.6,1,0.9,1.6,0.9c0.6,0,1.2-0.3,1.6-0.9c0.4-0.6,0.7-1.9,0.7-3.8c0-1.9-0.2-3.1-0.7-3.8c-0.4-0.6-1-0.9-1.6-0.9
			c-0.6,0-1.2,0.3-1.5,0.8C176.8,17.4,176.6,18.7,176.6,20.5z"/>
		<path class="st1" d="M238.4,0.5h39.7v39.7h-39.7V0.5z"/>
		<path class="st2" d="M238.4,0.5h39.7v39.7h-39.7V0.5z"/>
		<path d="M257.4,24.8v1.4h-7.6c0-0.3,0-0.7,0.2-1c0.2-0.5,0.5-1,0.9-1.5c0.4-0.5,1-1.1,1.8-1.7c1.2-1,2.1-1.8,2.5-2.4
			c0.4-0.6,0.7-1.2,0.7-1.7c0-0.6-0.2-1-0.6-1.4c-0.4-0.4-0.9-0.6-1.6-0.6c-0.7,0-1.2,0.2-1.6,0.6c-0.4,0.4-0.6,1-0.6,1.7l-1.5-0.1
			c0.1-1.1,0.5-1.9,1.1-2.5c0.6-0.6,1.5-0.8,2.6-0.8c1.1,0,2,0.3,2.6,0.9c0.6,0.6,1,1.4,1,2.3c0,0.5-0.1,0.9-0.3,1.4
			c-0.2,0.4-0.5,0.9-0.9,1.4c-0.4,0.5-1.2,1.2-2.2,2c-0.8,0.7-1.4,1.2-1.6,1.5c-0.2,0.2-0.4,0.5-0.6,0.8H257.4z M258.9,23.2l1.5-0.1
			c0.1,0.7,0.4,1.3,0.8,1.6c0.4,0.4,0.9,0.5,1.4,0.5c0.7,0,1.3-0.3,1.7-0.8c0.5-0.5,0.7-1.2,0.7-2c0-0.8-0.2-1.4-0.7-1.9
			c-0.4-0.5-1-0.7-1.8-0.7c-0.5,0-0.9,0.1-1.2,0.3c-0.4,0.2-0.7,0.5-0.9,0.8l-1.3-0.2l1.1-5.9h5.7v1.3h-4.6l-0.6,3.1
			c0.7-0.5,1.4-0.7,2.2-0.7c1,0,1.8,0.3,2.5,1c0.7,0.7,1,1.6,1,2.7c0,1-0.3,1.9-0.9,2.7c-0.7,0.9-1.7,1.4-3,1.4
			c-1,0-1.9-0.3-2.5-0.9C259.4,24.9,259,24.1,258.9,23.2z"/>
		<path class="st1" d="M278.1,0.5h39.7v39.7h-39.7V0.5z"/>
		<path class="st2" d="M278.1,0.5h39.7v39.7h-39.7V0.5z"/>
		<path d="M297.1,24.8v1.4h-7.6c0-0.3,0-0.7,0.2-1c0.2-0.5,0.5-1,0.9-1.5c0.4-0.5,1-1.1,1.8-1.7c1.2-1,2.1-1.8,2.5-2.4
			c0.4-0.6,0.7-1.2,0.7-1.7c0-0.6-0.2-1-0.6-1.4c-0.4-0.4-0.9-0.6-1.6-0.6c-0.7,0-1.2,0.2-1.6,0.6c-0.4,0.4-0.6,1-0.6,1.7l-1.5-0.1
			c0.1-1.1,0.5-1.9,1.1-2.5c0.6-0.6,1.5-0.8,2.6-0.8c1.1,0,2,0.3,2.6,0.9c0.6,0.6,1,1.4,1,2.3c0,0.5-0.1,0.9-0.3,1.4
			c-0.2,0.4-0.5,0.9-0.9,1.4c-0.4,0.5-1.2,1.2-2.2,2c-0.8,0.7-1.4,1.2-1.6,1.5c-0.2,0.2-0.4,0.5-0.6,0.8H297.1z M305.9,17.5
			l-1.4,0.1c-0.1-0.6-0.3-1-0.5-1.2c-0.4-0.4-0.8-0.6-1.4-0.6c-0.4,0-0.8,0.1-1.2,0.4c-0.4,0.3-0.8,0.8-1.1,1.4
			c-0.3,0.6-0.4,1.5-0.4,2.6c0.3-0.5,0.8-0.9,1.3-1.2c0.5-0.3,1-0.4,1.5-0.4c0.9,0,1.7,0.3,2.4,1c0.7,0.7,1,1.6,1,2.7
			c0,0.7-0.2,1.4-0.5,2c-0.3,0.6-0.7,1.1-1.3,1.4c-0.5,0.3-1.2,0.5-1.8,0.5c-1.2,0-2.1-0.4-2.9-1.3c-0.7-0.9-1.1-2.3-1.1-4.3
			c0-2.2,0.4-3.8,1.2-4.8c0.7-0.9,1.7-1.3,2.9-1.3c0.9,0,1.6,0.3,2.2,0.8C305.4,16,305.8,16.6,305.9,17.5z M300.1,22.5
			c0,0.5,0.1,1,0.3,1.4c0.2,0.4,0.5,0.8,0.9,1c0.4,0.2,0.8,0.3,1.2,0.3c0.6,0,1.1-0.2,1.5-0.7c0.4-0.5,0.6-1.1,0.6-2
			c0-0.8-0.2-1.4-0.6-1.9c-0.4-0.5-0.9-0.7-1.6-0.7c-0.6,0-1.2,0.2-1.6,0.7C300.3,21.1,300.1,21.7,300.1,22.5z"/>
		<path class="st1" d="M317.7,0.5h39.7v39.7h-39.7V0.5z"/>
		<path class="st2" d="M317.7,0.5h39.7v39.7h-39.7V0.5z"/>
		<path d="M332.3,26.2v-1.6h1.6v1.6H332.3z M336.8,26.2v-1.6h1.6v1.6H336.8z M341.2,26.2v-1.6h1.6v1.6H341.2z"/>
		<path class="st1" d="M0.5,118.7h39.7v39.7H0.5V118.7z"/>
		<path class="st2" d="M0.5,118.7h39.7v39.7H0.5V118.7z"/>
		<path d="M12.1,141.4l1.4-0.2c0.2,0.8,0.4,1.4,0.8,1.7c0.4,0.3,0.9,0.5,1.4,0.5c0.7,0,1.2-0.2,1.7-0.7c0.5-0.5,0.7-1,0.7-1.7
			c0-0.6-0.2-1.2-0.6-1.6c-0.4-0.4-1-0.6-1.6-0.6c-0.3,0-0.6,0.1-1,0.2l0.2-1.2c0.1,0,0.2,0,0.2,0c0.6,0,1.1-0.2,1.6-0.5
			c0.5-0.3,0.7-0.8,0.7-1.5c0-0.5-0.2-0.9-0.5-1.3c-0.3-0.3-0.8-0.5-1.3-0.5c-0.6,0-1,0.2-1.4,0.5c-0.4,0.3-0.6,0.9-0.7,1.5
			l-1.4-0.3c0.2-0.9,0.6-1.7,1.2-2.2c0.6-0.5,1.4-0.8,2.3-0.8c0.6,0,1.2,0.1,1.7,0.4c0.5,0.3,0.9,0.6,1.2,1.1
			c0.3,0.5,0.4,0.9,0.4,1.5c0,0.5-0.1,1-0.4,1.4c-0.3,0.4-0.7,0.7-1.2,1c0.7,0.2,1.2,0.5,1.6,1s0.6,1.1,0.6,1.8c0,1-0.4,1.8-1.1,2.5
			c-0.7,0.7-1.7,1-2.8,1c-1,0-1.8-0.3-2.5-0.9C12.6,143.1,12.2,142.4,12.1,141.4z M21,138.8c0-1.4,0.1-2.4,0.4-3.3
			c0.3-0.8,0.7-1.5,1.3-1.9c0.6-0.4,1.2-0.7,2.1-0.7c0.6,0,1.2,0.1,1.6,0.4c0.5,0.2,0.9,0.6,1.2,1.1c0.3,0.5,0.5,1,0.7,1.7
			c0.2,0.7,0.3,1.6,0.3,2.7c0,1.3-0.1,2.4-0.4,3.3c-0.3,0.8-0.7,1.5-1.2,1.9c-0.6,0.4-1.2,0.7-2.1,0.7c-1.1,0-2-0.4-2.6-1.2
			C21.4,142.5,21,140.9,21,138.8z M22.4,138.8c0,1.9,0.2,3.1,0.7,3.8c0.4,0.6,1,0.9,1.6,0.9c0.6,0,1.2-0.3,1.6-0.9s0.7-1.9,0.7-3.8
			c0-1.9-0.2-3.1-0.7-3.8c-0.4-0.6-1-0.9-1.6-0.9c-0.6,0-1.2,0.3-1.5,0.8C22.7,135.6,22.4,136.9,22.4,138.8z"/>
		<path class="st3" d="M40.2,118.7h39.7v39.7H40.2V118.7z"/>
		<path class="st2" d="M40.2,118.7h39.7v39.7H40.2V118.7z"/>
		<path d="M56.2,138.8c0-1.4,0.1-2.4,0.4-3.3c0.3-0.8,0.7-1.5,1.3-1.9s1.2-0.7,2.1-0.7c0.6,0,1.2,0.1,1.6,0.4
			c0.5,0.2,0.9,0.6,1.2,1.1s0.5,1,0.7,1.7c0.2,0.7,0.3,1.6,0.3,2.7c0,1.3-0.1,2.4-0.4,3.3c-0.3,0.8-0.7,1.5-1.2,1.9
			c-0.6,0.4-1.2,0.7-2.1,0.7c-1.1,0-2-0.4-2.6-1.2C56.6,142.5,56.2,140.9,56.2,138.8z M57.6,138.8c0,1.9,0.2,3.1,0.7,3.8
			c0.4,0.6,1,0.9,1.6,0.9s1.2-0.3,1.6-0.9s0.7-1.9,0.7-3.8c0-1.9-0.2-3.1-0.7-3.8c-0.4-0.6-1-0.9-1.6-0.9c-0.6,0-1.2,0.3-1.5,0.8
			C57.9,135.6,57.6,136.9,57.6,138.8z"/>
		<path class="st3" d="M79.8,118.7h39.7v39.7H79.8V118.7z"/>
		<path class="st2" d="M79.8,118.7h39.7v39.7H79.8V118.7z"/>
		<path d="M100.4,144.4v-2.8h-5v-1.3l5.2-7.4h1.1v7.4h1.5v1.3h-1.5v2.8H100.4z M100.4,140.4v-5.2l-3.6,5.2H100.4z"/>
		<path class="st1" d="M119.5,118.7h39.7v39.7h-39.7V118.7z"/>
		<path class="st2" d="M119.5,118.7h39.7v39.7h-39.7V118.7z"/>
		<path d="M138.5,143.1v1.4h-7.6c0-0.3,0-0.7,0.2-1c0.2-0.5,0.5-1,0.9-1.5c0.4-0.5,1-1.1,1.8-1.7c1.2-1,2.1-1.8,2.5-2.4
			c0.4-0.6,0.7-1.2,0.7-1.7c0-0.6-0.2-1-0.6-1.4c-0.4-0.4-0.9-0.6-1.6-0.6c-0.7,0-1.2,0.2-1.6,0.6s-0.6,1-0.6,1.7l-1.5-0.1
			c0.1-1.1,0.5-1.9,1.1-2.5c0.6-0.6,1.5-0.8,2.6-0.8c1.1,0,2,0.3,2.6,0.9c0.6,0.6,1,1.4,1,2.3c0,0.5-0.1,0.9-0.3,1.4
			c-0.2,0.4-0.5,0.9-0.9,1.4s-1.2,1.2-2.2,2c-0.8,0.7-1.4,1.2-1.6,1.5c-0.2,0.3-0.4,0.5-0.6,0.8H138.5z M140,141.4l1.5-0.1
			c0.1,0.7,0.4,1.3,0.8,1.6c0.4,0.4,0.9,0.5,1.4,0.5c0.7,0,1.3-0.3,1.7-0.8s0.7-1.2,0.7-2c0-0.8-0.2-1.4-0.7-1.9
			c-0.4-0.5-1-0.7-1.8-0.7c-0.5,0-0.9,0.1-1.2,0.3c-0.4,0.2-0.7,0.5-0.9,0.8l-1.3-0.2l1.1-5.9h5.7v1.3h-4.6l-0.6,3.1
			c0.7-0.5,1.4-0.7,2.2-0.7c1,0,1.8,0.3,2.5,1c0.7,0.7,1,1.6,1,2.7c0,1-0.3,1.9-0.9,2.7c-0.7,0.9-1.7,1.4-3,1.4
			c-1,0-1.9-0.3-2.5-0.9C140.4,143.2,140.1,142.4,140,141.4z"/>
		<path class="st1" d="M159.1,118.7h39.7v39.7h-39.7V118.7z"/>
		<path class="st2" d="M159.1,118.7h39.7v39.7h-39.7V118.7z"/>
		<path d="M178.1,143.1v1.4h-7.6c0-0.3,0-0.7,0.2-1c0.2-0.5,0.5-1,0.9-1.5s1-1.1,1.8-1.7c1.2-1,2.1-1.8,2.5-2.4
			c0.4-0.6,0.7-1.2,0.7-1.7c0-0.6-0.2-1-0.6-1.4s-0.9-0.6-1.6-0.6c-0.7,0-1.2,0.2-1.6,0.6s-0.6,1-0.6,1.7l-1.5-0.1
			c0.1-1.1,0.5-1.9,1.1-2.5s1.5-0.8,2.6-0.8c1.1,0,2,0.3,2.6,0.9c0.6,0.6,1,1.4,1,2.3c0,0.5-0.1,0.9-0.3,1.4
			c-0.2,0.4-0.5,0.9-0.9,1.4s-1.2,1.2-2.2,2c-0.8,0.7-1.4,1.2-1.6,1.5c-0.2,0.3-0.4,0.5-0.6,0.8H178.1z M186.9,135.8l-1.4,0.1
			c-0.1-0.6-0.3-1-0.5-1.2c-0.4-0.4-0.8-0.6-1.4-0.6c-0.4,0-0.8,0.1-1.2,0.4c-0.4,0.3-0.8,0.8-1.1,1.4c-0.3,0.6-0.4,1.5-0.4,2.6
			c0.3-0.5,0.8-0.9,1.3-1.2s1-0.4,1.5-0.4c0.9,0,1.7,0.3,2.4,1c0.7,0.7,1,1.6,1,2.7c0,0.7-0.2,1.4-0.5,2s-0.7,1.1-1.3,1.4
			s-1.2,0.5-1.8,0.5c-1.2,0-2.1-0.4-2.9-1.3s-1.1-2.3-1.1-4.3c0-2.2,0.4-3.8,1.2-4.8c0.7-0.9,1.7-1.3,2.9-1.3c0.9,0,1.6,0.3,2.2,0.8
			C186.4,134.2,186.8,134.9,186.9,135.8z M181.2,140.7c0,0.5,0.1,1,0.3,1.4c0.2,0.4,0.5,0.8,0.9,1c0.4,0.2,0.8,0.3,1.2,0.3
			c0.6,0,1.1-0.2,1.5-0.7s0.6-1.1,0.6-2c0-0.8-0.2-1.4-0.6-1.9c-0.4-0.5-0.9-0.7-1.6-0.7c-0.6,0-1.2,0.2-1.6,0.7
			C181.4,139.4,181.2,140,181.2,140.7z"/>
		<path class="st1" d="M198.8,118.7h39.7v39.7h-39.7V118.7z"/>
		<path class="st2" d="M198.8,118.7h39.7v39.7h-39.7V118.7z"/>
		<path d="M213.4,144.4v-1.6h1.6v1.6H213.4z M217.8,144.4v-1.6h1.6v1.6H217.8z M222.3,144.4v-1.6h1.6v1.6H222.3z"/>
		<path class="st4" d="M20.3,40.2v78.6"/>
		<path class="st2" d="M20.3,40.2v72.6"/>
		<path class="st5" d="M18.7,112.7l1.7,4.5l1.7-4.5H18.7z"/>
		<path class="st4" d="M60,40.2v78.6"/>
		<path class="st2" d="M60,40.2v72.6"/>
		<path class="st5" d="M58.3,112.7l1.7,4.5l1.7-4.5H58.3z"/>
		<path class="st4" d="M159.1,52.2l-59.5,66.5"/>
		<path class="st2" d="M159.1,52.2l-55.5,62"/>
		<path class="st5" d="M102.4,113.2l-1.8,4.5l4.3-2.3L102.4,113.2z"/>
		<path class="st4" d="M99.6,40.1h119v12.1h-119V40.1z"/>
		<path class="st2" d="M99.6,40.1h119v12.1h-119V40.1z"/>
		<path class="st4" d="M258.2,40.2l-119,78.6"/>
		<path class="st2" d="M258.2,40.2l-114,75.3"/>
		<path class="st5" d="M143.4,114.1l-2.9,3.9l4.7-1.1L143.4,114.1z"/>
		<path class="st4" d="M297.9,40.2l-119,78.6"/>
		<path class="st2" d="M297.9,40.2l-114,75.3"/>
		<path class="st5" d="M183,114.1l-2.9,3.9l4.7-1.1L183,114.1z"/>
		<path class="st4" d="M337.6,40.2l-119,78.6"/>
		<path class="st2" d="M337.6,40.2l-114,75.3"/>
		<path class="st5" d="M222.7,114.1l-2.9,3.9l4.7-1.1L222.7,114.1z"/>
		<path class="st3" d="M198.8,0.5h39.7v39.7h-39.7V0.5z"/>
		<path class="st2" d="M198.8,0.5h39.7v39.7h-39.7V0.5z"/>
		<path d="M214.8,20.5c0-1.4,0.1-2.4,0.4-3.3c0.3-0.8,0.7-1.5,1.3-1.9c0.6-0.4,1.2-0.7,2.1-0.7c0.6,0,1.2,0.1,1.6,0.4
			c0.5,0.2,0.9,0.6,1.2,1.1c0.3,0.5,0.5,1,0.7,1.7c0.2,0.7,0.3,1.6,0.3,2.7c0,1.3-0.1,2.4-0.4,3.3c-0.3,0.8-0.7,1.5-1.2,1.9
			c-0.6,0.4-1.2,0.7-2.1,0.7c-1.1,0-2-0.4-2.6-1.2C215.2,24.2,214.8,22.7,214.8,20.5z M216.3,20.5c0,1.9,0.2,3.1,0.7,3.8
			c0.4,0.6,1,0.9,1.6,0.9c0.6,0,1.2-0.3,1.6-0.9c0.4-0.6,0.7-1.9,0.7-3.8c0-1.9-0.2-3.1-0.7-3.8c-0.4-0.6-1-0.9-1.6-0.9
			c-0.6,0-1.2,0.3-1.5,0.8C216.5,17.4,216.3,18.7,216.3,20.5z"/>
	</g>
</g>
</svg>
